<?xml version="1.0" encoding="UTF-8" standalone="no"?>
<svg
   xmlns:dc="http://purl.org/dc/elements/1.1/"
   xmlns:cc="http://creativecommons.org/ns#"
   xmlns:rdf="http://www.w3.org/1999/02/22-rdf-syntax-ns#"
   xmlns:svg="http://www.w3.org/2000/svg"
   xmlns="http://www.w3.org/2000/svg"
   xmlns:sodipodi="http://sodipodi.sourceforge.net/DTD/sodipodi-0.dtd"
   xmlns:inkscape="http://www.inkscape.org/namespaces/inkscape"
   width="99.751854mm"
   height="55.437977mm"
   viewBox="0 0 99.751857 55.437977"
   version="1.1"
   id="svg8"
   inkscape:version="1.0.2-2 (e86c870879, 2021-01-15)"
   sodipodi:docname="Joe-github.svg">
  <defs
     id="defs2">
    <rect
       x="-309.94049"
       y="-240.39285"
       width="645.58331"
       height="360.58929"
       id="rect842" />
    <rect
       x="-364.36905"
       y="-117.17262"
       width="409.7262"
       height="222.25"
       id="rect850" />
    <rect
       x="-591.15479"
       y="-95.25"
       width="541.2619"
       height="124.73214"
       id="rect844" />
    <rect
       x="-341.69049"
       y="-144.3869"
       width="554.86908"
       height="182.18452"
       id="rect838" />
    <rect
       x="-424.84525"
       y="-94.494049"
       width="343.20239"
       height="135.31548"
       id="rect832" />
    <filter
       inkscape:collect="always"
       style="color-interpolation-filters:sRGB"
       id="filter2277"
       x="-0.009036039"
       width="1.0180721"
       y="-0.014517543"
       height="1.0290351">
      <feGaussianBlur
         inkscape:collect="always"
         stdDeviation="0.29163183"
         id="feGaussianBlur2279" />
    </filter>
    <rect
       id="rect2081"
       height="33.446205"
       width="249.52969"
       y="-297.98026"
       x="-198.87129" />
    <rect
       id="rect933"
       height="33.446205"
       width="249.52969"
       y="-297.98026"
       x="-198.87129" />
    <rect
       id="rect2083"
       height="61.216099"
       width="623.1485"
       y="-391.76645"
       x="96.221687" />
    <rect
       id="rect936"
       height="61.216099"
       width="623.1485"
       y="-391.76645"
       x="96.221687" />
    <rect
       x="1129.6389"
       y="-539.51434"
       width="87.953621"
       height="81.074562"
       id="rect2089" />
    <rect
       x="1129.6389"
       y="-539.51434"
       width="87.953621"
       height="81.074562"
       id="rect939" />
    <rect
       id="rect2091"
       height="81.074562"
       width="87.953621"
       y="-539.51434"
       x="1129.6389" />
    <rect
       id="rect942"
       height="81.074562"
       width="87.953621"
       y="-539.51434"
       x="1129.6389" />
  </defs>
  <sodipodi:namedview
     id="base"
     pagecolor="#4f4f4f"
     bordercolor="#666666"
     borderopacity="1.0"
     inkscape:pageopacity="0"
     inkscape:pageshadow="2"
     inkscape:zoom="2.8284272"
     inkscape:cx="231.35497"
     inkscape:cy="79.901715"
     inkscape:document-units="mm"
     inkscape:current-layer="layer1"
     inkscape:document-rotation="0"
     showgrid="false"
     showborder="true"
     inkscape:window-width="3840"
     inkscape:window-height="2066"
     inkscape:window-x="-11"
     inkscape:window-y="-11"
     inkscape:window-maximized="1"
     fit-margin-top="0"
     fit-margin-left="0"
     fit-margin-right="0"
     fit-margin-bottom="0" />
  <metadata
     id="metadata5">
    <rdf:RDF>
      <cc:Work
         rdf:about="">
        <dc:format>image/svg+xml</dc:format>
        <dc:type
           rdf:resource="http://purl.org/dc/dcmitype/StillImage" />
        <dc:title></dc:title>
      </cc:Work>
    </rdf:RDF>
  </metadata>
  <g
     inkscape:label="Layer 1"
     inkscape:groupmode="layer"
     id="layer1"
     transform="translate(-55.124074,-120.78101)">
    <text
       xml:space="preserve"
       id="text842"
       style="font-weight:900;font-size:10.5833px;line-height:15.875px;font-family:dubai;-inkscape-font-specification:'dubai Heavy';letter-spacing:11.9062px;word-spacing:0px;writing-mode:lr-tb;white-space:pre;shape-inside:url(#rect844);" />
    <g
       id="g957"
       transform="matrix(0.74419118,0,0,0.74419118,-264.0615,32.60994)">
      <rect
         style="opacity:0.877076;fill:#b3b3b3;fill-opacity:1;fill-rule:evenodd;stroke:none;stroke-width:0.0616177;stroke-linecap:round;stroke-linejoin:round;stroke-opacity:1;paint-order:stroke fill markers;filter:url(#filter2277)"
         id="rect2251"
         width="77.458321"
         height="48.211765"
         x="549.40179"
         y="131.6203"
         ry="0.027631754"
         inkscape:export-filename="C:\Users\Matt's PC\Desktop\Campaigns\Joe-McGuirk-Campaign\Graphics\Logos\PNG\joe-mcguirk-logo-16.png"
         inkscape:export-xdpi="350"
         inkscape:export-ydpi="350"
         transform="matrix(1.4889157,0,0,1.4889157,-379.75443,-76.136966)" />
      <rect
         style="fill:#ffffff;fill-opacity:1;fill-rule:evenodd;stroke:none;stroke-width:0.0917434;stroke-linecap:round;stroke-linejoin:round;stroke-opacity:1;paint-order:stroke fill markers"
         id="rect2211"
         width="115.32891"
         height="71.783257"
         x="438.25851"
         y="119.83456"
         ry="0.041141354"
         inkscape:export-filename="C:\Users\Matt's PC\Desktop\Campaigns\Joe-McGuirk-Campaign\Graphics\Logos\PNG\joe-mcguirk-logo-16.png"
         inkscape:export-xdpi="350"
         inkscape:export-ydpi="350" />
      <rect
         inkscape:export-ydpi="350"
         inkscape:export-xdpi="350"
         inkscape:export-filename="C:\Users\Matt's PC\Desktop\Campaigns\Joe-McGuirk-Campaign\Graphics\Logos\PNG\joe-design-20.png"
         y="122.35281"
         x="440.73624"
         height="66.74675"
         width="110.37354"
         id="rect1944"
         style="fill:#073763;fill-opacity:1;fill-rule:evenodd;stroke:none;stroke-width:0.091603;stroke-linecap:square;stroke-miterlimit:4;stroke-dasharray:none;stroke-opacity:1" />
      <g
         style="display:inline;fill:#ffffff;fill-opacity:1;stroke:#ffffff;stroke-width:0.786718;stroke-miterlimit:4;stroke-dasharray:none;stroke-opacity:1"
         id="g1952"
         transform="matrix(0.44760785,0,0,0.44760785,-301.76468,203.28353)"
         inkscape:export-filename="C:\Users\Matt's PC\Desktop\Campaigns\Joe-McGuirk-Campaign\Graphics\Logos\PNG\joe-mcguirk-logo-17.png"
         inkscape:export-xdpi="350"
         inkscape:export-ydpi="350">
        <path
           d="m 1770.2276,-117.05844 q -5.5846,0 -9.3398,-3.01232 l 3.3219,-4.16408 q 1.2998,0.97457 2.5034,1.41756 1.2517,0.44299 2.7441,0.44299 2.2628,0 3.4182,-1.19607 1.2036,-1.19607 1.2036,-3.36671 v -19.44715 h 6.8363 v 19.58005 q 0,3.6768 -1.6369,5.84744 -1.6368,2.17064 -4.044,3.05661 -2.4072,0.84168 -5.0068,0.84168 z"
           style="font-style:normal;font-variant:normal;font-weight:bold;font-stretch:normal;font-size:50.8px;line-height:0px;font-family:Dubai;-inkscape-font-specification:'Dubai Bold';letter-spacing:-3.18421px;word-spacing:0px;writing-mode:lr-tb;white-space:pre;fill:#ffffff;fill-opacity:1;stroke:#ffffff;stroke-width:0.786718;stroke-miterlimit:4;stroke-dasharray:none;stroke-opacity:1"
           id="path1946" />
        <path
           d="m 1793.5925,-117.04919 q -3.6107,0 -6.1623,-1.41756 -2.5034,-1.41756 -3.7552,-3.8097 -1.2517,-2.43643 -1.2517,-5.40444 0,-3.8097 1.5887,-6.15753 1.6369,-2.34784 4.2848,-3.36671 2.6478,-1.06317 5.9215,-1.06317 3.6589,0 6.1623,1.37326 2.5516,1.32896 3.8033,3.7211 1.2518,2.39213 1.2518,5.53735 0,3.67679 -1.5888,6.06893 -1.5406,2.34783 -4.2366,3.4553 -2.6478,1.06317 -6.0178,1.06317 z m 0.337,-4.47418 q 2.5997,0 3.6588,-1.63905 1.0592,-1.68335 1.0592,-4.51847 0,-3.01232 -1.1555,-4.56278 -1.1073,-1.55045 -3.4663,-1.55045 -2.5515,0 -3.707,1.55045 -1.1554,1.50616 -1.1554,4.56278 0,2.87941 1.1554,4.51847 1.2036,1.63905 3.6108,1.63905 z"
           style="font-style:normal;font-variant:normal;font-weight:bold;font-stretch:normal;font-size:50.8px;line-height:0px;font-family:Dubai;-inkscape-font-specification:'Dubai Bold';letter-spacing:-2.32367px;word-spacing:0px;writing-mode:lr-tb;white-space:pre;fill:#ffffff;fill-opacity:1;stroke:#ffffff;stroke-width:0.786718;stroke-miterlimit:4;stroke-dasharray:none;stroke-opacity:1"
           id="path1948" />
        <path
           d="m 1827.0896,-129.4621 q 0,0.88598 -0.1926,3.10092 h -13.8652 q 0.2889,2.48073 1.7813,3.6768 1.4925,1.15176 3.5626,1.15176 1.5406,0 2.9849,-0.39868 1.4443,-0.3987 3.0811,-1.28467 l 2.2146,3.6325 q -1.7331,1.19606 -3.9958,1.86055 -2.2628,0.66448 -4.9106,0.66448 -3.1775,0 -5.7291,-1.06317 -2.5034,-1.06317 -4.044,-3.36671 -1.4924,-2.34783 -1.4924,-6.02463 0,-3.36671 1.2517,-5.80314 1.2999,-2.43643 3.707,-3.67679 2.4553,-1.28467 5.7772,-1.28467 3.1774,0 5.392,1.15177 2.2627,1.15177 3.37,3.14521 1.1073,1.99344 1.1073,4.51847 z m -9.7249,-4.73996 q -1.685,0 -2.7441,0.97457 -1.0111,0.93027 -1.3962,2.96802 h 7.6547 v -0.1329 q 0,-2.03774 -0.9628,-2.92372 -0.9629,-0.88597 -2.5516,-0.88597 z"
           style="font-style:normal;font-variant:normal;font-weight:bold;font-stretch:normal;font-size:50.8px;line-height:0px;font-family:Dubai;-inkscape-font-specification:'Dubai Bold';letter-spacing:-2.32367px;word-spacing:0px;writing-mode:lr-tb;white-space:pre;fill:#ffffff;fill-opacity:1;stroke:#ffffff;stroke-width:0.786718;stroke-miterlimit:4;stroke-dasharray:none;stroke-opacity:1"
           id="path1950" />
      </g>
      <text
         xml:space="preserve"
         id="text1958"
         style="font-style:normal;font-variant:normal;font-weight:bold;font-stretch:normal;font-size:50.8px;line-height:24px;font-family:'Tw Cen MT';-inkscape-font-specification:'Tw Cen MT Bold';letter-spacing:-0.00159224px;word-spacing:0px;writing-mode:lr-tb;white-space:pre;shape-inside:url(#rect2081);display:inline;fill:#ffffff;fill-opacity:1;stroke:#ffffff;stroke-width:1.03493;stroke-miterlimit:4;stroke-dasharray:none;stroke-opacity:1;"
         transform="matrix(0.36238669,0,0,0.31947614,534.37422,250.34361)"
         inkscape:export-filename="C:\Users\Matt's PC\Desktop\Campaigns\Joe-McGuirk-Campaign\Graphics\Logos\PNG\joe-mcguirk-logo-17.png"
         inkscape:export-xdpi="350"
         inkscape:export-ydpi="350"><tspan
           x="-198.87109"
           y="-271.50247"><tspan
             style="font-style:normal;font-variant:normal;font-weight:bold;font-stretch:normal;font-size:50.8px;font-family:Dubai;-inkscape-font-specification:'Dubai Bold';fill:#ffffff;fill-opacity:1;stroke:#ffffff;stroke-width:1.03493;stroke-miterlimit:4;stroke-dasharray:none;stroke-opacity:1">McGuirk</tspan></tspan></text>
      <rect
         inkscape:export-ydpi="350"
         inkscape:export-xdpi="350"
         inkscape:export-filename="C:\Users\Matt's PC\Desktop\Campaigns\Joe-McGuirk-Campaign\Graphics\Logos\PNG\joe-design-51.png"
         ry="2.399725"
         y="165.38162"
         x="457.94446"
         height="8.2573566"
         width="75.957062"
         id="rect2105"
         style="fill:#ff7f24;fill-opacity:1;fill-rule:evenodd;stroke:none;stroke-width:0.457298;stroke-linecap:round;stroke-linejoin:round;stroke-opacity:1" />
      <text
         xml:space="preserve"
         id="text1964"
         style="font-style:normal;font-variant:normal;font-weight:normal;font-stretch:normal;font-size:4.23333px;line-height:2px;font-family:Dubai;-inkscape-font-specification:Dubai;letter-spacing:0px;word-spacing:0px;writing-mode:lr-tb;white-space:pre;shape-inside:url(#rect2083);display:inline;fill:#ffffff;fill-opacity:1;stroke:#ffffff;stroke-width:0.069273;stroke-miterlimit:4;stroke-dasharray:none;stroke-opacity:1;"
         transform="matrix(1.4121761,0,0,1.6468698,324.80707,813.53164)"
         inkscape:export-filename="C:\Users\Matt's PC\Desktop\Campaigns\Joe-McGuirk-Campaign\Graphics\Logos\PNG\joe-mcguirk-logo-17.png"
         inkscape:export-xdpi="350"
         inkscape:export-ydpi="350"><tspan
           x="96.222656"
           y="-389.68621"><tspan
             style="font-style:normal;font-variant:normal;font-weight:normal;font-stretch:normal;font-family:Dubai;-inkscape-font-specification:Dubai;fill:#ffffff;fill-opacity:1;stroke:#ffffff;stroke-width:0.069273;stroke-miterlimit:4;stroke-dasharray:none;stroke-opacity:1">CAMBRIDGE CITY COUNCIL</tspan></tspan></text>
      <path
         inkscape:export-ydpi="350"
         inkscape:export-xdpi="350"
         inkscape:export-filename="C:\Users\Matt's PC\Desktop\Campaigns\Joe-McGuirk-Campaign\Graphics\Logos\PNG\joe-mcguirk-logo-17.png"
         inkscape:transform-center-x="5.7370384e-05"
         inkscape:transform-center-y="-3.5255004e-05"
         inkscape:randomized="0"
         inkscape:rounded="0.55"
         inkscape:flatsided="false"
         sodipodi:arg2="1.0270591"
         sodipodi:arg1="0.78539816"
         sodipodi:r2="21.584688"
         sodipodi:r1="23.719437"
         sodipodi:cy="276.37448"
         sodipodi:cx="441.46942"
         sodipodi:sides="13"
         id="path1988"
         style="fill:#ff7f24;fill-opacity:1;fill-rule:evenodd;stroke:#ffffff;stroke-width:0.43682;stroke-linecap:round;stroke-linejoin:round;stroke-miterlimit:4;stroke-dasharray:none;stroke-opacity:1;paint-order:fill markers stroke"
         sodipodi:type="star"
         transform="matrix(0.26350931,-0.11157821,0.11157821,0.26350931,325.42991,120.80219)"
         d="m 458.2416,293.14666 c -2.27807,2.27806 -2.84855,0.0329 -5.6056,1.69959 -2.75705,1.6667 -1.03417,3.21521 -4.10997,4.17367 -3.0758,0.95846 -2.53756,-1.29465 -5.75336,-1.10013 -3.21579,0.19452 -2.40989,2.36632 -5.5788,1.7856 -3.1689,-0.58072 -1.64524,-2.32562 -4.58308,-3.64783 -2.93785,-1.32222 -3.23354,0.97534 -5.76959,-1.01153 -2.53605,-1.98687 -0.37602,-2.82381 -2.36289,-5.35986 -1.98687,-2.53605 -3.31642,-0.63908 -4.63864,-3.57693 -1.32222,-2.93784 0.97935,-2.67511 0.39862,-5.84401 -0.58072,-3.1689 -2.63955,-2.10709 -2.44503,-5.32289 0.19452,-3.2158 2.11035,-1.91357 3.06881,-4.98937 0.95846,-3.0758 -1.35799,-3.0924 0.3087,-5.84945 1.6667,-2.75705 2.7579,-0.71365 5.03597,-2.99172 2.27807,-2.27807 0.23467,-3.36927 2.99172,-5.03597 2.75705,-1.66669 2.77365,0.64976 5.84945,-0.3087 3.0758,-0.95846 1.77357,-2.87429 4.98937,-3.06881 3.21579,-0.19452 2.15399,1.86431 5.32289,2.44503 3.1689,0.58073 2.90617,-1.72084 5.84401,-0.39862 2.93785,1.32222 1.04088,2.65177 3.57693,4.63864 2.53605,1.98687 3.37299,-0.17316 5.35986,2.36289 1.98687,2.53605 -0.31069,2.83174 1.01152,5.76959 1.32222,2.93784 3.06712,1.41418 3.64784,4.58308 0.58072,3.16891 -1.59108,2.363 -1.7856,5.5788 -0.19452,3.2158 2.05859,2.67756 1.10013,5.75336 -0.95846,3.0758 -2.50697,1.35292 -4.17367,4.10997 -1.66669,2.75705 0.57847,3.32753 -1.69959,5.6056 z" />
      <circle
         inkscape:export-ydpi="350"
         inkscape:export-xdpi="350"
         inkscape:export-filename="C:\Users\Matt's PC\Desktop\Campaigns\Joe-McGuirk-Campaign\Graphics\Logos\PNG\joe-mcguirk-logo-17.png"
         transform="rotate(-22.949339)"
         r="5.5925889"
         cy="317.16751"
         cx="378.93607"
         id="circle1990"
         style="fill:#073763;fill-opacity:1;fill-rule:evenodd;stroke:#ffffff;stroke-width:0.0507339;stroke-linecap:round;stroke-linejoin:round;stroke-miterlimit:4;stroke-dasharray:none;stroke-opacity:1" />
      <circle
         inkscape:export-ydpi="350"
         inkscape:export-xdpi="350"
         inkscape:export-filename="C:\Users\Matt's PC\Desktop\Campaigns\Joe-McGuirk-Campaign\Graphics\Logos\PNG\joe-mcguirk-logo-17.png"
         style="fill:#ffffff;fill-opacity:1;fill-rule:evenodd;stroke:#ececec;stroke-width:0.0468989;stroke-linecap:round;stroke-linejoin:round;stroke-miterlimit:4;stroke-dasharray:none;stroke-opacity:1"
         id="circle1992"
         cx="378.93607"
         cy="317.16751"
         r="5.1698122"
         transform="rotate(-22.949339)" />
      <g
         inkscape:export-ydpi="350"
         inkscape:export-xdpi="350"
         inkscape:export-filename="C:\Users\Matt's PC\Desktop\Campaigns\Joe-McGuirk-Campaign\Graphics\Logos\PNG\joe-mcguirk-logo-17.png"
         style="fill:#073763;fill-opacity:1;stroke:none;stroke-opacity:1"
         transform="matrix(0.39350781,-0.01051517,0.01051517,0.39350781,-24.716819,271.24757)"
         id="g2006">
        <text
           xml:space="preserve"
           id="text1998"
           style="font-weight:bold;font-size:19.7556px;line-height:9.33333px;font-family:Arial;-inkscape-font-specification:'Arial Bold';letter-spacing:0px;word-spacing:0px;writing-mode:lr-tb;white-space:pre;shape-inside:url(#rect2089);fill:#073763;fill-opacity:1;stroke:none;stroke-width:0.399571;stroke-miterlimit:4;stroke-dasharray:none;stroke-opacity:1;"
           transform="matrix(0.97172931,-0.26552301,0.22965197,1.1235109,295.45639,614.59641)"><tspan
             x="1129.6387"
             y="-529.39931"><tspan
               style="font-style:normal;font-variant:normal;font-weight:bold;font-stretch:normal;font-size:19.7556px;font-family:Dubai;-inkscape-font-specification:'Dubai Bold';fill:#073763;fill-opacity:1;stroke:none;stroke-width:0.399571;stroke-miterlimit:4;stroke-dasharray:none;stroke-opacity:1">1</tspan></tspan></text>
        <text
           transform="matrix(1.1339561,-0.30985114,0.26799156,1.3110771,126.24723,772.29656)"
           style="font-weight:bold;font-size:19.7556px;line-height:9.33333px;font-family:Arial;-inkscape-font-specification:'Arial Bold';letter-spacing:0px;word-spacing:0px;writing-mode:lr-tb;white-space:pre;shape-inside:url(#rect2091);fill:#073763;fill-opacity:1;stroke:none;stroke-width:0.399571;stroke-miterlimit:4;stroke-dasharray:none;stroke-opacity:1;"
           id="text2004"
           xml:space="preserve"><tspan
             x="1129.6387"
             y="-529.39931"><tspan
               style="font-style:normal;font-variant:normal;font-weight:bold;font-stretch:normal;font-size:65%;font-family:Dubai;-inkscape-font-specification:'Dubai Bold';baseline-shift:super;fill:#073763;fill-opacity:1;stroke:none;stroke-width:0.399571;stroke-miterlimit:4;stroke-dasharray:none;stroke-opacity:1">#</tspan></tspan></text>
      </g>
    </g>
  </g>
</svg>
