<?xml version="1.0" encoding="UTF-8" standalone="no"?>
<svg
   xmlns:dc="http://purl.org/dc/elements/1.1/"
   xmlns:cc="http://creativecommons.org/ns#"
   xmlns:rdf="http://www.w3.org/1999/02/22-rdf-syntax-ns#"
   xmlns:svg="http://www.w3.org/2000/svg"
   xmlns="http://www.w3.org/2000/svg"
   xmlns:sodipodi="http://sodipodi.sourceforge.net/DTD/sodipodi-0.dtd"
   xmlns:inkscape="http://www.inkscape.org/namespaces/inkscape"
   width="99.751854mm"
   height="55.437977mm"
   viewBox="0 0 99.751857 55.437977"
   version="1.1"
   id="svg8"
   inkscape:version="1.0.2-2 (e86c870879, 2021-01-15)"
   sodipodi:docname="leduc-art-antiques-logo-2.svg">
  <defs
     id="defs2">
    <rect
       x="-309.94049"
       y="-240.39285"
       width="645.58331"
       height="360.58929"
       id="rect842" />
    <rect
       x="-364.36905"
       y="-117.17262"
       width="409.7262"
       height="222.25"
       id="rect850" />
    <rect
       x="-591.15479"
       y="-95.25"
       width="541.2619"
       height="124.73214"
       id="rect844" />
    <rect
       x="-341.69049"
       y="-144.3869"
       width="554.86908"
       height="182.18452"
       id="rect838" />
    <rect
       x="-424.84525"
       y="-94.494049"
       width="343.20239"
       height="135.31548"
       id="rect832" />
  </defs>
  <sodipodi:namedview
     id="base"
     pagecolor="#4f4f4f"
     bordercolor="#666666"
     borderopacity="1.0"
     inkscape:pageopacity="0"
     inkscape:pageshadow="2"
     inkscape:zoom="2.8284272"
     inkscape:cx="231.35497"
     inkscape:cy="23.333174"
     inkscape:document-units="mm"
     inkscape:current-layer="layer1"
     inkscape:document-rotation="0"
     showgrid="false"
     showborder="true"
     inkscape:window-width="3840"
     inkscape:window-height="2066"
     inkscape:window-x="-11"
     inkscape:window-y="-11"
     inkscape:window-maximized="1"
     fit-margin-top="0"
     fit-margin-left="0"
     fit-margin-right="0"
     fit-margin-bottom="0" />
  <metadata
     id="metadata5">
    <rdf:RDF>
      <cc:Work
         rdf:about="">
        <dc:format>image/svg+xml</dc:format>
        <dc:type
           rdf:resource="http://purl.org/dc/dcmitype/StillImage" />
        <dc:title></dc:title>
      </cc:Work>
    </rdf:RDF>
  </metadata>
  <g
     inkscape:label="Layer 1"
     inkscape:groupmode="layer"
     id="layer1"
     transform="translate(-55.124074,-120.78101)">
    <text
       xml:space="preserve"
       id="text842"
       style="font-weight:900;font-size:10.5833px;line-height:15.875px;font-family:dubai;-inkscape-font-specification:'dubai Heavy';letter-spacing:11.9062px;word-spacing:0px;writing-mode:lr-tb;white-space:pre;shape-inside:url(#rect844);" />
    <text
       xml:space="preserve"
       style="font-style:normal;font-variant:normal;font-weight:bold;font-stretch:normal;font-size:9.1643px;line-height:0.811798px;font-family:Garamond;-inkscape-font-specification:'Garamond, Bold';font-variant-ligatures:normal;font-variant-caps:normal;font-variant-numeric:normal;font-variant-east-asian:normal;letter-spacing:1.28873px;word-spacing:0px;writing-mode:lr-tb;fill:#ffffff;stroke-width:0.107394;stroke:#000000;"
       x="86.249168"
       y="169.51089"
       id="text909"
       inkscape:export-filename="C:\Users\Matt's PC\Desktop\Leduc Website\logos\PNGs\leduc-logo-22.png"
       inkscape:export-xdpi="350"
       inkscape:export-ydpi="350"><tspan
         sodipodi:role="line"
         id="tspan907"
         x="86.249168"
         y="169.51089"
         style="font-style:normal;font-variant:normal;font-weight:bold;font-stretch:normal;font-size:9.1643px;font-family:Garamond;-inkscape-font-specification:'Garamond, Bold';font-variant-ligatures:normal;font-variant-caps:normal;font-variant-numeric:normal;font-variant-east-asian:normal;fill:#ffffff;stroke-width:0.107394;stroke:#000000;">LEDUC</tspan></text>
    <text
       xml:space="preserve"
       style="font-style:normal;font-variant:normal;font-weight:bold;font-stretch:normal;font-size:4.58214px;line-height:0.405898px;font-family:Garamond;-inkscape-font-specification:'Garamond, Bold';font-variant-ligatures:normal;font-variant-caps:normal;font-variant-numeric:normal;font-variant-east-asian:normal;letter-spacing:0px;word-spacing:0px;writing-mode:lr-tb;fill:#ffffff;stroke-width:0.025;stroke:#000000;stroke-miterlimit:4;stroke-dasharray:none"
       x="90.464409"
       y="174.17575"
       id="text913"
       inkscape:export-filename="C:\Users\Matt's PC\Desktop\Leduc Website\logos\PNGs\leduc-logo-22.png"
       inkscape:export-xdpi="350"
       inkscape:export-ydpi="350"><tspan
         sodipodi:role="line"
         id="tspan911"
         x="90.464409"
         y="174.17575"
         style="font-style:normal;font-variant:normal;font-weight:bold;font-stretch:normal;font-size:4.58214px;font-family:Garamond;-inkscape-font-specification:'Garamond Bold';font-variant-ligatures:normal;font-variant-caps:normal;font-variant-numeric:normal;font-variant-east-asian:normal;fill:#ffffff;stroke-width:0.025;stroke:#000000;stroke-miterlimit:4;stroke-dasharray:none">Art &amp; Antiques</tspan></text>
    <path
       id="path915"
       style="fill:#ffffff;fill-opacity:1;stroke:#1a1a1a;stroke-width:0.593692px;stroke-linecap:butt;stroke-linejoin:miter;stroke-opacity:1"
       d="M 150.1582 12.449219 C 145.3364 25.24239 133.73114 31.767128 144.68359 42.583984 C 147.86328 44.591254 150.80214 45.772179 154.88086 47.380859 C 149.3249 45.824526 132.77591 47.074418 137.71289 37.861328 C 135.10586 39.541971 133.23421 41.685968 134.41406 44.382812 C 128.4388 46.414913 125.03236 45.427005 128.04297 39.435547 C 126.97555 39.390193 125.82452 40.433077 125.34375 41.234375 C 123.26186 45.020819 125.74118 47.805543 128.41602 49.931641 C 128.41602 49.931641 126.22887 49.783827 125.19531 50.082031 C 123.73311 50.503751 122.21436 51.177436 121.2207 52.330078 C 120.31164 53.384566 119.7207 56.228516 119.7207 56.228516 L 119.34766 59.226562 C 121.69244 57.821637 124.69378 57.17841 127.21484 57.685547 C 130.44037 58.346095 133.38858 59.578786 136.92188 58.144531 C 102.58625 85.172197 121.80866 93.315625 133.0957 114.38086 C 133.38578 115.64844 133.41559 116.99118 132.875 118.17383 C 132.20971 119.62898 131.01078 120.95088 129.49805 120.42969 C 126.95342 118.90767 125.70318 115.87566 122.30078 118.87891 C 122.26412 118.91292 122.2338 118.95357 122.19922 118.99023 C 124.38265 115.96839 126.52241 111.45806 126.39453 108.78125 C 125.78974 96.122403 111.25692 100.76957 119.18555 109.31055 C 120.58306 102.66769 123.17721 107.85311 122.97852 110.95508 C 122.77994 114.05701 122.16992 119.02344 122.16992 119.02344 C 118.87932 123.6232 120.85985 127.25918 125.29883 129.22461 C 128.96216 130.63407 132.42514 130.74226 135.38867 128.58789 C 128.38119 136.41605 128.99065 140.6586 133.62109 144.17969 C 133.68618 144.30933 138.44269 146.69775 135.71875 150.81445 C 135.04023 151.83999 133.65823 152.21455 132.23242 151.86328 C 133.4081 152.96191 135.27658 153.59267 136.97656 153.05469 C 139.12389 152.42676 142.07326 145.39948 140.89258 143.35547 C 136.356 135.50161 143.55986 124.57355 141.79102 113.18164 C 140.14899 106.64654 133.74404 101.4047 129.24219 99.130859 C 135.23664 97.417033 137.57655 95.898051 139.96289 92.585938 C 140.68879 91.326032 141.11952 89.892157 141.38672 88.462891 C 141.22809 81.640692 136.54413 67.624985 145.14258 74.677734 C 144.52621 67.22084 134.68363 69.050578 137.11328 77.443359 C 137.76479 79.698074 138.57531 81.650266 138.98828 83.589844 C 132.81429 80.246209 128.95908 83.783553 128.03711 86.033203 C 124.25245 84.069172 126.55962 79.206295 128.26758 76.84375 C 131.95079 73.101753 132.17659 77.733731 136.0625 76.394531 C 132.32626 72.889057 133.12971 69.549604 138.01172 66.123047 C 140.34551 64.382159 142.78861 63.22203 144.30664 65.175781 C 146.25839 67.687844 149.42881 69.155114 152.33008 67.810547 C 147.67132 63.452714 150.99931 59.64311 154.42969 63.125 C 155.80841 65.663104 157.99873 67.406219 160.87695 65.974609 C 151.22215 59.882805 168.91105 51.021895 178.12695 43.458984 C 175.77669 39.274065 174.42049 35.010785 173.41211 30.470703 C 164.77636 40.087446 156.04483 40.016894 151.43164 34.863281 C 151.12905 31.938834 155.12318 32.701595 156.30469 33.738281 C 158.35744 30.987163 157.43639 28.665556 154.65625 27.966797 C 159.38841 25.411572 161.25887 19.069089 159.00391 14.998047 C 160.02745 20.42953 150.89212 28.58305 153.00586 19.570312 C 153.65827 16.481494 152.50173 13.635801 150.1582 12.449219 z M 226.85742 12.449219 C 224.51389 13.635801 223.35535 16.481531 224.00781 19.570312 C 226.12155 28.58305 216.98818 20.42953 218.01172 14.998047 C 215.75674 19.069089 217.62726 25.411609 222.35938 27.966797 C 219.57915 28.665594 218.65812 30.987125 220.71094 33.738281 C 221.89238 32.701595 225.88657 31.938872 225.58398 34.863281 C 220.97081 40.016894 212.23917 40.087446 203.60352 30.470703 C 202.59491 35.010785 201.23893 39.274065 198.88867 43.458984 C 208.10456 51.021932 225.79148 59.882805 216.13672 65.974609 C 219.0149 67.406181 221.20533 65.662991 222.58398 63.125 C 226.0144 59.64311 229.34235 63.452827 224.68359 67.810547 C 227.58491 69.155114 230.7572 67.687844 232.70898 65.175781 C 234.22692 63.221992 236.66798 64.382159 239.00195 66.123047 C 243.88389 69.549604 244.68746 72.889057 240.95117 76.394531 C 244.83709 77.733769 245.06482 73.101715 248.74805 76.84375 C 250.4559 79.206295 252.76142 84.069172 248.97656 86.033203 C 248.05455 83.783666 244.20139 80.246209 238.02734 83.589844 C 238.44033 81.650266 239.2488 79.698037 239.90039 77.443359 C 242.32995 69.05054 232.48746 67.222831 231.87109 74.679688 C 240.46952 67.626938 235.78558 81.64073 235.62695 88.462891 C 235.89417 89.892157 236.32489 91.326032 237.05078 92.585938 C 239.43714 95.898051 241.77696 97.417033 247.77148 99.130859 C 243.26961 101.4047 236.86471 106.64654 235.22266 113.18164 C 233.4538 124.57355 240.65766 135.50161 236.12109 143.35547 C 234.94041 145.39948 237.88977 152.42676 240.03711 153.05469 C 241.7371 153.59267 243.60555 152.96188 244.78125 151.86328 C 243.3555 152.2144 241.97155 151.8412 241.29297 150.81445 C 238.56906 146.69775 243.32742 144.30936 243.39258 144.17969 C 248.02276 140.65857 248.6345 136.41605 241.62695 128.58789 C 244.59056 130.74222 248.05349 130.63407 251.7168 129.22461 C 256.15581 127.25914 258.13436 123.62324 254.84375 119.02344 C 254.84375 119.02344 254.23569 114.05701 254.03711 110.95508 C 253.83831 107.85311 256.4326 102.66772 257.83008 109.31055 C 265.75873 100.76961 251.22582 96.122403 250.62109 108.78125 C 250.49335 111.4581 252.63297 115.97034 254.81641 118.99219 C 254.78239 118.95439 254.75151 118.91368 254.71484 118.87891 C 251.31244 115.87569 250.06218 118.90843 247.51758 120.42969 C 246.00478 120.95088 244.8059 119.62898 244.14062 118.17383 C 243.60008 116.99118 243.62988 115.6484 243.91992 114.38086 C 255.20691 93.315625 274.42928 85.172197 240.09375 58.144531 C 243.62704 59.578824 246.57327 58.346133 249.79883 57.685547 C 252.31985 57.17841 255.32311 57.821599 257.66797 59.226562 L 257.29297 56.228516 C 257.29297 56.228516 256.70401 53.384529 255.79492 52.330078 C 254.80128 51.177398 253.2825 50.503751 251.82031 50.082031 C 250.78669 49.784204 248.59766 49.931641 248.59766 49.931641 C 251.27254 47.805543 253.75184 45.020781 251.66992 41.234375 C 251.18909 40.433077 250.04007 39.392183 248.97266 39.4375 C 251.9832 45.428996 248.57684 46.414913 242.60156 44.382812 C 243.78142 41.686006 241.90779 39.541933 239.30078 37.861328 C 244.23779 47.074493 227.69063 45.824526 222.13477 47.380859 C 226.21348 45.772179 229.15044 44.591254 232.33008 42.583984 C 243.28251 31.767128 231.67919 25.242428 226.85742 12.449219 z M 149.13086 21.802734 C 149.44796 21.821632 149.72593 21.937888 149.93555 22.189453 C 150.46441 22.824111 149.59714 24.010841 148.88867 24.435547 C 146.94956 25.597752 145.64669 26.386988 145.02148 26.947266 C 144.38824 27.514799 142.87021 29.603427 143.17578 33.402344 C 143.18712 33.557304 142.33575 31.961607 142.37305 31.171875 C 142.51194 28.230987 143.86948 25.060305 146.13477 23.179688 C 146.89066 22.55221 148.17972 21.743736 149.13086 21.802734 z M 227.88477 21.802734 C 228.83592 21.743774 230.12503 22.55221 230.88086 23.179688 C 233.14619 25.060305 234.50364 28.230987 234.64258 31.171875 C 234.68037 31.961607 233.82862 33.55738 233.83984 33.402344 C 234.14523 29.603427 232.62744 27.514799 231.99414 26.947266 C 231.36893 26.386988 230.06604 25.597752 228.12695 24.435547 C 227.41852 24.010841 226.54929 22.824111 227.07812 22.189453 C 227.28751 21.937737 227.56766 21.822237 227.88477 21.802734 z M 133.09375 64.015625 C 121.60628 79.018762 118.84066 85.340604 121.52344 91.960938 C 113.50424 81.816119 128.32562 66.429534 133.09375 64.015625 z M 243.91992 64.015625 C 248.68802 66.429534 263.50948 81.816119 255.49023 91.960938 C 258.17302 85.340604 255.40757 79.018762 243.91992 64.015625 z M 130.42773 102.67969 C 138.49939 102.74583 143.09149 115.69399 140.66797 121.67773 C 139.77784 110.51384 135.62314 105.13585 130.42773 102.67969 z M 246.58789 102.67969 C 241.39248 105.13585 237.23777 110.51384 236.34766 121.67773 C 233.92415 115.69399 238.51622 102.74587 246.58789 102.67969 z M 133.53711 133.33789 C 132.5761 136.18739 133.33683 138.07519 133.71289 138.63086 C 134.08427 139.17938 134.93154 140.03418 136.19336 141.29492 C 136.6543 141.75557 137.09272 142.83024 136.56641 143.21484 C 135.73195 143.82459 134.45507 142.56183 133.84375 141.72852 C 132.46957 139.85542 132.0376 137.17035 132.49414 134.89258 C 132.61667 134.28094 133.57528 133.22144 133.53711 133.33789 z M 243.47852 133.33984 C 243.44888 133.23339 244.3975 134.28342 244.51953 134.89258 C 244.9761 137.17035 244.54227 139.85542 243.16992 141.72852 C 242.55858 142.56183 241.28366 143.82459 240.44922 143.21484 C 239.92288 142.83024 240.35959 141.75557 240.82031 141.29492 C 242.08218 140.03418 242.9294 139.17938 243.30078 138.63086 C 243.67676 138.07532 244.43837 136.18828 243.47852 133.33984 z "
       transform="matrix(0.26458333,0,0,0.26458333,55.124074,120.78101)" />
    <path
       id="path925"
       style="fill:#000000;fill-opacity:1;fill-rule:evenodd;stroke:#ffffff;stroke-width:0.858818;stroke-linejoin:miter;stroke-miterlimit:4;stroke-dasharray:none;stroke-opacity:1;paint-order:markers stroke fill"
       d="m 95.123363,140.4312 h 19.426967 c 0,0 -1.23384,5.22219 -1.23013,9.56465 0.003,3.50433 1.24566,5.93387 1.23013,8.47233 -0.0148,2.38421 -6.46505,2.41124 -8.89292,2.40491 -0.57429,-0.001 -0.81354,0.51794 -0.81354,0.51794 0,0 -0.23097,-0.52269 -0.84609,-0.5285 -2.47935,-0.0234 -8.853673,-0.018 -8.874417,-2.39435 -0.01728,-1.97576 1.083988,-4.81951 1.087283,-8.44394 0.0042,-4.45903 -1.087283,-9.59305 -1.087283,-9.59305 z"
       sodipodi:nodetypes="ccssscssscc"
       inkscape:export-filename="C:\Users\Matt's PC\Desktop\Leduc Website\logos\PNGs\leduc-logo-22.png"
       inkscape:export-xdpi="350"
       inkscape:export-ydpi="350" />
    <path
       sodipodi:type="star"
       style="fill:#ffffff;fill-opacity:1;fill-rule:evenodd;stroke:none;stroke-width:0.125;stroke-dashoffset:3.77697;paint-order:fill markers stroke"
       id="path927"
       sodipodi:sides="5"
       sodipodi:cx="-379.11008"
       sodipodi:cy="-3.0238092"
       sodipodi:r1="57.397648"
       sodipodi:r2="21.811106"
       sodipodi:arg1="0.78539816"
       sodipodi:arg2="1.4137167"
       inkscape:flatsided="false"
       inkscape:rounded="0"
       inkscape:randomized="0"
       inkscape:transform-center-x="0.24748026"
       inkscape:transform-center-y="-0.69267654"
       transform="matrix(0.03760855,0.0059725,-0.0059725,0.03760855,112.46049,146.44278)"
       inkscape:export-filename="C:\Users\Matt's PC\Desktop\Leduc Website\logos\PNGs\leduc-logo-22.png"
       inkscape:export-xdpi="350"
       inkscape:export-ydpi="350"
       d="m -338.52381,37.562457 -37.17426,-19.043691 -29.46999,29.599104 6.62415,-41.2396445 -37.25715,-18.8810045 41.2682,-6.443811 6.44381,-41.268207 18.88101,37.25715 41.23964,-6.624149 -29.5991,29.46999559 z" />
    <path
       style="fill:#ffffff;stroke-width:0.0499515"
       d="m 101.73955,159.42459 c 0.13425,-0.0889 0.41477,-0.38421 0.66566,-0.70072 0.37509,-0.4732 0.6828,-0.76521 0.96767,-0.91826 0.0413,-0.0221 -0.008,0.0474 -0.10941,0.15438 -0.1014,0.10707 -0.20818,0.25795 -0.23728,0.33529 -0.065,0.17259 -0.07,0.66718 -0.007,0.70602 0.0252,0.0156 0.1878,-0.13143 0.36131,-0.32668 0.37329,-0.42002 0.62388,-0.56721 0.90211,-0.52988 0.27083,0.0363 0.48239,0.21667 0.70915,0.60454 0.24741,0.42315 0.30517,0.38062 0.30209,-0.2225 -0.002,-0.40599 0.006,-0.44705 0.0922,-0.44705 0.16117,0 0.36847,0.1558 0.51434,0.38657 0.13496,0.21353 0.14129,0.21712 0.18455,0.1046 0.0246,-0.0641 0.0327,-0.26825 0.0181,-0.45371 -0.0151,-0.19173 -0.007,-0.33717 0.0193,-0.33717 0.0253,0 0.13122,0.0341 0.23535,0.0757 0.20645,0.0826 0.2854,0.18185 0.41566,0.52259 l 0.0855,0.22369 0.0618,-0.20639 c 0.0833,-0.27816 0.028,-0.52909 -0.16507,-0.74904 -0.24969,-0.28437 -0.62869,-0.39215 -0.94976,-0.27007 -0.09,0.0341 -0.15846,0.0234 -0.2655,-0.0419 -0.13078,-0.0797 -0.31599,-0.33573 -0.26505,-0.36638 0.0115,-0.007 0.28857,-0.14518 0.61574,-0.30727 2.24418,-1.11183 3.09708,-2.38694 3.09398,-4.62556 -10e-4,-0.70729 -0.049,-1.09778 -0.24971,-2.02888 -0.0836,-0.38802 -0.0834,-0.43892 0.004,-1.18461 0.13634,-1.16016 0.0484,-1.76045 -0.39603,-2.70357 -0.28589,-0.60671 -0.33778,-0.93521 -0.17929,-1.13532 0.0584,-0.0737 0.15628,-0.1437 0.21755,-0.15555 0.0924,-0.0178 0.0875,-0.0226 -0.0287,-0.0283 l -0.1402,-0.006 0.0903,-0.15545 c 0.0496,-0.0855 0.18014,-0.23399 0.29005,-0.33 l 0.1998,-0.17455 -0.17483,0.0349 c -0.45781,0.0912 -0.94526,0.43088 -1.13018,0.78751 -0.0847,0.16338 -0.0884,0.16392 -0.28756,0.042 -0.35388,-0.21662 -0.77979,-0.31459 -1.47948,-0.34032 -0.57454,-0.0211 -0.74078,-0.009 -1.12316,0.0824 -0.24683,0.059 -0.57225,0.17687 -0.72315,0.26202 l -0.27434,0.15484 -0.10105,-0.14095 c -0.32595,-0.45453 -0.75349,-0.76024 -1.20519,-0.86173 l -0.20062,-0.0451 0.29593,0.2878 c 0.29496,0.28684 0.32767,0.3959 0.11922,0.39746 -0.0865,4e-4 -0.0676,0.0245 0.0904,0.11366 0.18056,0.10198 0.20137,0.13436 0.21611,0.33636 0.0227,0.31205 -0.0605,0.55309 -0.37041,1.07313 -0.47381,0.79495 -0.59883,1.71772 -0.363,2.67932 0.13226,0.53927 0.113,0.59932 -0.35922,1.11921 -1.43524,1.58013 -1.903687,4.26729 -1.2754,7.31613 0.1656,0.80364 0.46337,1.89065 0.55737,2.03478 0.11297,0.17321 0.4393,0.15489 0.73548,-0.0413 z m -0.61101,-1.26572 c -0.0453,-0.0547 -0.0401,-0.13692 0.0231,-0.36215 0.24134,-0.86034 0.53373,-1.41521 1.49462,-2.83635 0.78051,-1.15436 1.09299,-1.72472 1.294,-2.36181 0.15913,-0.50436 0.2533,-1.23712 0.20914,-1.62739 l -0.033,-0.29154 0.1383,0.0161 c 0.11633,0.0135 0.14525,0.0478 0.18206,0.21589 0.0644,0.29412 0.004,1.09428 -0.11592,1.52354 -0.14964,0.53761 -0.43042,1.08952 -0.92973,1.82752 -0.24004,0.35481 -0.60264,0.89237 -0.80577,1.19458 -0.49274,0.73311 -0.93005,1.63317 -1.0679,2.19789 -0.0603,0.24727 -0.13113,0.47767 -0.15728,0.51201 -0.0628,0.0825 -0.15908,0.0791 -0.23161,-0.008 z m 3.15875,-0.60017 c -0.16509,-0.143 -0.14849,-0.1661 0.24698,-0.34358 l 0.28722,-0.12891 v 0.20561 c 0,0.37149 -0.26221,0.5025 -0.5342,0.26688 z m 0.16504,-7.61975 c -0.4422,-0.11309 -0.97786,-0.3794 -1.27537,-0.63406 -0.91635,-0.78437 -0.94104,-2.2818 -0.0523,-3.17257 0.49889,-0.50005 1.02291,-0.55391 1.56277,-0.16062 0.13231,0.0964 0.34585,0.32123 0.47454,0.49963 l 0.23397,0.32437 0.12488,-0.16453 c 0.49707,-0.65492 0.90954,-0.9153 1.39439,-0.88022 0.37359,0.0271 0.6392,0.19489 0.87843,0.5552 0.31016,0.46713 0.3951,0.7788 0.3975,1.45848 0.002,0.56893 -0.006,0.61595 -0.15241,0.92412 -0.28685,0.60278 -0.8611,1.03744 -1.6524,1.25076 -0.48715,0.13133 -1.41939,0.13106 -1.934,-4e-4 z m 1.06545,-0.42002 c 0.29191,-0.5751 0.2203,-1.12989 -0.14585,-1.12989 -0.3804,0 -0.46869,0.52905 -0.18678,1.11933 l 0.16385,0.34309 z m -1.14586,-1.1151 c 0.0413,-0.015 0.13675,-0.0849 0.2123,-0.15526 0.35724,-0.33286 -0.0327,-0.80862 -0.66275,-0.80862 -0.28028,0 -0.46347,0.076 -0.64073,0.26574 -0.14483,0.15506 -0.11584,0.27229 0.11814,0.47774 0.24279,0.21317 0.70513,0.31789 0.97304,0.2204 z m 2.78069,-0.0696 c 0.17707,-0.0513 0.40023,-0.28859 0.44715,-0.47554 0.0589,-0.23486 -0.27134,-0.46868 -0.66203,-0.46868 -0.41988,0 -0.84433,0.29071 -0.87958,0.60245 -0.0103,0.0914 0.0391,0.14091 0.25512,0.25502 0.28023,0.14806 0.53622,0.17451 0.83934,0.0867 z"
       id="path929"
       inkscape:export-filename="C:\Users\Matt's PC\Desktop\Leduc Website\logos\PNGs\leduc-logo-22.png"
       inkscape:export-xdpi="350"
       inkscape:export-ydpi="350" />
    <path
       style="fill:#ffffff;fill-opacity:1;fill-rule:evenodd;stroke:#000000;stroke-width:0.2;stroke-linejoin:miter;stroke-miterlimit:4;stroke-dasharray:none;stroke-opacity:1;paint-order:markers stroke fill"
       d="m 101.848,133.48302 c 0.24779,0.34127 -0.0295,1.24362 -0.0892,1.64439 -0.89202,0.39405 -2.929961,0.51413 -3.404874,0.96222 -0.59919,0.95032 -0.579889,1.8967 -0.45218,2.90866 2.296924,0.45718 4.068954,2.07774 5.722404,3.40824 0.38163,-0.43661 0.70577,-0.92692 1.13577,-1.31832 l 1.97764,1.54258 c 0.63016,-0.50028 1.23219,-1.04084 1.94941,-1.41649 2.76052,0.50929 3.82255,-0.29918 3.24267,-2.7714 -0.22634,-0.4153 -0.40159,-0.87774 -0.65965,-1.26374 l -2.65297,-1.60291 c -0.1504,-0.21613 -0.47898,-0.86011 -0.55024,-1.04704 -2.07294,0.63341 -4.14588,-0.57595 -6.21882,-1.04619 z"
       id="path931"
       inkscape:export-filename="C:\Users\Matt's PC\Desktop\Leduc Website\logos\PNGs\leduc-logo-22.png"
       inkscape:export-xdpi="350"
       inkscape:export-ydpi="350"
       sodipodi:nodetypes="ccccccccccccc" />
    <path
       id="path933"
       style="fill:#ffffff;fill-opacity:1;fill-rule:evenodd;stroke:#ffffff;stroke-width:0.394979;stroke-linejoin:miter;stroke-miterlimit:4;stroke-dasharray:none;stroke-opacity:1;paint-order:markers stroke fill"
       d="m 102.00337,135.05355 c -0.96797,1.3308 -2.784975,0.65782 -3.338059,1.27544 -0.232526,0.72415 -0.533433,1.43694 -0.457138,2.17805 1.924977,0.53541 3.796547,2.01359 5.384067,3.19344 0.3187,-0.36461 0.84723,-1.06147 1.10717,-1.39825 l 2.07169,1.671 c 0.54773,-0.43145 1.92926,-1.61199 2.0386,-1.60511 2.62502,1.58719 3.74452,-0.67246 2.21173,-2.93593 -1.15144,-0.6291 -2.32968,-1.3191 -2.9162,-2.05328 -1.83749,3.3062 -4.13852,0.80294 -6.10186,-0.32536 z"
       sodipodi:nodetypes="cccccccccc"
       inkscape:export-filename="C:\Users\Matt's PC\Desktop\Leduc Website\logos\PNGs\leduc-logo-22.png"
       inkscape:export-xdpi="350"
       inkscape:export-ydpi="350" />
    <path
       id="path935"
       style="color:#000000;font-style:normal;font-variant:normal;font-weight:normal;font-stretch:normal;font-size:medium;line-height:normal;font-family:sans-serif;font-variant-ligatures:normal;font-variant-position:normal;font-variant-caps:normal;font-variant-numeric:normal;font-variant-alternates:normal;font-variant-east-asian:normal;font-feature-settings:normal;font-variation-settings:normal;text-indent:0;text-align:start;text-decoration:none;text-decoration-line:none;text-decoration-style:solid;text-decoration-color:#000000;letter-spacing:normal;word-spacing:normal;text-transform:none;writing-mode:lr-tb;direction:ltr;text-orientation:mixed;dominant-baseline:auto;baseline-shift:baseline;text-anchor:start;white-space:normal;shape-padding:0;shape-margin:0;inline-size:0;clip-rule:nonzero;display:inline;overflow:visible;visibility:visible;isolation:auto;mix-blend-mode:normal;color-interpolation:sRGB;color-interpolation-filters:linearRGB;solid-color:#000000;solid-opacity:1;vector-effect:none;fill:#ffffff;fill-opacity:1;fill-rule:evenodd;stroke:none;stroke-width:0.259443;stroke-linecap:butt;stroke-linejoin:miter;stroke-miterlimit:4;stroke-dasharray:none;stroke-dashoffset:0.999323;stroke-opacity:1;paint-order:markers stroke fill;color-rendering:auto;image-rendering:auto;shape-rendering:auto;text-rendering:auto;enable-background:accumulate;stop-color:#000000"
       d="m 99.813887,124.61198 c -0.575782,0.77921 -1.060989,1.65396 -1.439818,2.59184 l 0.743683,0.43627 c 0.345529,-0.85546 0.790009,-1.65377 1.314938,-2.3642 z m -0.237472,0.8753 0.261083,0.28011 c -0.221436,0.29969 -0.40893,0.63653 -0.554687,0.9974 l -0.313547,-0.18408 c 0.159816,-0.39565 0.364272,-0.76472 0.607151,-1.09343 z" />
    <path
       id="path937"
       style="color:#000000;font-style:normal;font-variant:normal;font-weight:normal;font-stretch:normal;font-size:medium;line-height:normal;font-family:sans-serif;font-variant-ligatures:normal;font-variant-position:normal;font-variant-caps:normal;font-variant-numeric:normal;font-variant-alternates:normal;font-variant-east-asian:normal;font-feature-settings:normal;font-variation-settings:normal;text-indent:0;text-align:start;text-decoration:none;text-decoration-line:none;text-decoration-style:solid;text-decoration-color:#000000;letter-spacing:normal;word-spacing:normal;text-transform:none;writing-mode:lr-tb;direction:ltr;text-orientation:mixed;dominant-baseline:auto;baseline-shift:baseline;text-anchor:start;white-space:normal;shape-padding:0;shape-margin:0;inline-size:0;clip-rule:nonzero;display:inline;overflow:visible;visibility:visible;isolation:auto;mix-blend-mode:normal;color-interpolation:sRGB;color-interpolation-filters:linearRGB;solid-color:#000000;solid-opacity:1;vector-effect:none;fill:#ffffff;fill-opacity:1;fill-rule:evenodd;stroke:none;stroke-width:0.259443;stroke-linecap:butt;stroke-linejoin:miter;stroke-miterlimit:4;stroke-dasharray:none;stroke-dashoffset:0.999323;stroke-opacity:1;paint-order:markers stroke fill;color-rendering:auto;image-rendering:auto;shape-rendering:auto;text-rendering:auto;enable-background:accumulate;stop-color:#000000"
       d="m 102.06978,122.65982 c -0.76762,0.48336 -1.47865,1.09389 -2.108331,1.80919 l 0.567881,0.72681 c 0.57468,-0.65283 1.22506,-1.21166 1.92456,-1.65211 z m -0.46664,0.686 0.1764,0.40559 c -0.32095,0.2021 -0.61928,0.45855 -0.88297,0.7581 l -0.26077,-0.33349 c 0.28892,-0.32822 0.61511,-0.60842 0.96734,-0.8302 z" />
    <path
       id="path939"
       style="color:#000000;font-style:normal;font-variant:normal;font-weight:normal;font-stretch:normal;font-size:medium;line-height:normal;font-family:sans-serif;font-variant-ligatures:normal;font-variant-position:normal;font-variant-caps:normal;font-variant-numeric:normal;font-variant-alternates:normal;font-variant-east-asian:normal;font-feature-settings:normal;font-variation-settings:normal;text-indent:0;text-align:start;text-decoration:none;text-decoration-line:none;text-decoration-style:solid;text-decoration-color:#000000;letter-spacing:normal;word-spacing:normal;text-transform:none;writing-mode:lr-tb;direction:ltr;text-orientation:mixed;dominant-baseline:auto;baseline-shift:baseline;text-anchor:start;white-space:normal;shape-padding:0;shape-margin:0;inline-size:0;clip-rule:nonzero;display:inline;overflow:visible;visibility:visible;isolation:auto;mix-blend-mode:normal;color-interpolation:sRGB;color-interpolation-filters:linearRGB;solid-color:#000000;solid-opacity:1;vector-effect:none;fill:#ffffff;fill-opacity:1;fill-rule:evenodd;stroke:none;stroke-width:0.259443;stroke-linecap:butt;stroke-linejoin:miter;stroke-miterlimit:4;stroke-dasharray:none;stroke-dashoffset:0.999323;stroke-opacity:1;paint-order:markers stroke fill;color-rendering:auto;image-rendering:auto;shape-rendering:auto;text-rendering:auto;enable-background:accumulate;stop-color:#000000"
       d="m 107.80569,122.07475 -0.27121,0.94249 c 0.74577,0.31088 1.45669,0.74759 2.10404,1.29193 l 0.4734,-0.81732 c -0.71003,-0.59703 -1.48764,-1.07585 -2.30623,-1.4171 z m 0.50132,0.55009 c 0.4154,0.17317 0.80982,0.41616 1.17012,0.71914 l -0.24022,0.41479 c -0.32849,-0.27623 -0.68921,-0.49787 -1.06765,-0.65563 z" />
    <path
       id="path941"
       style="color:#000000;font-style:normal;font-variant:normal;font-weight:normal;font-stretch:normal;font-size:medium;line-height:normal;font-family:sans-serif;font-variant-ligatures:normal;font-variant-position:normal;font-variant-caps:normal;font-variant-numeric:normal;font-variant-alternates:normal;font-variant-east-asian:normal;font-feature-settings:normal;font-variation-settings:normal;text-indent:0;text-align:start;text-decoration:none;text-decoration-line:none;text-decoration-style:solid;text-decoration-color:#000000;letter-spacing:normal;word-spacing:normal;text-transform:none;writing-mode:lr-tb;direction:ltr;text-orientation:mixed;dominant-baseline:auto;baseline-shift:baseline;text-anchor:start;white-space:normal;shape-padding:0;shape-margin:0;inline-size:0;clip-rule:nonzero;display:inline;overflow:visible;visibility:visible;isolation:auto;mix-blend-mode:normal;color-interpolation:sRGB;color-interpolation-filters:linearRGB;solid-color:#000000;solid-opacity:1;vector-effect:none;fill:#ffffff;fill-opacity:1;fill-rule:evenodd;stroke:none;stroke-width:0.259443;stroke-linecap:butt;stroke-linejoin:miter;stroke-miterlimit:4;stroke-dasharray:none;stroke-dashoffset:0.999323;stroke-opacity:1;paint-order:markers stroke fill;color-rendering:auto;image-rendering:auto;shape-rendering:auto;text-rendering:auto;enable-background:accumulate;stop-color:#000000"
       d="m 104.79109,121.74371 c -0.85946,0.12241 -1.70619,0.38722 -2.50655,0.78786 l 0.31754,0.92132 c 0.72845,-0.36465 1.5009,-0.60681 2.28534,-0.71852 z m -0.55102,0.39087 0.0522,0.53751 c -0.42577,0.0606 -0.845,0.19203 -1.2404,0.38994 l -0.17211,-0.50008 c 0.43441,-0.21746 0.89387,-0.36093 1.36035,-0.42737 z" />
    <path
       id="path943"
       style="color:#000000;font-style:normal;font-variant:normal;font-weight:normal;font-stretch:normal;font-size:medium;line-height:normal;font-family:sans-serif;font-variant-ligatures:normal;font-variant-position:normal;font-variant-caps:normal;font-variant-numeric:normal;font-variant-alternates:normal;font-variant-east-asian:normal;font-feature-settings:normal;font-variation-settings:normal;text-indent:0;text-align:start;text-decoration:none;text-decoration-line:none;text-decoration-style:solid;text-decoration-color:#000000;letter-spacing:normal;word-spacing:normal;text-transform:none;writing-mode:lr-tb;direction:ltr;text-orientation:mixed;dominant-baseline:auto;baseline-shift:baseline;text-anchor:start;white-space:normal;shape-padding:0;shape-margin:0;inline-size:0;clip-rule:nonzero;display:inline;overflow:visible;visibility:visible;isolation:auto;mix-blend-mode:normal;color-interpolation:sRGB;color-interpolation-filters:linearRGB;solid-color:#000000;solid-opacity:1;vector-effect:none;fill:#ffffff;fill-opacity:1;fill-rule:evenodd;stroke:none;stroke-width:0.259443;stroke-linecap:butt;stroke-linejoin:miter;stroke-miterlimit:4;stroke-dasharray:none;stroke-dashoffset:0.999323;stroke-opacity:1;paint-order:markers stroke fill;color-rendering:auto;image-rendering:auto;shape-rendering:auto;text-rendering:auto;enable-background:accumulate;stop-color:#000000"
       d="m 105.35223,121.68542 v 3.2e-4 c -0.10806,-6.6e-4 -0.21627,3.1e-4 -0.32428,0.004 l 0.0233,0.99741 c 0.79062,-0.0267 1.5843,0.0735 2.34946,0.30404 l 0.20034,-0.96673 c -0.73594,-0.22174 -1.49269,-0.33397 -2.24913,-0.33901 z m 0.44517,0.3022 c 0.40659,0.003 0.81352,0.0631 1.20908,0.18224 l -0.10768,0.51941 c -0.41128,-0.1239 -0.83782,-0.17759 -1.26279,-0.16322 l -0.0126,-0.53628 c 0.0581,-0.002 0.11589,-0.002 0.17397,-0.002 z" />
    <path
       sodipodi:type="star"
       style="fill:#ffffff;fill-opacity:1;fill-rule:evenodd;stroke:none;stroke-width:0.125;stroke-dashoffset:3.77697;paint-order:fill markers stroke"
       id="path955"
       sodipodi:sides="5"
       sodipodi:cx="-379.11008"
       sodipodi:cy="-3.0238092"
       sodipodi:r1="57.397648"
       sodipodi:r2="21.811106"
       sodipodi:arg1="0.78539816"
       sodipodi:arg2="1.4137167"
       inkscape:flatsided="false"
       inkscape:rounded="0"
       inkscape:randomized="0"
       inkscape:transform-center-x="0.24748026"
       inkscape:transform-center-y="-0.69267654"
       transform="matrix(0.03760855,0.0059725,-0.0059725,0.03760855,125.68898,146.44278)"
       inkscape:export-filename="C:\Users\Matt's PC\Desktop\Leduc Website\logos\PNGs\leduc-logo-22.png"
       inkscape:export-xdpi="350"
       inkscape:export-ydpi="350"
       d="m -338.52381,37.562457 -37.17426,-19.043691 -29.46999,29.599104 6.62415,-41.2396445 -37.25715,-18.8810045 41.2682,-6.443811 6.44381,-41.268207 18.88101,37.25715 41.23964,-6.624149 -29.5991,29.46999559 z" />
    <path
       id="path957"
       style="fill:#333333;fill-opacity:1;stroke:none;stroke-width:0.157081px;stroke-linecap:butt;stroke-linejoin:miter;stroke-opacity:1"
       d="m 101.87182,134.41765 c -0.12149,0.25529 -0.19234,0.45447 -0.11298,0.70976 1.16348,0.73007 2.31824,1.47715 3.47557,2.21788 -0.56096,1.37456 0.36227,2.68133 1.64044,2.32187 1.28553,-0.36154 1.42946,-1.96285 0.50255,-2.82532 l 1.12057,-1.44341 c -0.071,-0.23993 -0.11951,-0.37474 -0.23492,-0.52813 l -1.36272,1.78101 c -0.40298,-0.0922 -0.74188,-0.0536 -1.13056,0.0792 -1.29246,-0.77806 -2.9328,-1.31478 -3.89795,-2.31282 z m 4.69191,2.75736 c 0.005,-5e-5 0.01,-5e-5 0.0151,0 0.48214,-1.1e-4 0.87305,0.44191 0.87316,0.98728 4e-5,0.54549 -0.39093,0.9877 -0.87316,0.98759 -0.48209,-9e-5 -0.87288,-0.44223 -0.87283,-0.98759 3e-5,-0.53866 0.38169,-0.97792 0.8578,-0.98728 z"
       sodipodi:nodetypes="cccsccccccccssccc"
       inkscape:export-filename="C:\Users\Matt's PC\Desktop\Leduc Website\logos\PNGs\leduc-logo-22.png"
       inkscape:export-xdpi="350"
       inkscape:export-ydpi="350" />
    <path
       id="path971"
       style="fill:#ffffff;stroke:none;stroke-width:0.103896;stroke-miterlimit:4;stroke-dasharray:none;stroke-opacity:1"
       d="m 104.74238,124.07355 c -1.87101,0.0344 -4.08735,1.54791 -3.83992,4.47221 0,0.87555 0.17586,1.70748 0.5765,2.72561 0.38663,0.98256 0.57879,1.24159 1.18976,1.60456 1.13856,0.6764 2.41476,1.12279 3.88654,1.35912 v -3.1e-4 c 0.39483,0.0634 0.64573,0.0502 0.84093,-0.0445 0.19921,-0.0966 0.27839,-0.21744 0.44086,-0.67497 l 0.12856,-0.36263 -0.24911,-0.0389 c -1.18133,-0.1849 -2.46529,-0.59705 -3.44139,-1.10447 -0.8508,-0.4423 -1.42352,-0.86888 -2.29455,-1.70887 -0.30098,-0.29026 -0.60255,-0.57742 -0.67005,-0.63815 -0.0675,-0.0607 -0.16118,-0.19275 -0.20832,-0.2933 -0.0742,-0.15813 -0.0857,-0.22468 -0.0847,-0.49241 0.002,-0.2704 0.0122,-0.33042 0.088,-0.47615 0.12011,-0.22223 0.32495,-0.42778 0.58477,-0.62403 0.25378,0.0863 1.0988,0.64324 1.28333,0.76669 0.50097,0.33515 0.95203,0.49736 1.56161,0.56206 0.53964,0.0573 1.76874,-0.0197 2.87349,-0.18009 0.51381,-0.0746 1.51368,-0.24583 1.53583,-0.26293 0.0126,-0.01 -0.0528,-0.45605 -0.0795,-0.54304 -0.0113,-0.0367 -0.05,-0.0571 -0.10921,-0.0571 -0.0506,0 -0.12639,-0.0277 -0.16843,-0.0617 -0.0748,-0.0605 -0.0752,-0.0643 -0.0218,-0.17641 0.03,-0.063 0.085,-0.12422 0.1218,-0.13591 0.0851,-0.027 0.0852,-0.0252 -0.0292,-0.34822 -0.66818,-1.58946 -2.24299,-3.27718 -3.91598,-3.26618 z m 2.9965,2.29885 c 0.004,0.004 0.007,0.008 0.0107,0.0116 0.004,0.004 0.006,0.008 0.01,0.0126 -0.005,-0.006 -0.009,-0.0104 -0.0141,-0.0172 -0.002,-0.002 -0.004,-0.005 -0.006,-0.007 z m -0.4335,1.33151 c 0.48108,-1.5e-4 0.56942,0.0302 0.56942,0.19635 0,0.15837 -0.0849,0.18452 -0.66791,0.20586 -0.28672,0.0105 -0.75609,0.0418 -1.04282,0.0693 -0.2867,0.0276 -0.57985,0.0585 -0.65163,0.0687 -0.1407,0.0199 -0.17917,0.002 -0.17917,-0.0859 0,-0.0395 0.0676,-0.0811 0.23041,-0.14143 0.56524,-0.20952 1.14011,-0.31277 1.7417,-0.31293 z m -5.53312,0.52555 c -0.0654,0.005 -0.12771,0.0246 -0.1936,0.0565 -0.2142,0.1037 -0.30266,0.27757 -0.29943,0.59058 0.003,0.32091 0.0905,0.50582 0.33686,0.71362 0.10029,0.0846 0.38028,0.35188 0.62219,0.59396 0.72093,0.72141 1.35722,1.18708 2.22461,1.62788 0.92116,0.46814 1.91235,0.79366 3.10449,1.01949 0.2318,0.0439 0.43044,0.0809 0.44149,0.0825 0.011,10e-4 0.11885,-0.28699 0.23961,-0.6409 0.4118,-1.20689 0.88193,-2.27219 1.35084,-3.06094 0.10866,-0.18281 0.19757,-0.34055 0.19757,-0.35036 0,-0.0481 -0.42085,-0.006 -0.95446,0.0942 -1.25135,0.23596 -2.17193,0.35651 -3.15665,0.41388 -0.29604,0.0174 -0.56354,0.0227 -0.80994,0.0147 -0.92243,-0.0299 -1.54685,-0.24822 -2.24701,-0.7446 -0.43635,-0.30936 -0.66057,-0.42558 -0.85657,-0.4105 z m 0.0288,0.38656 c 0.26641,0 0.39765,0.33681 0.19821,0.50837 -0.11818,0.10166 -0.25201,0.0993 -0.37767,-0.006 -0.20028,-0.16853 -0.081,-0.50193 0.17946,-0.50193 z m 4.0206,1.43551 c 0.1146,-0.008 0.22858,0.0748 0.22858,0.19697 0,0.11731 -0.31073,1.19317 -0.36264,1.25573 -0.0498,0.0601 -0.24037,0.0557 -0.30313,-0.007 -0.0281,-0.0281 -0.0512,-0.0908 -0.0512,-0.13898 0,-0.16232 0.31574,-1.22084 0.37767,-1.26616 0.0341,-0.025 0.0726,-0.0377 0.11074,-0.0405 z m 1.10418,0.002 c 0.0416,-0.007 0.0866,0.003 0.1356,0.0294 0.15252,0.0816 0.14821,0.1233 -0.10339,0.95538 -0.16539,0.54701 -0.26021,0.80932 -0.31078,0.86027 -0.0811,0.0817 -0.12661,0.0887 -0.22243,0.0344 -0.0836,-0.0474 -0.11297,-0.0918 -0.11352,-0.17211 -0.002,-0.13538 0.43491,-1.56603 0.49917,-1.63801 0.0354,-0.0397 0.0737,-0.0627 0.11535,-0.0693 z m -2.17091,0.0368 c 0.0787,0.008 0.15569,0.0551 0.18653,0.13622 0.023,0.0605 0.006,0.15772 -0.0687,0.39946 -0.0545,0.17577 -0.11598,0.33632 -0.13683,0.35681 -0.10511,0.10316 -0.29565,0.0662 -0.34637,-0.0672 -0.0227,-0.0598 -0.01,-0.15493 0.0506,-0.36754 0.0446,-0.15774 0.0979,-0.31999 0.11843,-0.3608 0.0373,-0.0741 0.11767,-0.10502 0.19635,-0.0969 z m 3.20207,0.12365 c 0.061,4.7e-4 0.12258,0.0202 0.15708,0.0583 0.0297,0.0328 0.0537,0.0968 0.0537,0.14266 0,0.15082 -0.51111,1.76208 -0.57341,1.80766 -0.12458,0.0911 -0.33854,-3.1e-4 -0.3387,-0.14481 -1.5e-4,-0.10673 0.49726,-1.751 0.54702,-1.80827 0.0326,-0.0375 0.0933,-0.056 0.15432,-0.0555 z m -5.74911,2.70689 c -0.1232,0.18538 -0.24717,0.37026 -0.35988,0.56236 0.24472,0.25373 0.46774,0.35926 0.76485,0.54886 0.66265,0.37349 1.74419,0.77247 2.83451,1.04557 0.49531,0.12407 1.55856,0.34766 1.8408,0.38719 0.0448,0.006 0.1075,-0.004 0.13929,-0.0221 0.10044,-0.0582 0.38852,-0.43754 0.51634,-0.67987 l 0.12303,-0.23347 -0.13376,-0.13653 -0.13347,-0.13652 -0.13346,0.0917 c -0.31906,0.21949 -0.66388,0.24786 -1.43336,0.11751 -1.39243,-0.23588 -2.70513,-0.71547 -3.74111,-1.36649 z"
       sodipodi:nodetypes="ccssccsccssssssccssssssssscccscscsssssssssscsssscsssscssssssssssssssssssscssssssssssssssssscccsssccccsssc" />
  </g>
</svg>
