<?xml version="1.0" encoding="UTF-8" standalone="no"?>
<svg
   xmlns:dc="http://purl.org/dc/elements/1.1/"
   xmlns:cc="http://creativecommons.org/ns#"
   xmlns:rdf="http://www.w3.org/1999/02/22-rdf-syntax-ns#"
   xmlns:svg="http://www.w3.org/2000/svg"
   xmlns="http://www.w3.org/2000/svg"
   xmlns:sodipodi="http://sodipodi.sourceforge.net/DTD/sodipodi-0.dtd"
   xmlns:inkscape="http://www.inkscape.org/namespaces/inkscape"
   width="99.751854mm"
   height="55.437977mm"
   viewBox="0 0 99.751857 55.437977"
   version="1.1"
   id="svg8"
   inkscape:version="1.0.2-2 (e86c870879, 2021-01-15)"
   sodipodi:docname="leduc-art-antiques-logo-3.svg">
  <defs
     id="defs2">
    <rect
       x="-309.94049"
       y="-240.39285"
       width="645.58331"
       height="360.58929"
       id="rect842" />
    <rect
       x="-364.36905"
       y="-117.17262"
       width="409.7262"
       height="222.25"
       id="rect850" />
    <rect
       x="-591.15479"
       y="-95.25"
       width="541.2619"
       height="124.73214"
       id="rect844" />
    <rect
       x="-341.69049"
       y="-144.3869"
       width="554.86908"
       height="182.18452"
       id="rect838" />
    <rect
       x="-424.84525"
       y="-94.494049"
       width="343.20239"
       height="135.31548"
       id="rect832" />
  </defs>
  <sodipodi:namedview
     id="base"
     pagecolor="#4f4f4f"
     bordercolor="#666666"
     borderopacity="1.0"
     inkscape:pageopacity="0"
     inkscape:pageshadow="2"
     inkscape:zoom="2.8284272"
     inkscape:cx="231.35497"
     inkscape:cy="79.901715"
     inkscape:document-units="mm"
     inkscape:current-layer="layer1"
     inkscape:document-rotation="0"
     showgrid="false"
     showborder="true"
     inkscape:window-width="3840"
     inkscape:window-height="2066"
     inkscape:window-x="-11"
     inkscape:window-y="-11"
     inkscape:window-maximized="1"
     fit-margin-top="0"
     fit-margin-left="0"
     fit-margin-right="0"
     fit-margin-bottom="0" />
  <metadata
     id="metadata5">
    <rdf:RDF>
      <cc:Work
         rdf:about="">
        <dc:format>image/svg+xml</dc:format>
        <dc:type
           rdf:resource="http://purl.org/dc/dcmitype/StillImage" />
        <dc:title></dc:title>
      </cc:Work>
    </rdf:RDF>
  </metadata>
  <g
     inkscape:label="Layer 1"
     inkscape:groupmode="layer"
     id="layer1"
     transform="translate(-55.124074,-120.78101)">
    <text
       xml:space="preserve"
       id="text842"
       style="font-weight:900;font-size:10.5833px;line-height:15.875px;font-family:dubai;-inkscape-font-specification:'dubai Heavy';letter-spacing:11.9062px;word-spacing:0px;writing-mode:lr-tb;white-space:pre;shape-inside:url(#rect844);" />
    <g
       id="g1058"
       transform="matrix(0.55674671,0,0,0.55674671,-4.5921037,68.262332)">
      <text
         xml:space="preserve"
         style="font-style:normal;font-variant:normal;font-weight:bold;font-stretch:normal;font-size:15.4361px;line-height:1.36737px;font-family:Garamond;-inkscape-font-specification:'Garamond, Bold';font-variant-ligatures:normal;font-variant-caps:normal;font-variant-numeric:normal;font-variant-east-asian:normal;letter-spacing:2.1707px;word-spacing:0px;writing-mode:lr-tb;fill:#000000;fill-opacity:1;stroke:#ffffff;stroke-width:0.281;stroke-miterlimit:4;stroke-dasharray:none;stroke-opacity:1"
         x="165.26039"
         y="179.46367"
         id="text1803"
         inkscape:export-filename="C:\Users\Matt's PC\Desktop\Leduc Website\logos\PNGs\leduc-logo-22.png"
         inkscape:export-xdpi="350"
         inkscape:export-ydpi="350"><tspan
           sodipodi:role="line"
           id="tspan1801"
           x="165.26039"
           y="179.46367"
           style="font-style:normal;font-variant:normal;font-weight:bold;font-stretch:normal;font-size:15.4361px;font-family:Garamond;-inkscape-font-specification:'Garamond, Bold';font-variant-ligatures:normal;font-variant-caps:normal;font-variant-numeric:normal;font-variant-east-asian:normal;fill:#000000;fill-opacity:1;stroke:#ffffff;stroke-width:0.281;stroke-miterlimit:4;stroke-dasharray:none;stroke-opacity:1">LEDUC</tspan></text>
      <text
         xml:space="preserve"
         style="font-style:normal;font-variant:normal;font-weight:bold;font-stretch:normal;font-size:7.71804px;line-height:0.683684px;font-family:Garamond;-inkscape-font-specification:'Garamond, Bold';font-variant-ligatures:normal;font-variant-caps:normal;font-variant-numeric:normal;font-variant-east-asian:normal;letter-spacing:0px;word-spacing:0px;writing-mode:lr-tb;fill:#000000;fill-opacity:1;stroke:#ffffff;stroke-width:0.181;stroke-miterlimit:4;stroke-dasharray:none;stroke-opacity:1"
         x="172.36043"
         y="187.32103"
         id="text1807"
         inkscape:export-filename="C:\Users\Matt's PC\Desktop\Leduc Website\logos\PNGs\leduc-logo-22.png"
         inkscape:export-xdpi="350"
         inkscape:export-ydpi="350"><tspan
           sodipodi:role="line"
           id="tspan1805"
           x="172.36043"
           y="187.32103"
           style="font-style:normal;font-variant:normal;font-weight:bold;font-stretch:normal;font-size:7.71804px;font-family:Garamond;-inkscape-font-specification:'Garamond Bold';font-variant-ligatures:normal;font-variant-caps:normal;font-variant-numeric:normal;font-variant-east-asian:normal;fill:#000000;fill-opacity:1;stroke:#ffffff;stroke-width:0.181;stroke-miterlimit:4;stroke-dasharray:none;stroke-opacity:1">Art &amp; Antiques</tspan></text>
      <g
         id="g1819"
         transform="translate(-88.81754,48.683698)"
         inkscape:export-filename="C:\Users\Matt's PC\Desktop\Leduc Website\logos\PNGs\leduc-logo-5.png"
         inkscape:export-xdpi="350"
         inkscape:export-ydpi="350"
         style="stroke:#ffffff;stroke-opacity:1">
        <path
           id="path1809"
           style="fill:#000000;fill-opacity:1;stroke:#ffffff;stroke-width:0.264583px;stroke-linecap:butt;stroke-linejoin:miter;stroke-opacity:1"
           d="m 268.57048,54.248705 c -2.14887,5.70139 -7.32014,8.60958 -2.43911,13.43019 1.41705,0.89456 2.7262,1.42093 4.5439,2.13785 -2.47603,-0.69359 -9.8509,-0.13672 -7.65069,-4.24263 -1.16184,0.74898 -1.99602,1.70443 -1.47021,2.90628 -2.66293,0.90563 -4.18131,0.46562 -2.83962,-2.20452 -0.47569,-0.0202 -0.98822,0.44439 -1.2025,0.8015 -0.9278,1.68744 0.17736,2.92823 1.36943,3.87574 0,0 -0.97549,-0.0661 -1.43611,0.0667 -0.65164,0.18793 -1.3281,0.48832 -1.77093,1.00201 -0.40513,0.46993 -0.66818,1.73736 -0.66818,1.73736 l -0.16693,1.33635 c 1.04498,-0.62611 2.38324,-0.91279 3.50676,-0.68678 1.43749,0.29439 2.75069,0.84383 4.32533,0.20464 -15.30189,12.04507 -6.73495,15.67416 -1.70481,25.06203 0.12927,0.564905 0.14221,1.163275 -0.0987,1.690335 -0.29649,0.64851 -0.83064,1.23789 -1.50482,1.00562 -1.13403,-0.6783 -1.69128,-2.02984 -3.20757,-0.69143 -0.0164,0.0155 -0.0296,0.0337 -0.045,0.0501 0.97306,-1.3467 1.92664,-3.357165 1.86965,-4.550105 -0.26952,-5.64151 -6.7462,-3.57018 -3.21273,0.23616 0.62279,-2.96043 1.77882,-0.65038 1.69027,0.73203 -0.0885,1.3824 -0.3601,3.596385 -0.3601,3.596385 -1.46647,2.04993 -0.58405,3.67006 1.39422,4.54597 1.63258,0.62814 3.17562,0.67692 4.49635,-0.28318 -3.12295,3.48867 -2.85097,5.3787 -0.78739,6.9479 0.029,0.0578 2.14925,1.12228 0.93533,2.95692 -0.30241,0.45705 -0.91848,0.62422 -1.5539,0.46767 0.52397,0.48961 1.3561,0.77057 2.11371,0.53082 0.95696,-0.27985 2.27166,-3.41187 1.74548,-4.3228 -2.02176,-3.50013 1.18878,-8.36983 0.40048,-13.446725 -0.73178,-2.91241 -3.58637,-5.24835 -5.59265,-6.26171 2.67149,-0.76378 3.71421,-1.44101 4.77771,-2.91708 0.3235,-0.56148 0.51551,-1.20064 0.6346,-1.83761 -0.0707,-3.04035 -2.15769,-9.28589 1.67426,-6.14278 -0.27469,-3.32321 -4.66137,-2.50834 -3.5786,1.23197 0.29037,1.00482 0.65079,1.87499 0.83483,2.73937 -2.75149,-1.49011 -4.4689,0.0863 -4.87979,1.08882 -1.68666,-0.87528 -0.65882,-3.04247 0.10232,-4.09536 1.64144,-1.66765 1.74243,0.39633 3.47421,-0.2005 -1.66509,-1.56224 -1.30699,-3.04992 0.86868,-4.57699 1.04016,-0.77584 2.12851,-1.29312 2.80502,-0.42241 0.86981,1.11952 2.28301,1.77318 3.57599,1.17395 -2.07621,-1.9421 -0.59291,-3.63957 0.93586,-2.08784 0.61442,1.13112 1.59049,1.90765 2.87319,1.26965 -4.30273,-2.71487 3.58025,-6.663692 7.68739,-10.034162 -1.04742,-1.86504 -1.65204,-3.765187 -2.10153,-5.788501 -3.84855,4.28577 -7.73952,4.254583 -9.79541,1.957843 -0.13485,-1.30329 1.6449,-0.96327 2.17144,-0.50126 0.91483,-1.22607 0.50418,-2.26103 -0.73483,-2.57245 2.10892,-1.13874 2.9428,-3.96521 1.93786,-5.77949 0.45614,2.42058 -3.61472,6.05417 -2.67271,2.03758 0.29076,-1.37653 -0.22525,-2.64463 -1.26966,-3.17345 z"
           sodipodi:nodetypes="ccccccccsscccccscccsczccccsccscccccccccccscccccccccccc" />
        <path
           id="path1811"
           style="fill:#ffffff;fill-rule:evenodd;stroke:#ffffff;stroke-width:0.0466071;stroke-dashoffset:3.77697;stroke-opacity:1;paint-order:fill markers stroke"
           d="m 268.47175,58.58943 c 0.23569,0.282818 -0.15087,0.811759 -0.4666,1.001025 -0.86416,0.517952 -1.4454,0.869979 -1.72403,1.119679 -0.28222,0.252921 -0.95844,1.183859 -0.82226,2.876871 0.005,0.06914 -0.3746,-0.642581 -0.35798,-0.994517 0.0619,-1.310643 0.66667,-2.723457 1.67623,-3.561571 0.44913,-0.372867 1.32094,-0.889928 1.69464,-0.441487 z"
           sodipodi:nodetypes="asssaaa" />
        <path
           id="path1813"
           style="fill:#ffffff;fill-rule:evenodd;stroke:#ffffff;stroke-width:0.0242013;stroke-dashoffset:3.77697;stroke-opacity:1;paint-order:fill markers stroke"
           d="m 260.96636,77.229412 c -5.11949,6.686245 -6.3523,9.504057 -5.1567,12.454466 -3.57382,-4.52111 3.03174,-11.378686 5.1567,-12.454466 z"
           sodipodi:nodetypes="ccc" />
        <path
           id="path1815"
           style="fill:#ffffff;fill-rule:evenodd;stroke:#ffffff;stroke-width:0.0367745;stroke-dashoffset:3.77697;stroke-opacity:1;paint-order:fill markers stroke"
           d="m 262.51339,112.52557 c 0.23455,-0.17139 0.0398,-0.65025 -0.1656,-0.85555 -0.56236,-0.56186 -0.93991,-0.94256 -1.10541,-1.18701 -0.16763,-0.24763 -0.50709,-1.08964 -0.0788,-2.35953 0.017,-0.0519 -0.40971,0.42019 -0.46434,0.69276 -0.20345,1.0151 -0.0109,2.21231 0.60151,3.04707 0.27243,0.37137 0.84083,0.93401 1.2127,0.66226 z"
           sodipodi:nodetypes="asssaaa" />
        <path
           id="path1817"
           style="fill:#ffffff;fill-rule:evenodd;stroke:#ffffff;stroke-width:0.0197376;stroke-dashoffset:3.77697;stroke-opacity:1;paint-order:fill markers stroke"
           d="m 264.34101,102.92723 c -0.39669,-4.975265 -2.24788,-7.371783 -4.56325,-8.466404 3.59721,0.02953 5.6433,5.799704 4.56325,8.466404 z"
           sodipodi:nodetypes="ccc" />
      </g>
      <path
         id="path1835"
         style="fill:#ffffff;fill-opacity:1;fill-rule:evenodd;stroke:#000000;stroke-width:1.44657;stroke-linejoin:miter;stroke-miterlimit:4;stroke-dasharray:none;stroke-opacity:1;paint-order:markers stroke fill"
         d="m 180.20784,130.48261 h 32.72225 c 0,0 -2.07824,8.79612 -2.072,16.11045 0.005,5.90259 2.09816,9.99484 2.072,14.27056 -0.025,4.01589 -10.88955,4.06142 -14.97898,4.05076 -0.96733,-0.002 -1.37031,0.8724 -1.37031,0.8724 0,0 -0.38905,-0.8804 -1.42513,-0.89018 -4.17616,-0.0395 -14.91289,-0.0303 -14.94783,-4.03298 -0.0291,-3.32792 1.82584,-8.11786 1.83139,-14.22274 0.007,-7.51067 -1.83139,-16.15828 -1.83139,-16.15828 z"
         sodipodi:nodetypes="ccssscssscc"
         inkscape:export-filename="C:\Users\Matt's PC\Desktop\Leduc Website\logos\PNGs\leduc-logo-22.png"
         inkscape:export-xdpi="350"
         inkscape:export-ydpi="350" />
      <path
         sodipodi:type="star"
         style="fill:#000000;fill-opacity:1;fill-rule:evenodd;stroke:none;stroke-width:0.125;stroke-dashoffset:3.77697;paint-order:fill markers stroke"
         id="path1837"
         sodipodi:sides="5"
         sodipodi:cx="-379.11008"
         sodipodi:cy="-3.0238092"
         sodipodi:r1="57.397648"
         sodipodi:r2="21.811106"
         sodipodi:arg1="0.78539816"
         sodipodi:arg2="1.4137167"
         inkscape:flatsided="false"
         inkscape:rounded="0"
         inkscape:randomized="0"
         inkscape:transform-center-x="0.24748026"
         inkscape:transform-center-y="-0.69267654"
         transform="matrix(0.06334682,0.01005991,-0.01005991,0.06334682,209.41002,140.60836)"
         inkscape:export-filename="C:\Users\Matt's PC\Desktop\Leduc Website\logos\PNGs\leduc-logo-22.png"
         inkscape:export-xdpi="350"
         inkscape:export-ydpi="350"
         d="m -338.52381,37.562457 -37.17426,-19.043691 -29.46999,29.599104 6.62415,-41.2396445 -37.25715,-18.8810045 41.2682,-6.443811 6.44381,-41.268207 18.88101,37.25715 41.23964,-6.624149 -29.5991,29.46999559 z" />
      <path
         style="fill:#000000;stroke-width:0.0841369"
         d="m 191.35197,162.47457 c 0.22613,-0.14977 0.69863,-0.64716 1.12121,-1.18027 0.63179,-0.79705 1.1501,-1.28891 1.62993,-1.5467 0.0695,-0.0373 -0.0136,0.0798 -0.1843,0.26004 -0.17079,0.18034 -0.35064,0.43448 -0.39966,0.56474 -0.10948,0.29072 -0.11784,1.12378 -0.0121,1.1892 0.0424,0.0262 0.31632,-0.22137 0.60858,-0.55024 0.62876,-0.70747 1.05085,-0.95539 1.5195,-0.89252 0.45617,0.0612 0.81251,0.36496 1.19447,1.01828 0.41673,0.71273 0.51401,0.64109 0.50883,-0.37478 -0.004,-0.68384 0.0109,-0.753 0.15529,-0.753 0.27147,0 0.62065,0.26243 0.86634,0.65113 0.22733,0.35967 0.238,0.36571 0.31086,0.17618 0.0414,-0.10791 0.0551,-0.45183 0.0304,-0.76421 -0.0255,-0.32294 -0.0121,-0.56793 0.0325,-0.56793 0.0426,0 0.22102,0.0574 0.39641,0.1276 0.34774,0.13915 0.48072,0.3063 0.70013,0.88023 l 0.14406,0.37678 0.10415,-0.34763 c 0.14038,-0.46853 0.0472,-0.89119 -0.27805,-1.26166 -0.42056,-0.47899 -1.05894,-0.66053 -1.59975,-0.4549 -0.15155,0.0575 -0.2669,0.0395 -0.4472,-0.0705 -0.22027,-0.13422 -0.53224,-0.56549 -0.44644,-0.61711 0.0194,-0.0121 0.48607,-0.24454 1.03714,-0.51756 3.78003,-1.87275 5.21664,-4.0205 5.21142,-7.79118 -0.002,-1.19133 -0.0826,-1.84906 -0.42061,-3.41738 -0.14084,-0.65357 -0.14055,-0.7393 0.007,-1.99533 0.22965,-1.95414 0.0815,-2.96526 -0.66705,-4.55381 -0.48155,-1.02193 -0.56895,-1.57525 -0.302,-1.91231 0.0983,-0.12417 0.26323,-0.24205 0.36643,-0.262 0.15563,-0.03 0.14735,-0.0381 -0.0484,-0.0477 l -0.23615,-0.0109 0.15201,-0.26184 c 0.0836,-0.14401 0.30343,-0.39413 0.48855,-0.55584 l 0.33655,-0.29401 -0.29449,0.0587 c -0.77112,0.15365 -1.59217,0.72576 -1.90364,1.32646 -0.14271,0.27519 -0.14894,0.27611 -0.48435,0.0707 -0.59608,-0.36488 -1.31346,-0.52989 -2.49201,-0.57323 -0.96774,-0.0355 -1.24774,-0.0151 -1.89181,0.13881 -0.41576,0.0993 -0.96389,0.29791 -1.21805,0.44134 l -0.4621,0.2608 -0.17021,-0.2374 c -0.54901,-0.7656 -1.26915,-1.28053 -2.02998,-1.45148 l -0.33793,-0.0759 0.49846,0.48476 c 0.49683,0.48314 0.55193,0.66684 0.20081,0.66948 -0.14571,6.7e-4 -0.11384,0.0412 0.15221,0.19144 0.30412,0.17177 0.33917,0.22632 0.364,0.56655 0.0383,0.52561 -0.10185,0.93162 -0.62391,1.80756 -0.79807,1.33899 -1.00864,2.89328 -0.61142,4.51297 0.22278,0.90834 0.19033,1.00947 -0.60506,1.88516 -2.41748,2.66153 -3.20652,7.18772 -2.14825,12.3231 0.27894,1.35363 0.78048,3.18456 0.93882,3.42733 0.19028,0.29175 0.73994,0.26088 1.23882,-0.0695 z m -1.02918,-2.13194 c -0.0763,-0.0921 -0.0676,-0.23064 0.0389,-0.61 0.40651,-1.44914 0.899,-2.38375 2.51749,-4.77747 1.31468,-1.94438 1.84101,-2.90507 2.17959,-3.97817 0.26803,-0.84953 0.42664,-2.08378 0.35227,-2.74113 l -0.0556,-0.49107 0.23294,0.0271 c 0.19594,0.0228 0.24465,0.0805 0.30666,0.36365 0.10851,0.49541 0.006,1.84317 -0.19526,2.5662 -0.25205,0.90554 -0.72498,1.83516 -1.566,3.07823 -0.40433,0.59763 -1.01508,1.50308 -1.35722,2.01212 -0.82996,1.23482 -1.56655,2.75086 -1.79874,3.70206 -0.10161,0.41649 -0.22087,0.80457 -0.26492,0.86242 -0.10585,0.13905 -0.26795,0.13326 -0.39012,-0.0139 z m 5.32052,-1.01091 c -0.27808,-0.24087 -0.25012,-0.27978 0.41601,-0.57873 l 0.48378,-0.21712 v 0.34632 c 0,0.62573 -0.44165,0.84639 -0.89979,0.44953 z m 0.27798,-12.8345 c -0.74482,-0.19049 -1.64707,-0.63906 -2.14819,-1.068 -1.54348,-1.32117 -1.58507,-3.84341 -0.0881,-5.34379 0.84033,-0.84228 1.72297,-0.93299 2.63229,-0.27055 0.22286,0.16237 0.58255,0.54107 0.7993,0.84156 l 0.3941,0.54637 0.21034,-0.27714 c 0.83725,-1.10312 1.53201,-1.5417 2.34867,-1.48261 0.62927,0.0456 1.07666,0.32827 1.47961,0.93517 0.52243,0.78682 0.66549,1.31178 0.66954,2.45662 0.004,0.95829 -0.01,1.03749 -0.25671,1.55656 -0.48317,1.0153 -1.45042,1.74744 -2.78326,2.10675 -0.82055,0.22121 -2.39078,0.22075 -3.25759,-6.8e-4 z m 1.79463,-0.70747 c 0.49168,-0.96869 0.37106,-1.90316 -0.24568,-1.90316 -0.64073,0 -0.78944,0.89112 -0.3146,1.88536 l 0.27599,0.57789 z m -1.93007,-1.87825 c 0.0695,-0.0253 0.23034,-0.14293 0.3576,-0.26152 0.60173,-0.56066 -0.055,-1.36202 -1.11632,-1.36202 -0.47209,0 -0.78066,0.12798 -1.07922,0.44761 -0.24396,0.26118 -0.19512,0.45864 0.19898,0.80469 0.40896,0.35906 1.1877,0.53545 1.63896,0.37124 z m 4.68372,-0.11723 c 0.29826,-0.0864 0.67415,-0.48609 0.75317,-0.80099 0.0993,-0.3956 -0.45703,-0.78943 -1.1151,-0.78943 -0.70724,0 -1.42217,0.48966 -1.48155,1.01474 -0.0173,0.15403 0.0659,0.23736 0.42973,0.42955 0.472,0.24939 0.90319,0.29395 1.41375,0.14613 z"
         id="path1839"
         inkscape:export-filename="C:\Users\Matt's PC\Desktop\Leduc Website\logos\PNGs\leduc-logo-22.png"
         inkscape:export-xdpi="350"
         inkscape:export-ydpi="350" />
      <path
         style="fill:#000000;fill-opacity:1;fill-rule:evenodd;stroke:none;stroke-width:4.40232;stroke-linejoin:miter;stroke-miterlimit:4;stroke-dasharray:none;stroke-opacity:1;paint-order:markers stroke fill"
         d="m 191.6366,119.33077 c 0.41737,0.57482 -0.15168,1.54324 -0.25215,2.21828 -1.50249,0.66374 -4.93514,0.86599 -5.73507,1.62075 -1.00926,1.60069 -0.97675,3.19474 -0.76164,4.89926 3.86887,0.77007 6.85363,3.49969 9.63866,5.74074 0.64281,-0.7354 1.18878,-1.56127 1.91307,-2.22054 l 3.33108,2.59829 c 1.06142,-0.84266 2.07546,-1.75317 3.28352,-2.3859 4.64975,0.85783 6.4386,-0.50394 5.46187,-4.66807 -0.38123,-0.69952 -0.67643,-1.47844 -1.1111,-2.12862 l -4.46859,-2.69989 c -0.25332,-0.36404 -0.59437,-0.87424 -0.7144,-1.1891 z"
         id="path1841"
         inkscape:export-filename="C:\Users\Matt's PC\Desktop\Leduc Website\logos\PNGs\leduc-logo-22.png"
         inkscape:export-xdpi="350"
         inkscape:export-ydpi="350"
         sodipodi:nodetypes="ccccccccccccc" />
      <path
         id="path1843"
         style="fill:#000000;fill-opacity:1;fill-rule:evenodd;stroke:#ffffff;stroke-width:0.665292;stroke-linejoin:miter;stroke-miterlimit:4;stroke-dasharray:none;stroke-opacity:1;paint-order:markers stroke fill"
         d="m 191.79633,121.42465 c -1.63041,2.24157 -4.69093,1.10801 -5.62253,2.14832 -0.39166,1.21973 -0.8985,2.42034 -0.76999,3.66865 3.24238,0.90182 6.3948,3.39163 9.06877,5.37893 0.53681,-0.61414 1.42705,-1.7879 1.8649,-2.35517 l 3.48949,2.81459 c 0.92259,-0.72672 3.24959,-2.71519 3.43376,-2.7036 4.42152,2.67342 6.30717,-1.13267 3.72539,-4.9452 -1.93947,-1.05965 -3.92406,-2.22186 -4.91197,-3.4585 -3.09502,5.56888 -6.97082,1.35246 -10.27782,-0.54802 z"
         sodipodi:nodetypes="cccccccccc"
         inkscape:export-filename="C:\Users\Matt's PC\Desktop\Leduc Website\logos\PNGs\leduc-logo-22.png"
         inkscape:export-xdpi="350"
         inkscape:export-ydpi="350" />
      <g
         id="g1865"
         inkscape:export-filename="C:\Users\Matt's PC\Desktop\Leduc Website\logos\PNGs\leduc-logo-22.png"
         inkscape:export-xdpi="350"
         inkscape:export-ydpi="350"
         transform="translate(690.39037,150.43206)">
        <path
           style="color:#000000;font-style:normal;font-variant:normal;font-weight:normal;font-stretch:normal;font-size:medium;line-height:normal;font-family:sans-serif;font-variant-ligatures:normal;font-variant-position:normal;font-variant-caps:normal;font-variant-numeric:normal;font-variant-alternates:normal;font-variant-east-asian:normal;font-feature-settings:normal;font-variation-settings:normal;text-indent:0;text-align:start;text-decoration:none;text-decoration-line:none;text-decoration-style:solid;text-decoration-color:#000000;letter-spacing:normal;word-spacing:normal;text-transform:none;writing-mode:lr-tb;direction:ltr;text-orientation:mixed;dominant-baseline:auto;baseline-shift:baseline;text-anchor:start;white-space:normal;shape-padding:0;shape-margin:0;inline-size:0;clip-rule:nonzero;display:inline;overflow:visible;visibility:visible;isolation:auto;mix-blend-mode:normal;color-interpolation:sRGB;color-interpolation-filters:linearRGB;solid-color:#000000;solid-opacity:1;vector-effect:none;fill:#000000;fill-opacity:1;fill-rule:evenodd;stroke:none;stroke-width:0.437;stroke-linecap:butt;stroke-linejoin:miter;stroke-miterlimit:4;stroke-dasharray:none;stroke-dashoffset:0.999323;stroke-opacity:1;paint-order:markers stroke fill;color-rendering:auto;image-rendering:auto;shape-rendering:auto;text-rendering:auto;enable-background:accumulate;stop-color:#000000"
           d="m -502.28199,-46.594717 c -0.96981,1.31248 -1.78695,2.78587 -2.42503,4.3656 l 1.25273,0.73443 c 0.58199,-1.4409 1.33022,-2.78512 2.21442,-3.98174 z"
           id="path1845"
           inkscape:export-filename="C:\Users\Matt's PC\Desktop\Leduc Website\logos\PNGs\leduc-logo-3.png"
           inkscape:export-xdpi="350"
           inkscape:export-ydpi="350" />
        <path
           style="color:#000000;font-style:normal;font-variant:normal;font-weight:normal;font-stretch:normal;font-size:medium;line-height:normal;font-family:sans-serif;font-variant-ligatures:normal;font-variant-position:normal;font-variant-caps:normal;font-variant-numeric:normal;font-variant-alternates:normal;font-variant-east-asian:normal;font-feature-settings:normal;font-variation-settings:normal;text-indent:0;text-align:start;text-decoration:none;text-decoration-line:none;text-decoration-style:solid;text-decoration-color:#000000;letter-spacing:normal;word-spacing:normal;text-transform:none;writing-mode:lr-tb;direction:ltr;text-orientation:mixed;dominant-baseline:auto;baseline-shift:baseline;text-anchor:start;white-space:normal;shape-padding:0;shape-margin:0;inline-size:0;clip-rule:nonzero;display:inline;overflow:visible;visibility:visible;isolation:auto;mix-blend-mode:normal;color-interpolation:sRGB;color-interpolation-filters:linearRGB;solid-color:#000000;solid-opacity:1;vector-effect:none;fill:#000000;fill-opacity:1;fill-rule:evenodd;stroke:none;stroke-width:0.437;stroke-linecap:butt;stroke-linejoin:miter;stroke-miterlimit:4;stroke-dasharray:none;stroke-dashoffset:0.999323;stroke-opacity:1;paint-order:markers stroke fill;color-rendering:auto;image-rendering:auto;shape-rendering:auto;text-rendering:auto;enable-background:accumulate;stop-color:#000000"
           d="m -498.48222,-49.883287 c -1.29296,0.81416 -2.49038,1.84282 -3.55099,3.04766 l 0.9563,1.22406 c 0.96796,-1.09961 2.06354,-2.04076 3.24175,-2.78265 z"
           id="path1847"
           inkscape:export-filename="C:\Users\Matt's PC\Desktop\Leduc Website\logos\PNGs\leduc-logo-3.png"
           inkscape:export-xdpi="350"
           inkscape:export-ydpi="350" />
        <path
           style="color:#000000;font-style:normal;font-variant:normal;font-weight:normal;font-stretch:normal;font-size:medium;line-height:normal;font-family:sans-serif;font-variant-ligatures:normal;font-variant-position:normal;font-variant-caps:normal;font-variant-numeric:normal;font-variant-alternates:normal;font-variant-east-asian:normal;font-feature-settings:normal;font-variation-settings:normal;text-indent:0;text-align:start;text-decoration:none;text-decoration-line:none;text-decoration-style:solid;text-decoration-color:#000000;letter-spacing:normal;word-spacing:normal;text-transform:none;writing-mode:lr-tb;direction:ltr;text-orientation:mixed;dominant-baseline:auto;baseline-shift:baseline;text-anchor:start;white-space:normal;shape-padding:0;shape-margin:0;inline-size:0;clip-rule:nonzero;display:inline;overflow:visible;visibility:visible;isolation:auto;mix-blend-mode:normal;color-interpolation:sRGB;color-interpolation-filters:linearRGB;solid-color:#000000;solid-opacity:1;vector-effect:none;fill:#000000;fill-opacity:1;fill-rule:evenodd;stroke:none;stroke-width:0.437;stroke-linecap:butt;stroke-linejoin:miter;stroke-miterlimit:4;stroke-dasharray:none;stroke-dashoffset:0.999323;stroke-opacity:1;paint-order:markers stroke fill;color-rendering:auto;image-rendering:auto;shape-rendering:auto;text-rendering:auto;enable-background:accumulate;stop-color:#000000"
           d="m -488.82077,-50.868727 -0.4567,1.58771 c 1.25614,0.52364 2.45323,1.2591 3.54359,2.17596 l 0.79749,-1.37676 c -1.19594,-1.00563 -2.50558,-1.81212 -3.88438,-2.38691 z"
           id="path1849"
           inkscape:export-filename="C:\Users\Matt's PC\Desktop\Leduc Website\logos\PNGs\leduc-logo-3.png"
           inkscape:export-xdpi="350"
           inkscape:export-ydpi="350" />
        <path
           style="color:#000000;font-style:normal;font-variant:normal;font-weight:normal;font-stretch:normal;font-size:medium;line-height:normal;font-family:sans-serif;font-variant-ligatures:normal;font-variant-position:normal;font-variant-caps:normal;font-variant-numeric:normal;font-variant-alternates:normal;font-variant-east-asian:normal;font-feature-settings:normal;font-variation-settings:normal;text-indent:0;text-align:start;text-decoration:none;text-decoration-line:none;text-decoration-style:solid;text-decoration-color:#000000;letter-spacing:normal;word-spacing:normal;text-transform:none;writing-mode:lr-tb;direction:ltr;text-orientation:mixed;dominant-baseline:auto;baseline-shift:baseline;text-anchor:start;white-space:normal;shape-padding:0;shape-margin:0;inline-size:0;clip-rule:nonzero;display:inline;overflow:visible;visibility:visible;isolation:auto;mix-blend-mode:normal;color-interpolation:sRGB;color-interpolation-filters:linearRGB;solid-color:#000000;solid-opacity:1;vector-effect:none;fill:#000000;fill-opacity:1;fill-rule:evenodd;stroke:none;stroke-width:0.437;stroke-linecap:butt;stroke-linejoin:miter;stroke-miterlimit:4;stroke-dasharray:none;stroke-dashoffset:0.999323;stroke-opacity:1;paint-order:markers stroke fill;color-rendering:auto;image-rendering:auto;shape-rendering:auto;text-rendering:auto;enable-background:accumulate;stop-color:#000000"
           d="m -493.89875,-51.426137 c -1.44764,0.20617 -2.8736,0.65202 -4.22171,1.32685 l 0.53461,1.55206 c 1.227,-0.61421 2.52807,-1.02222 3.84936,-1.21039 z"
           id="path1851"
           inkscape:export-filename="C:\Users\Matt's PC\Desktop\Leduc Website\logos\PNGs\leduc-logo-3.png"
           inkscape:export-xdpi="350"
           inkscape:export-ydpi="350" />
        <path
           style="color:#000000;font-style:normal;font-variant:normal;font-weight:normal;font-stretch:normal;font-size:medium;line-height:normal;font-family:sans-serif;font-variant-ligatures:normal;font-variant-position:normal;font-variant-caps:normal;font-variant-numeric:normal;font-variant-alternates:normal;font-variant-east-asian:normal;font-feature-settings:normal;font-variation-settings:normal;text-indent:0;text-align:start;text-decoration:none;text-decoration-line:none;text-decoration-style:solid;text-decoration-color:#000000;letter-spacing:normal;word-spacing:normal;text-transform:none;writing-mode:lr-tb;direction:ltr;text-orientation:mixed;dominant-baseline:auto;baseline-shift:baseline;text-anchor:start;white-space:normal;shape-padding:0;shape-margin:0;inline-size:0;clip-rule:nonzero;display:inline;overflow:visible;visibility:visible;isolation:auto;mix-blend-mode:normal;color-interpolation:sRGB;color-interpolation-filters:linearRGB;solid-color:#000000;solid-opacity:1;vector-effect:none;fill:#000000;fill-opacity:1;fill-rule:evenodd;stroke:none;stroke-width:0.437;stroke-linecap:butt;stroke-linejoin:miter;stroke-miterlimit:4;stroke-dasharray:none;stroke-dashoffset:0.999323;stroke-opacity:1;paint-order:markers stroke fill;color-rendering:auto;image-rendering:auto;shape-rendering:auto;text-rendering:auto;enable-background:accumulate;stop-color:#000000"
           d="m -492.95303,-51.523947 c -0.18202,-10e-4 -0.36403,9.1e-4 -0.54597,0.007 l 0.0394,1.67981 c 1.33171,-0.045 2.66852,0.12387 3.95735,0.5122 l 0.33737,-1.62811 c -1.23962,-0.3735 -2.51409,-0.56253 -3.78822,-0.57103 z"
           id="path1853"
           inkscape:export-filename="C:\Users\Matt's PC\Desktop\Leduc Website\logos\PNGs\leduc-logo-3.png"
           inkscape:export-xdpi="350"
           inkscape:export-ydpi="350" />
        <path
           style="color:#000000;font-style:normal;font-variant:normal;font-weight:normal;font-stretch:normal;font-size:medium;line-height:normal;font-family:sans-serif;font-variant-ligatures:normal;font-variant-position:normal;font-variant-caps:normal;font-variant-numeric:normal;font-variant-alternates:normal;font-variant-east-asian:normal;font-feature-settings:normal;font-variation-settings:normal;text-indent:0;text-align:start;text-decoration:none;text-decoration-line:none;text-decoration-style:solid;text-decoration-color:#000000;letter-spacing:normal;word-spacing:normal;text-transform:none;writing-mode:lr-tb;direction:ltr;text-orientation:mixed;dominant-baseline:auto;baseline-shift:baseline;text-anchor:start;white-space:normal;shape-padding:0;shape-margin:0;inline-size:0;clip-rule:nonzero;display:inline;overflow:visible;visibility:visible;isolation:auto;mix-blend-mode:normal;color-interpolation:sRGB;color-interpolation-filters:linearRGB;solid-color:#000000;solid-opacity:1;vector-effect:none;fill:#ffffff;fill-opacity:1;fill-rule:evenodd;stroke:none;stroke-width:0.18435;stroke-linecap:butt;stroke-linejoin:miter;stroke-miterlimit:4;stroke-dasharray:none;stroke-dashoffset:0.999323;stroke-opacity:1;paint-order:markers stroke fill;color-rendering:auto;image-rendering:auto;shape-rendering:auto;text-rendering:auto;enable-background:accumulate;stop-color:#000000"
           d="m -502.68175,-45.120437 c -0.40912,0.55368 -0.75383,1.17523 -1.02301,1.84165 l 0.52847,0.30982 c 0.24551,-0.60785 0.56116,-1.17491 0.93416,-1.67971 z"
           id="path1855"
           inkscape:export-filename="C:\Users\Matt's PC\Desktop\Leduc Website\logos\PNGs\leduc-logo-3.png"
           inkscape:export-xdpi="350"
           inkscape:export-ydpi="350" />
        <path
           style="color:#000000;font-style:normal;font-variant:normal;font-weight:normal;font-stretch:normal;font-size:medium;line-height:normal;font-family:sans-serif;font-variant-ligatures:normal;font-variant-position:normal;font-variant-caps:normal;font-variant-numeric:normal;font-variant-alternates:normal;font-variant-east-asian:normal;font-feature-settings:normal;font-variation-settings:normal;text-indent:0;text-align:start;text-decoration:none;text-decoration-line:none;text-decoration-style:solid;text-decoration-color:#000000;letter-spacing:normal;word-spacing:normal;text-transform:none;writing-mode:lr-tb;direction:ltr;text-orientation:mixed;dominant-baseline:auto;baseline-shift:baseline;text-anchor:start;white-space:normal;shape-padding:0;shape-margin:0;inline-size:0;clip-rule:nonzero;display:inline;overflow:visible;visibility:visible;isolation:auto;mix-blend-mode:normal;color-interpolation:sRGB;color-interpolation-filters:linearRGB;solid-color:#000000;solid-opacity:1;vector-effect:none;fill:#ffffff;fill-opacity:1;fill-rule:evenodd;stroke:none;stroke-width:0.200516;stroke-linecap:butt;stroke-linejoin:miter;stroke-miterlimit:4;stroke-dasharray:none;stroke-dashoffset:0.999323;stroke-opacity:1;paint-order:markers stroke fill;color-rendering:auto;image-rendering:auto;shape-rendering:auto;text-rendering:auto;enable-background:accumulate;stop-color:#000000"
           d="m -499.26796,-48.727457 c -0.59327,0.37357 -1.1427,0.84557 -1.62935,1.39841 l 0.43879,0.56165 c 0.44414,-0.50455 0.94685,-0.93639 1.48746,-1.27681 z"
           id="path1857"
           inkscape:export-filename="C:\Users\Matt's PC\Desktop\Leduc Website\logos\PNGs\leduc-logo-3.png"
           inkscape:export-xdpi="350"
           inkscape:export-ydpi="350" />
        <path
           style="color:#000000;font-style:normal;font-variant:normal;font-weight:normal;font-stretch:normal;font-size:medium;line-height:normal;font-family:sans-serif;font-variant-ligatures:normal;font-variant-position:normal;font-variant-caps:normal;font-variant-numeric:normal;font-variant-alternates:normal;font-variant-east-asian:normal;font-feature-settings:normal;font-variation-settings:normal;text-indent:0;text-align:start;text-decoration:none;text-decoration-line:none;text-decoration-style:solid;text-decoration-color:#000000;letter-spacing:normal;word-spacing:normal;text-transform:none;writing-mode:lr-tb;direction:ltr;text-orientation:mixed;dominant-baseline:auto;baseline-shift:baseline;text-anchor:start;white-space:normal;shape-padding:0;shape-margin:0;inline-size:0;clip-rule:nonzero;display:inline;overflow:visible;visibility:visible;isolation:auto;mix-blend-mode:normal;color-interpolation:sRGB;color-interpolation-filters:linearRGB;solid-color:#000000;solid-opacity:1;vector-effect:none;fill:#ffffff;fill-opacity:1;fill-rule:evenodd;stroke:none;stroke-width:0.237187;stroke-linecap:butt;stroke-linejoin:miter;stroke-miterlimit:4;stroke-dasharray:none;stroke-dashoffset:0.999323;stroke-opacity:1;paint-order:markers stroke fill;color-rendering:auto;image-rendering:auto;shape-rendering:auto;text-rendering:auto;enable-background:accumulate;stop-color:#000000"
           d="m -494.82682,-50.767967 c -0.78572,0.11191 -1.55968,0.3539 -2.29138,0.72017 l 0.29017,0.84239 c 0.66596,-0.33336 1.37213,-0.55482 2.08928,-0.65695 z"
           id="path1859"
           inkscape:export-filename="C:\Users\Matt's PC\Desktop\Leduc Website\logos\PNGs\leduc-logo-3.png"
           inkscape:export-xdpi="350"
           inkscape:export-ydpi="350" />
        <path
           style="color:#000000;font-style:normal;font-variant:normal;font-weight:normal;font-stretch:normal;font-size:medium;line-height:normal;font-family:sans-serif;font-variant-ligatures:normal;font-variant-position:normal;font-variant-caps:normal;font-variant-numeric:normal;font-variant-alternates:normal;font-variant-east-asian:normal;font-feature-settings:normal;font-variation-settings:normal;text-indent:0;text-align:start;text-decoration:none;text-decoration-line:none;text-decoration-style:solid;text-decoration-color:#000000;letter-spacing:normal;word-spacing:normal;text-transform:none;writing-mode:lr-tb;direction:ltr;text-orientation:mixed;dominant-baseline:auto;baseline-shift:baseline;text-anchor:start;white-space:normal;shape-padding:0;shape-margin:0;inline-size:0;clip-rule:nonzero;display:inline;overflow:visible;visibility:visible;isolation:auto;mix-blend-mode:normal;color-interpolation:sRGB;color-interpolation-filters:linearRGB;solid-color:#000000;solid-opacity:1;vector-effect:none;fill:#ffffff;fill-opacity:1;fill-rule:evenodd;stroke:none;stroke-width:0.234888;stroke-linecap:butt;stroke-linejoin:miter;stroke-miterlimit:4;stroke-dasharray:none;stroke-dashoffset:0.999323;stroke-opacity:1;paint-order:markers stroke fill;color-rendering:auto;image-rendering:auto;shape-rendering:auto;text-rendering:auto;enable-background:accumulate;stop-color:#000000"
           d="m -492.20328,-51.015477 c -0.0978,-6.5e-4 -0.19567,4.9e-4 -0.29346,0.004 l 0.0212,0.9029 c 0.71579,-0.0242 1.43433,0.0666 2.12708,0.2753 l 0.18133,-0.87511 c -0.66629,-0.20075 -1.35132,-0.30236 -2.03617,-0.30693 z"
           id="path1861"
           inkscape:export-filename="C:\Users\Matt's PC\Desktop\Leduc Website\logos\PNGs\leduc-logo-3.png"
           inkscape:export-xdpi="350"
           inkscape:export-ydpi="350" />
        <path
           style="color:#000000;font-style:normal;font-variant:normal;font-weight:normal;font-stretch:normal;font-size:medium;line-height:normal;font-family:sans-serif;font-variant-ligatures:normal;font-variant-position:normal;font-variant-caps:normal;font-variant-numeric:normal;font-variant-alternates:normal;font-variant-east-asian:normal;font-feature-settings:normal;font-variation-settings:normal;text-indent:0;text-align:start;text-decoration:none;text-decoration-line:none;text-decoration-style:solid;text-decoration-color:#000000;letter-spacing:normal;word-spacing:normal;text-transform:none;writing-mode:lr-tb;direction:ltr;text-orientation:mixed;dominant-baseline:auto;baseline-shift:baseline;text-anchor:start;white-space:normal;shape-padding:0;shape-margin:0;inline-size:0;clip-rule:nonzero;display:inline;overflow:visible;visibility:visible;isolation:auto;mix-blend-mode:normal;color-interpolation:sRGB;color-interpolation-filters:linearRGB;solid-color:#000000;solid-opacity:1;vector-effect:none;fill:#ffffff;fill-opacity:1;fill-rule:evenodd;stroke:none;stroke-width:0.22176;stroke-linecap:butt;stroke-linejoin:miter;stroke-miterlimit:4;stroke-dasharray:none;stroke-dashoffset:0.999323;stroke-opacity:1;paint-order:markers stroke fill;color-rendering:auto;image-rendering:auto;shape-rendering:auto;text-rendering:auto;enable-background:accumulate;stop-color:#000000"
           d="m -487.97663,-49.941847 -0.23176,0.8057 c 0.63744,0.26573 1.24491,0.63894 1.79823,1.10421 l 0.40469,-0.69865 c -0.60689,-0.51032 -1.27148,-0.91958 -1.97116,-1.21126 z"
           id="path1863"
           inkscape:export-filename="C:\Users\Matt's PC\Desktop\Leduc Website\logos\PNGs\leduc-logo-3.png"
           inkscape:export-xdpi="350"
           inkscape:export-ydpi="350" />
      </g>
      <path
         sodipodi:type="star"
         style="fill:#000000;fill-opacity:1;fill-rule:evenodd;stroke:none;stroke-width:0.125;stroke-dashoffset:3.77697;paint-order:fill markers stroke"
         id="path1867"
         sodipodi:sides="5"
         sodipodi:cx="-379.11008"
         sodipodi:cy="-3.0238092"
         sodipodi:r1="57.397648"
         sodipodi:r2="21.811106"
         sodipodi:arg1="0.78539816"
         sodipodi:arg2="1.4137167"
         inkscape:flatsided="false"
         inkscape:rounded="0"
         inkscape:randomized="0"
         inkscape:transform-center-x="0.24748026"
         inkscape:transform-center-y="-0.69267654"
         transform="matrix(0.06334682,0.01005991,-0.01005991,0.06334682,231.69173,140.60836)"
         inkscape:export-filename="C:\Users\Matt's PC\Desktop\Leduc Website\logos\PNGs\leduc-logo-22.png"
         inkscape:export-xdpi="350"
         inkscape:export-ydpi="350"
         d="m -338.52381,37.562457 -37.17426,-19.043691 -29.46999,29.599104 6.62415,-41.2396445 -37.25715,-18.8810045 41.2682,-6.443811 6.44381,-41.268207 18.88101,37.25715 41.23964,-6.624149 -29.5991,29.46999559 z" />
      <path
         id="path1869"
         style="fill:#ffffff;fill-opacity:1;stroke:none;stroke-width:0.264583px;stroke-linecap:butt;stroke-linejoin:miter;stroke-opacity:1"
         d="m 191.74013,120.25906 c -0.20464,0.43 -0.48934,0.85999 -0.35568,1.28999 1.95974,1.22972 3.90478,2.48808 5.85416,3.73575 -0.94487,2.31527 0.6102,4.51635 2.76312,3.91088 2.16531,-0.60896 2.40774,-3.30616 0.84648,-4.75889 l 1.88746,-2.43123 c -0.11953,-0.40414 -0.31943,-0.6312 -0.51382,-0.88957 l -2.1772,2.99989 c -0.67877,-0.15531 -1.24961,-0.0903 -1.90429,0.13333 -2.17698,-1.31054 -4.77456,-2.30909 -6.40023,-3.99015 z m 7.73756,4.73892 c 0.008,-8e-5 0.0169,-8e-5 0.0254,0 0.81209,-1.8e-4 1.47053,0.74434 1.47072,1.66295 7e-5,0.91881 -0.65847,1.66365 -1.47072,1.66346 -0.81203,-1.4e-4 -1.47026,-0.74488 -1.47018,-1.66346 5e-5,-0.90731 0.64291,-1.64718 1.44486,-1.66295 z"
         sodipodi:nodetypes="cccsccccccccssccc"
         inkscape:export-filename="C:\Users\Matt's PC\Desktop\Leduc Website\logos\PNGs\leduc-logo-22.png"
         inkscape:export-xdpi="350"
         inkscape:export-ydpi="350" />
      <g
         id="g1946"
         transform="matrix(-1,0,0,1,482.50502,48.683698)"
         inkscape:export-filename="C:\Users\Matt's PC\Desktop\Leduc Website\logos\PNGs\leduc-logo-5.png"
         inkscape:export-xdpi="350"
         inkscape:export-ydpi="350"
         style="stroke:#ffffff;stroke-opacity:1">
        <path
           id="path1936"
           style="fill:#000000;fill-opacity:1;stroke:#ffffff;stroke-width:0.264583px;stroke-linecap:butt;stroke-linejoin:miter;stroke-opacity:1"
           d="m 268.57048,54.248705 c -2.14887,5.70139 -7.32014,8.60958 -2.43911,13.43019 1.41705,0.89456 2.7262,1.42093 4.5439,2.13785 -2.47603,-0.69359 -9.8509,-0.13672 -7.65069,-4.24263 -1.16184,0.74898 -1.99602,1.70443 -1.47021,2.90628 -2.66293,0.90563 -4.18131,0.46562 -2.83962,-2.20452 -0.47569,-0.0202 -0.98822,0.44439 -1.2025,0.8015 -0.9278,1.68744 0.17736,2.92823 1.36943,3.87574 0,0 -0.97549,-0.0661 -1.43611,0.0667 -0.65164,0.18793 -1.3281,0.48832 -1.77093,1.00201 -0.40513,0.46993 -0.66818,1.73736 -0.66818,1.73736 l -0.16693,1.33635 c 1.04498,-0.62611 2.38324,-0.91279 3.50676,-0.68678 1.43749,0.29439 2.75069,0.84383 4.32533,0.20464 -15.30189,12.04507 -6.73495,15.67416 -1.70481,25.06203 0.12927,0.564905 0.14221,1.163275 -0.0987,1.690335 -0.29649,0.64851 -0.83064,1.23789 -1.50482,1.00562 -1.13403,-0.6783 -1.69128,-2.02984 -3.20757,-0.69143 -0.0164,0.0155 -0.0296,0.0337 -0.045,0.0501 0.97306,-1.3467 1.92664,-3.357165 1.86965,-4.550105 -0.26952,-5.64151 -6.7462,-3.57018 -3.21273,0.23616 0.62279,-2.96043 1.77882,-0.65038 1.69027,0.73203 -0.0885,1.3824 -0.3601,3.596385 -0.3601,3.596385 -1.46647,2.04993 -0.58405,3.67006 1.39422,4.54597 1.63258,0.62814 3.17562,0.67692 4.49635,-0.28318 -3.12295,3.48867 -2.85097,5.3787 -0.78739,6.9479 0.029,0.0578 2.14925,1.12228 0.93533,2.95692 -0.30241,0.45705 -0.91848,0.62422 -1.5539,0.46767 0.52397,0.48961 1.3561,0.77057 2.11371,0.53082 0.95696,-0.27985 2.27166,-3.41187 1.74548,-4.3228 -2.02176,-3.50013 1.18878,-8.36983 0.40048,-13.446725 -0.73178,-2.91241 -3.58637,-5.24835 -5.59265,-6.26171 2.67149,-0.76378 3.71421,-1.44101 4.77771,-2.91708 0.3235,-0.56148 0.51551,-1.20064 0.6346,-1.83761 -0.0707,-3.04035 -2.15769,-9.28589 1.67426,-6.14278 -0.27469,-3.32321 -4.66137,-2.50834 -3.5786,1.23197 0.29037,1.00482 0.65079,1.87499 0.83483,2.73937 -2.75149,-1.49011 -4.4689,0.0863 -4.87979,1.08882 -1.68666,-0.87528 -0.65882,-3.04247 0.10232,-4.09536 1.64144,-1.66765 1.74243,0.39633 3.47421,-0.2005 -1.66509,-1.56224 -1.30699,-3.04992 0.86868,-4.57699 1.04016,-0.77584 2.12851,-1.29312 2.80502,-0.42241 0.86981,1.11952 2.28301,1.77318 3.57599,1.17395 -2.07621,-1.9421 -0.59291,-3.63957 0.93586,-2.08784 0.61442,1.13112 1.59049,1.90765 2.87319,1.26965 -4.30273,-2.71487 3.58025,-6.663692 7.68739,-10.034162 -1.04742,-1.86504 -1.65204,-3.765187 -2.10153,-5.788501 -3.84855,4.28577 -7.73952,4.254583 -9.79541,1.957843 -0.13485,-1.30329 1.6449,-0.96327 2.17144,-0.50126 0.91483,-1.22607 0.50418,-2.26103 -0.73483,-2.57245 2.10892,-1.13874 2.9428,-3.96521 1.93786,-5.77949 0.45614,2.42058 -3.61472,6.05417 -2.67271,2.03758 0.29076,-1.37653 -0.22525,-2.64463 -1.26966,-3.17345 z"
           sodipodi:nodetypes="ccccccccsscccccscccsczccccsccscccccccccccscccccccccccc" />
        <path
           id="path1938"
           style="fill:#ffffff;fill-rule:evenodd;stroke:#ffffff;stroke-width:0.0466071;stroke-dashoffset:3.77697;stroke-opacity:1;paint-order:fill markers stroke"
           d="m 268.47175,58.58943 c 0.23569,0.282818 -0.15087,0.811759 -0.4666,1.001025 -0.86416,0.517952 -1.4454,0.869979 -1.72403,1.119679 -0.28222,0.252921 -0.95844,1.183859 -0.82226,2.876871 0.005,0.06914 -0.3746,-0.642581 -0.35798,-0.994517 0.0619,-1.310643 0.66667,-2.723457 1.67623,-3.561571 0.44913,-0.372867 1.32094,-0.889928 1.69464,-0.441487 z"
           sodipodi:nodetypes="asssaaa" />
        <path
           id="path1940"
           style="fill:#ffffff;fill-rule:evenodd;stroke:#ffffff;stroke-width:0.0242013;stroke-dashoffset:3.77697;stroke-opacity:1;paint-order:fill markers stroke"
           d="m 260.96636,77.229412 c -5.11949,6.686245 -6.3523,9.504057 -5.1567,12.454466 -3.57382,-4.52111 3.03174,-11.378686 5.1567,-12.454466 z"
           sodipodi:nodetypes="ccc" />
        <path
           id="path1942"
           style="fill:#ffffff;fill-rule:evenodd;stroke:#ffffff;stroke-width:0.0367745;stroke-dashoffset:3.77697;stroke-opacity:1;paint-order:fill markers stroke"
           d="m 262.51339,112.52557 c 0.23455,-0.17139 0.0398,-0.65025 -0.1656,-0.85555 -0.56236,-0.56186 -0.93991,-0.94256 -1.10541,-1.18701 -0.16763,-0.24763 -0.50709,-1.08964 -0.0788,-2.35953 0.017,-0.0519 -0.40971,0.42019 -0.46434,0.69276 -0.20345,1.0151 -0.0109,2.21231 0.60151,3.04707 0.27243,0.37137 0.84083,0.93401 1.2127,0.66226 z"
           sodipodi:nodetypes="asssaaa" />
        <path
           id="path1944"
           style="fill:#ffffff;fill-rule:evenodd;stroke:#ffffff;stroke-width:0.0197376;stroke-dashoffset:3.77697;stroke-opacity:1;paint-order:fill markers stroke"
           d="m 264.34101,102.92723 c -0.39669,-4.975265 -2.24788,-7.371783 -4.56325,-8.466404 3.59721,0.02953 5.6433,5.799704 4.56325,8.466404 z"
           sodipodi:nodetypes="ccc" />
      </g>
      <g
         id="g1875"
         transform="matrix(0.90320549,0,0,0.90320549,-575.34227,-321.9444)"
         inkscape:export-filename="C:\Users\Matt's PC\Desktop\Leduc Website\logos\PNGs\leduc-logo-22.png"
         inkscape:export-xdpi="350"
         inkscape:export-ydpi="350">
        <path
           style="fill:#ffffff;fill-opacity:1;stroke:none;stroke-width:0.264583px;stroke-linecap:butt;stroke-linejoin:miter;stroke-opacity:1"
           d="m 847.90706,475.85107 c -0.98079,3.69966 0.39844,7.52298 1.55916,10.29983 l 0.73231,0.90951 -0.35348,0.45651 c -0.72286,0.7139 0,10e-6 -0.84734,0.93431 l 2.75739,1.39585 3.6075,1.16481 2.96481,0.53509 c 0.8751,-0.0397 1.1927,-0.38988 1.9825,-0.67313 l 0.46132,-0.35679 -0.99345,-0.95256 0.80483,-1.61509 0.10467,-0.46376 1.34654,-3.93333 1.25204,-2.45684 0.72051,-1.18118 -1.61822,-0.35435 -0.2227,-1.67391 -0.78128,-1.07824 c -4.27925,-0.96897 -9.50434,-1.21522 -13.47711,-0.95673 z"
           id="path1871"
           sodipodi:nodetypes="cccccccccccccccccccc" />
      </g>
      <g
         id="g1921"
         transform="matrix(0.90320549,0,0,0.90320549,-575.34227,-321.9444)"
         inkscape:export-filename="C:\Users\Matt's PC\Desktop\Leduc Website\logos\PNGs\leduc-logo-22.png"
         inkscape:export-xdpi="350"
         inkscape:export-ydpi="350">
        <path
           style="fill:#ffffff;fill-opacity:1;stroke:none;stroke-width:0.264583px;stroke-linecap:butt;stroke-linejoin:miter;stroke-opacity:1"
           d="m 847.90706,475.85107 -0.30711,1.65365 -0.15356,2.53952 0.38978,2.19699 1.63005,3.90967 0.73231,0.90951 -0.35348,0.45651 c -0.72286,0.7139 0,10e-6 -0.84734,0.93431 l 2.75739,1.39585 3.6075,1.16481 2.96481,0.53509 c 0.8751,-0.0397 1.1927,-0.38988 1.9825,-0.67313 l 0.46132,-0.35679 -0.99345,-0.95256 0.80483,-1.61509 0.10467,-0.46376 1.34654,-3.93333 1.25204,-2.45684 0.72051,-1.18118 -1.61822,-0.35435 -0.2227,-1.67391 -0.78128,-1.07824 c -4.27925,-0.96897 -9.50434,-1.21522 -13.47711,-0.95673 z"
           id="path1917"
           sodipodi:nodetypes="ccccccccccccccccccccccc" />
        <path
           id="path1919"
           style="fill:#000000;stroke-width:0.207414"
           d="m 2197.5352,493.04688 c -11.9111,0.21883 -26.0206,9.85423 -24.4454,28.4707 0,5.57387 1.1195,10.86999 3.67,17.35156 2.4614,6.25514 3.6847,7.90415 7.5742,10.21484 7.2482,4.3061 15.3727,7.1479 24.7422,8.65235 v -0.002 c 2.5136,0.40377 4.1108,0.31951 5.3535,-0.28321 1.2682,-0.61515 1.7723,-1.38421 2.8066,-4.29687 l 0.8184,-2.3086 -1.5859,-0.24804 c -7.5205,-1.17715 -15.6943,-3.80095 -21.9083,-7.03125 -5.4163,-2.81572 -9.0623,-5.53136 -14.6074,-10.87891 -1.9161,-1.84783 -3.8359,-3.67593 -4.2656,-4.0625 -0.4297,-0.3866 -1.0261,-1.22709 -1.3262,-1.86719 -0.4722,-1.00669 -0.5459,-1.43034 -0.539,-3.13476 0.01,-1.72142 0.078,-2.10351 0.5605,-3.03125 0.7646,-1.41476 2.0687,-2.72327 3.7227,-3.97266 1.6156,0.5496 6.9951,4.09495 8.1699,4.88086 3.1892,2.13362 6.0607,3.16623 9.9414,3.57812 3.4354,0.36459 11.26,-0.12538 18.293,-1.14648 3.271,-0.47488 9.6363,-1.56493 9.7773,-1.67383 0.08,-0.0617 -0.3358,-2.90326 -0.5059,-3.45703 -0.072,-0.2336 -0.3185,-0.36328 -0.6953,-0.36328 -0.3219,0 -0.8046,-0.17615 -1.0722,-0.39258 -0.4759,-0.3853 -0.479,-0.40945 -0.1387,-1.12304 0.1913,-0.40111 0.5409,-0.79082 0.7754,-0.86524 0.5419,-0.17205 0.5423,-0.16053 -0.1856,-2.2168 -4.2537,-10.11872 -14.2791,-20.863 -24.9296,-20.79296 z m 19.0761,14.63476 c 0.022,0.0254 0.046,0.0487 0.068,0.0742 0.023,0.027 0.038,0.0531 0.061,0.0801 -0.032,-0.041 -0.057,-0.0662 -0.09,-0.10938 -0.012,-0.0152 -0.027,-0.0297 -0.039,-0.0449 z m -2.7597,8.47656 c 3.0626,-9.5e-4 3.625,0.19217 3.625,1.25 0,1.00824 -0.5405,1.17469 -4.252,1.31055 -1.8253,0.0668 -4.8134,0.26594 -6.6387,0.44141 -1.8252,0.1757 -3.6914,0.37264 -4.1484,0.4375 -0.8957,0.12716 -1.1406,0.0101 -1.1406,-0.54688 0,-0.25183 0.4303,-0.51618 1.4668,-0.90039 3.5984,-1.33383 7.2581,-1.99113 11.0879,-1.99219 z m -35.2246,3.34571 c -0.416,0.032 -0.813,0.15632 -1.2325,0.35937 -1.3636,0.66017 -1.9267,1.76706 -1.9062,3.75977 0.019,2.04289 0.5762,3.22013 2.1445,4.54297 0.6385,0.53857 2.4209,2.24014 3.961,3.78125 4.5895,4.59257 8.6402,7.55709 14.1621,10.36328 5.8643,2.98025 12.1743,5.05252 19.7636,6.49023 1.4757,0.27941 2.7403,0.51515 2.8106,0.52539 0.07,0.009 0.7566,-1.82707 1.5254,-4.08008 2.6216,-7.68319 5.6145,-14.46503 8.5996,-19.48632 0.6918,-1.1638 1.2578,-2.168 1.2578,-2.23047 0,-0.30601 -2.6792,-0.0409 -6.0762,0.59961 -7.9663,1.50212 -13.8268,2.26957 -20.0957,2.63476 -1.8846,0.11095 -3.5876,0.14462 -5.1562,0.0937 -5.8723,-0.19011 -9.8474,-1.58021 -14.3047,-4.74023 -2.7779,-1.96939 -4.2053,-2.70933 -5.4531,-2.61328 z m 0.1835,2.46093 c 1.696,0 2.5315,2.14416 1.2618,3.23633 -0.7523,0.64724 -1.6043,0.63213 -2.4043,-0.041 -1.275,-1.07289 -0.5157,-3.19532 1.1425,-3.19532 z m 25.5957,9.13868 c 0.7295,-0.0525 1.4551,0.47591 1.4551,1.2539 0,0.74681 -1.9781,7.5959 -2.3086,7.99414 -0.3173,0.38251 -1.5302,0.35452 -1.9297,-0.0449 -0.1792,-0.17925 -0.3261,-0.57787 -0.3261,-0.88476 0,-1.03336 2.01,-7.7721 2.4043,-8.06055 0.2174,-0.15903 0.4619,-0.2403 0.705,-0.25781 z m 7.0293,0.0117 c 0.265,-0.0422 0.5512,0.0204 0.8633,0.1875 0.9709,0.51964 0.9435,0.78488 -0.6582,6.08204 -1.0529,3.48233 -1.6566,5.15226 -1.9785,5.47656 -0.5164,0.5199 -0.806,0.56466 -1.416,0.21875 -0.532,-0.30174 -0.7192,-0.58454 -0.7227,-1.0957 -0.01,-0.86183 2.7687,-9.96955 3.1778,-10.42774 0.2256,-0.25278 0.4694,-0.39916 0.7343,-0.44141 z m -13.8203,0.23438 c 0.501,0.0514 0.9912,0.35082 1.1875,0.86719 0.1464,0.38486 0.039,1.00401 -0.4375,2.54297 -0.3466,1.119 -0.7383,2.14108 -0.8711,2.27148 -0.6691,0.65676 -1.8821,0.42149 -2.205,-0.42773 -0.1448,-0.38046 -0.061,-0.98632 0.3222,-2.33985 0.2843,-1.00417 0.6232,-2.03709 0.7539,-2.29687 0.2377,-0.47178 0.7491,-0.6686 1.25,-0.61719 z M 2218,532.13672 c 0.3887,0.003 0.7804,0.1285 1,0.37109 0.1889,0.20861 0.3418,0.61634 0.3418,0.90821 0,0.96013 -3.2538,11.21764 -3.6504,11.50781 -0.7931,0.57992 -2.1552,-0.002 -2.1562,-0.92188 -10e-4,-0.67949 3.1656,-11.1471 3.4824,-11.51172 0.2077,-0.2387 0.5937,-0.35681 0.9824,-0.35351 z m -36.5996,17.23242 c -0.7843,1.18022 -1.5735,2.35719 -2.291,3.58008 1.5579,1.61525 2.9777,2.28713 4.8691,3.49414 4.2185,2.3777 11.1038,4.91766 18.0449,6.65625 3.1532,0.78982 9.922,2.21325 11.7188,2.46484 0.2852,0.0399 0.6843,-0.0232 0.8867,-0.14062 0.6394,-0.37083 2.4734,-2.78545 3.2871,-4.32813 l 0.7832,-1.48632 -0.8515,-0.86915 -0.8497,-0.86914 -0.8496,0.58399 c -2.0312,1.39732 -4.2264,1.57791 -9.125,0.74804 -8.8644,-1.50164 -17.2212,-4.55476 -23.8164,-8.69921 z"
           transform="matrix(0.29293814,0,0,0.29293814,210.82976,326.58592)"
           sodipodi:nodetypes="ccssccsccssssssccssssssssscccscscsssssssssscsssscsssscssssssssssssssssssscssssssssssssssssscccsssccccsssc" />
      </g>
    </g>
  </g>
</svg>
