<?xml version="1.0" encoding="UTF-8" standalone="no"?>
<svg
   xmlns:dc="http://purl.org/dc/elements/1.1/"
   xmlns:cc="http://creativecommons.org/ns#"
   xmlns:rdf="http://www.w3.org/1999/02/22-rdf-syntax-ns#"
   xmlns:svg="http://www.w3.org/2000/svg"
   xmlns="http://www.w3.org/2000/svg"
   xmlns:sodipodi="http://sodipodi.sourceforge.net/DTD/sodipodi-0.dtd"
   xmlns:inkscape="http://www.inkscape.org/namespaces/inkscape"
   width="99.751854mm"
   height="55.437977mm"
   viewBox="0 0 99.751857 55.437977"
   version="1.1"
   id="svg8"
   inkscape:version="1.0.2-2 (e86c870879, 2021-01-15)"
   sodipodi:docname="leduc-art-antiques-logo.svg">
  <defs
     id="defs2">
    <rect
       x="-309.94049"
       y="-240.39285"
       width="645.58331"
       height="360.58929"
       id="rect842" />
    <rect
       x="-364.36905"
       y="-117.17262"
       width="409.7262"
       height="222.25"
       id="rect850" />
    <rect
       x="-591.15479"
       y="-95.25"
       width="541.2619"
       height="124.73214"
       id="rect844" />
    <rect
       x="-341.69049"
       y="-144.3869"
       width="554.86908"
       height="182.18452"
       id="rect838" />
    <rect
       x="-424.84525"
       y="-94.494049"
       width="343.20239"
       height="135.31548"
       id="rect832" />
  </defs>
  <sodipodi:namedview
     id="base"
     pagecolor="#4f4f4f"
     bordercolor="#666666"
     borderopacity="1.0"
     inkscape:pageopacity="0"
     inkscape:pageshadow="2"
     inkscape:zoom="2.8284272"
     inkscape:cx="245.96214"
     inkscape:cy="161.0693"
     inkscape:document-units="mm"
     inkscape:current-layer="layer1"
     inkscape:document-rotation="0"
     showgrid="false"
     showborder="true"
     inkscape:window-width="3840"
     inkscape:window-height="2066"
     inkscape:window-x="-11"
     inkscape:window-y="-11"
     inkscape:window-maximized="1"
     fit-margin-top="0"
     fit-margin-left="0"
     fit-margin-right="0"
     fit-margin-bottom="0" />
  <metadata
     id="metadata5">
    <rdf:RDF>
      <cc:Work
         rdf:about="">
        <dc:format>image/svg+xml</dc:format>
        <dc:type
           rdf:resource="http://purl.org/dc/dcmitype/StillImage" />
        <dc:title></dc:title>
      </cc:Work>
    </rdf:RDF>
  </metadata>
  <g
     inkscape:label="Layer 1"
     inkscape:groupmode="layer"
     id="layer1"
     transform="translate(-55.124074,-120.78101)">
    <text
       xml:space="preserve"
       id="text842"
       style="font-weight:900;font-size:10.5833px;line-height:15.875px;font-family:dubai;-inkscape-font-specification:'dubai Heavy';letter-spacing:11.9062px;word-spacing:0px;writing-mode:lr-tb;white-space:pre;shape-inside:url(#rect844);" />
    <g
       id="g953"
       transform="matrix(0.59369279,0,0,0.59369279,-19.69535,62.575814)">
      <text
         xml:space="preserve"
         style="font-style:normal;font-variant:normal;font-weight:bold;font-stretch:normal;font-size:15.4361px;line-height:1.36737px;font-family:Garamond;-inkscape-font-specification:'Garamond, Bold';font-variant-ligatures:normal;font-variant-caps:normal;font-variant-numeric:normal;font-variant-east-asian:normal;letter-spacing:2.1707px;word-spacing:0px;writing-mode:lr-tb;fill:#ffffff;stroke-width:0.180891"
         x="178.45007"
         y="180.11855"
         id="text909"
         inkscape:export-filename="C:\Users\Matt's PC\Desktop\Leduc Website\logos\PNGs\leduc-logo-22.png"
         inkscape:export-xdpi="350"
         inkscape:export-ydpi="350"><tspan
           sodipodi:role="line"
           id="tspan907"
           x="178.45007"
           y="180.11855"
           style="font-style:normal;font-variant:normal;font-weight:bold;font-stretch:normal;font-size:15.4361px;font-family:Garamond;-inkscape-font-specification:'Garamond, Bold';font-variant-ligatures:normal;font-variant-caps:normal;font-variant-numeric:normal;font-variant-east-asian:normal;fill:#ffffff;stroke-width:0.180891">LEDUC</tspan></text>
      <text
         xml:space="preserve"
         style="font-style:normal;font-variant:normal;font-weight:bold;font-stretch:normal;font-size:7.71804px;line-height:0.683684px;font-family:Garamond;-inkscape-font-specification:'Garamond, Bold';font-variant-ligatures:normal;font-variant-caps:normal;font-variant-numeric:normal;font-variant-east-asian:normal;letter-spacing:0px;word-spacing:0px;writing-mode:lr-tb;fill:#ffffff;stroke-width:0.180891"
         x="185.55011"
         y="187.97591"
         id="text913"
         inkscape:export-filename="C:\Users\Matt's PC\Desktop\Leduc Website\logos\PNGs\leduc-logo-22.png"
         inkscape:export-xdpi="350"
         inkscape:export-ydpi="350"><tspan
           sodipodi:role="line"
           id="tspan911"
           x="185.55011"
           y="187.97591"
           style="font-style:normal;font-variant:normal;font-weight:bold;font-stretch:normal;font-size:7.71804px;font-family:Garamond;-inkscape-font-specification:'Garamond Bold';font-variant-ligatures:normal;font-variant-caps:normal;font-variant-numeric:normal;font-variant-east-asian:normal;fill:#ffffff;stroke-width:0.180891">Art &amp; Antiques</tspan></text>
      <path
         id="path915"
         style="fill:#ffffff;fill-opacity:1;stroke:none;stroke-width:0.264583px;stroke-linecap:butt;stroke-linejoin:miter;stroke-opacity:1"
         d="m 192.94255,103.58718 c -2.14887,5.70138 -7.32018,8.60957 -2.43914,13.43018 1.41705,0.89456 2.72621,1.42094 4.54392,2.13786 -2.47605,-0.69359 -9.85091,-0.13673 -7.65071,-4.24264 -1.16184,0.74898 -1.996,1.70443 -1.47019,2.90629 -2.66292,0.90562 -4.18131,0.46562 -2.83961,-2.20452 -0.4757,-0.0202 -0.98825,0.44439 -1.20251,0.8015 -0.92781,1.68744 0.17735,2.92822 1.36941,3.87573 0,0 -0.97547,-0.0661 -1.43608,0.0667 -0.65164,0.18794 -1.32813,0.48832 -1.77096,1.00201 -0.40513,0.46993 -0.66816,1.73736 -0.66816,1.73736 l -0.16692,1.33636 c 1.04497,-0.62611 2.38323,-0.91279 3.50676,-0.68678 1.43748,0.29438 2.75069,0.84382 4.32533,0.20463 -15.30191,12.04507 -6.73497,15.67417 -1.70482,25.06204 0.12928,0.5649 0.14221,1.16328 -0.0987,1.69034 -0.29649,0.6485 -0.83066,1.23789 -1.50482,1.00562 -1.13403,-0.6783 -1.69127,-2.02984 -3.20757,-0.69143 -0.0164,0.0155 -0.0296,0.0337 -0.045,0.0501 0.97306,-1.3467 1.92664,-3.35717 1.86965,-4.55012 -0.26953,-5.6415 -6.74618,-3.57017 -3.21273,0.23617 0.62281,-2.96043 1.7789,-0.65016 1.69035,0.73225 -0.0885,1.3824 -0.36018,3.59616 -0.36018,3.59616 -1.46648,2.04993 -0.58404,3.67007 1.39422,4.54598 1.63259,0.62814 3.17564,0.67691 4.49636,-0.28319 -3.12293,3.48867 -2.85113,5.3787 -0.78754,6.9479 0.029,0.0578 2.14927,1.12229 0.93533,2.95693 -0.30239,0.45704 -0.91847,0.62422 -1.55389,0.46767 0.52395,0.48961 1.35646,0.77046 2.11407,0.53071 0.95697,-0.27985 2.27129,-3.4118 1.74511,-4.32273 -2.02176,-3.50013 1.1888,-8.36983 0.4005,-13.44672 -0.73178,-2.91241 -3.58614,-5.24828 -5.59242,-6.26164 2.67147,-0.76378 3.71399,-1.44106 4.77748,-2.91713 0.3235,-0.56148 0.51549,-1.20065 0.63457,-1.83762 -0.0707,-3.04035 -2.15762,-9.28588 1.67434,-6.14277 -0.27469,-3.32321 -4.66138,-2.50835 -3.57859,1.23196 0.29035,1.00482 0.65103,1.87499 0.83507,2.73937 -2.75148,-1.49011 -4.46891,0.0863 -4.87979,1.08882 -1.68666,-0.87528 -0.65884,-3.04246 0.10232,-4.09535 1.64145,-1.66765 1.74241,0.39632 3.47419,-0.20051 -1.66508,-1.56224 -1.30699,-3.04991 0.86871,-4.57698 1.04007,-0.77584 2.12846,-1.29291 2.80498,-0.4222 0.86981,1.11951 2.28303,1.77331 3.576,1.17409 -2.07621,-1.9421 -0.59291,-3.63997 0.93586,-2.08824 0.61444,1.13112 1.59051,1.90769 2.87321,1.26969 -4.30273,-2.71486 3.58026,-6.66355 7.68739,-10.03402 -1.04741,-1.86504 -1.65227,-3.76495 -2.10166,-5.78827 -3.84858,4.28577 -7.73938,4.25424 -9.79528,1.9575 -0.13485,-1.30329 1.64489,-0.96327 2.17144,-0.50126 0.91482,-1.22607 0.50416,-2.26104 -0.73483,-2.57245 2.10892,-1.13875 2.9428,-3.96521 1.93786,-5.7795 0.45615,2.42058 -3.61471,6.0542 -2.67271,2.03761 0.29075,-1.37654 -0.22527,-2.64464 -1.26968,-3.17345 z m -0.45787,4.16822 c 0.14132,0.009 0.26573,0.0605 0.35915,0.17259 0.23569,0.28283 -0.15089,0.81171 -0.46662,1.00098 -0.86418,0.51795 -1.44531,0.87013 -1.72394,1.11983 -0.28221,0.25292 -0.95835,1.18381 -0.82217,2.87682 0.005,0.0691 -0.37473,-0.64283 -0.35811,-0.99477 0.0619,-1.31064 0.66683,-2.72343 1.67637,-3.56154 0.33687,-0.27965 0.91144,-0.6402 1.33532,-0.61391 z m -7.14634,18.8128 c -5.11947,6.68625 -6.35238,9.50361 -5.15678,12.45402 -3.57381,-4.52111 3.03183,-11.37824 5.15678,-12.45402 z m -1.18853,17.23099 c 3.59719,0.0295 5.64359,5.79997 4.56353,8.46667 -0.39669,-4.97526 -2.24816,-7.37205 -4.56353,-8.46667 z m 1.38594,13.66273 c -0.42828,1.26989 -0.0891,2.11192 0.0785,2.35955 0.1655,0.24445 0.54301,0.62515 1.10535,1.18701 0.20542,0.2053 0.40045,0.68437 0.1659,0.85576 -0.37188,0.27175 -0.94041,-0.29112 -1.21285,-0.66249 -0.61241,-0.83476 -0.80497,-2.03175 -0.60151,-3.04685 0.0546,-0.27257 0.48157,-0.74488 0.46456,-0.69298 z" />
      <path
         id="path925"
         style="fill:none;fill-opacity:1;fill-rule:evenodd;stroke:#ffffff;stroke-width:1.44657;stroke-linejoin:miter;stroke-miterlimit:4;stroke-dasharray:none;stroke-opacity:1;paint-order:markers stroke fill"
         d="m 193.39752,131.13749 h 32.72225 c 0,0 -2.07824,8.79612 -2.072,16.11045 0.005,5.90259 2.09816,9.99484 2.072,14.27056 -0.025,4.01589 -10.88955,4.06142 -14.97898,4.05076 -0.96733,-0.002 -1.37031,0.8724 -1.37031,0.8724 0,0 -0.38905,-0.8804 -1.42513,-0.89018 -4.17616,-0.0395 -14.91289,-0.0303 -14.94783,-4.03298 -0.0291,-3.32792 1.82584,-8.11786 1.83139,-14.22274 0.007,-7.51067 -1.83139,-16.15828 -1.83139,-16.15828 z"
         sodipodi:nodetypes="ccssscssscc"
         inkscape:export-filename="C:\Users\Matt's PC\Desktop\Leduc Website\logos\PNGs\leduc-logo-22.png"
         inkscape:export-xdpi="350"
         inkscape:export-ydpi="350" />
      <path
         sodipodi:type="star"
         style="fill:#ffffff;fill-opacity:1;fill-rule:evenodd;stroke:none;stroke-width:0.125;stroke-dashoffset:3.77697;paint-order:fill markers stroke"
         id="path927"
         sodipodi:sides="5"
         sodipodi:cx="-379.11008"
         sodipodi:cy="-3.0238092"
         sodipodi:r1="57.397648"
         sodipodi:r2="21.811106"
         sodipodi:arg1="0.78539816"
         sodipodi:arg2="1.4137167"
         inkscape:flatsided="false"
         inkscape:rounded="0"
         inkscape:randomized="0"
         inkscape:transform-center-x="0.24748026"
         inkscape:transform-center-y="-0.69267654"
         transform="matrix(0.06334682,0.01005991,-0.01005991,0.06334682,222.5997,141.26324)"
         inkscape:export-filename="C:\Users\Matt's PC\Desktop\Leduc Website\logos\PNGs\leduc-logo-22.png"
         inkscape:export-xdpi="350"
         inkscape:export-ydpi="350"
         d="m -338.52381,37.562457 -37.17426,-19.043691 -29.46999,29.599104 6.62415,-41.2396445 -37.25715,-18.8810045 41.2682,-6.443811 6.44381,-41.268207 18.88101,37.25715 41.23964,-6.624149 -29.5991,29.46999559 z" />
      <path
         style="fill:#ffffff;stroke-width:0.0841369"
         d="m 204.54165,163.12945 c 0.22613,-0.14977 0.69863,-0.64716 1.12121,-1.18027 0.63179,-0.79705 1.1501,-1.28891 1.62993,-1.5467 0.0695,-0.0373 -0.0136,0.0798 -0.1843,0.26004 -0.17079,0.18034 -0.35064,0.43448 -0.39966,0.56474 -0.10948,0.29072 -0.11784,1.12378 -0.0121,1.1892 0.0424,0.0262 0.31632,-0.22137 0.60858,-0.55024 0.62876,-0.70747 1.05085,-0.95539 1.5195,-0.89252 0.45617,0.0612 0.81251,0.36496 1.19447,1.01828 0.41673,0.71273 0.51401,0.64109 0.50883,-0.37478 -0.004,-0.68384 0.0109,-0.753 0.15529,-0.753 0.27147,0 0.62065,0.26243 0.86634,0.65113 0.22733,0.35967 0.238,0.36571 0.31086,0.17618 0.0414,-0.10791 0.0551,-0.45183 0.0304,-0.76421 -0.0255,-0.32294 -0.0121,-0.56793 0.0325,-0.56793 0.0426,0 0.22102,0.0574 0.39641,0.1276 0.34774,0.13915 0.48072,0.3063 0.70013,0.88023 l 0.14406,0.37678 0.10415,-0.34763 c 0.14038,-0.46853 0.0472,-0.89119 -0.27805,-1.26166 -0.42056,-0.47899 -1.05894,-0.66053 -1.59975,-0.4549 -0.15155,0.0575 -0.2669,0.0395 -0.4472,-0.0705 -0.22027,-0.13422 -0.53224,-0.56549 -0.44644,-0.61711 0.0194,-0.0121 0.48607,-0.24454 1.03714,-0.51756 3.78003,-1.87275 5.21664,-4.0205 5.21142,-7.79118 -0.002,-1.19133 -0.0826,-1.84906 -0.42061,-3.41738 -0.14084,-0.65357 -0.14055,-0.7393 0.007,-1.99533 0.22965,-1.95414 0.0815,-2.96526 -0.66705,-4.55381 -0.48155,-1.02193 -0.56895,-1.57525 -0.302,-1.91231 0.0983,-0.12417 0.26323,-0.24205 0.36643,-0.262 0.15563,-0.03 0.14735,-0.0381 -0.0484,-0.0477 l -0.23615,-0.0109 0.15201,-0.26184 c 0.0836,-0.14401 0.30343,-0.39413 0.48855,-0.55584 l 0.33655,-0.29401 -0.29449,0.0587 c -0.77112,0.15365 -1.59217,0.72576 -1.90364,1.32646 -0.14271,0.27519 -0.14894,0.27611 -0.48435,0.0707 -0.59608,-0.36488 -1.31346,-0.52989 -2.49201,-0.57323 -0.96774,-0.0355 -1.24774,-0.0151 -1.89181,0.13881 -0.41576,0.0993 -0.96389,0.29791 -1.21805,0.44134 l -0.4621,0.2608 -0.17021,-0.2374 c -0.54901,-0.7656 -1.26915,-1.28053 -2.02998,-1.45148 l -0.33793,-0.0759 0.49846,0.48476 c 0.49683,0.48314 0.55193,0.66684 0.20081,0.66948 -0.14571,6.7e-4 -0.11384,0.0412 0.15221,0.19144 0.30412,0.17177 0.33917,0.22632 0.364,0.56655 0.0383,0.52561 -0.10185,0.93162 -0.62391,1.80756 -0.79807,1.33899 -1.00864,2.89328 -0.61142,4.51297 0.22278,0.90834 0.19033,1.00947 -0.60506,1.88516 -2.41748,2.66153 -3.20652,7.18772 -2.14825,12.3231 0.27894,1.35363 0.78048,3.18456 0.93882,3.42733 0.19028,0.29175 0.73994,0.26088 1.23882,-0.0695 z m -1.02918,-2.13194 c -0.0763,-0.0921 -0.0676,-0.23064 0.0389,-0.61 0.40651,-1.44914 0.899,-2.38375 2.51749,-4.77747 1.31468,-1.94438 1.84101,-2.90507 2.17959,-3.97817 0.26803,-0.84953 0.42664,-2.08378 0.35227,-2.74113 l -0.0556,-0.49107 0.23294,0.0271 c 0.19594,0.0228 0.24465,0.0805 0.30666,0.36365 0.10851,0.49541 0.006,1.84317 -0.19526,2.5662 -0.25205,0.90554 -0.72498,1.83516 -1.566,3.07823 -0.40433,0.59763 -1.01508,1.50308 -1.35722,2.01212 -0.82996,1.23482 -1.56655,2.75086 -1.79874,3.70206 -0.10161,0.41649 -0.22087,0.80457 -0.26492,0.86242 -0.10585,0.13905 -0.26795,0.13326 -0.39012,-0.0139 z m 5.32052,-1.01091 c -0.27808,-0.24087 -0.25012,-0.27978 0.41601,-0.57873 l 0.48378,-0.21712 v 0.34632 c 0,0.62573 -0.44165,0.84639 -0.89979,0.44953 z m 0.27798,-12.8345 c -0.74482,-0.19049 -1.64707,-0.63906 -2.14819,-1.068 -1.54348,-1.32117 -1.58507,-3.84341 -0.0881,-5.34379 0.84033,-0.84228 1.72297,-0.93299 2.63229,-0.27055 0.22286,0.16237 0.58255,0.54107 0.7993,0.84156 l 0.3941,0.54637 0.21034,-0.27714 c 0.83725,-1.10312 1.53201,-1.5417 2.34867,-1.48261 0.62927,0.0456 1.07666,0.32827 1.47961,0.93517 0.52243,0.78682 0.66549,1.31178 0.66954,2.45662 0.004,0.95829 -0.01,1.03749 -0.25671,1.55656 -0.48317,1.0153 -1.45042,1.74744 -2.78326,2.10675 -0.82055,0.22121 -2.39078,0.22075 -3.25759,-6.8e-4 z m 1.79463,-0.70747 c 0.49168,-0.96869 0.37106,-1.90316 -0.24568,-1.90316 -0.64073,0 -0.78944,0.89112 -0.3146,1.88536 l 0.27599,0.57789 z m -1.93007,-1.87825 c 0.0695,-0.0253 0.23034,-0.14293 0.3576,-0.26152 0.60173,-0.56066 -0.055,-1.36202 -1.11632,-1.36202 -0.47209,0 -0.78066,0.12798 -1.07922,0.44761 -0.24396,0.26118 -0.19512,0.45864 0.19898,0.80469 0.40896,0.35906 1.1877,0.53545 1.63896,0.37124 z m 4.68372,-0.11723 c 0.29826,-0.0864 0.67415,-0.48609 0.75317,-0.80099 0.0993,-0.3956 -0.45703,-0.78943 -1.1151,-0.78943 -0.70724,0 -1.42217,0.48966 -1.48155,1.01474 -0.0173,0.15403 0.0659,0.23736 0.42973,0.42955 0.472,0.24939 0.90319,0.29395 1.41375,0.14613 z"
         id="path929"
         inkscape:export-filename="C:\Users\Matt's PC\Desktop\Leduc Website\logos\PNGs\leduc-logo-22.png"
         inkscape:export-xdpi="350"
         inkscape:export-ydpi="350" />
      <path
         style="fill:#ffffff;fill-opacity:1;fill-rule:evenodd;stroke:none;stroke-width:4.40232;stroke-linejoin:miter;stroke-miterlimit:4;stroke-dasharray:none;stroke-opacity:1;paint-order:markers stroke fill"
         d="m 204.72432,119.43417 c 0.41737,0.57482 -0.0497,2.09472 -0.15019,2.76976 -1.50249,0.66374 -4.93514,0.86599 -5.73507,1.62075 -1.00926,1.60069 -0.97675,3.19474 -0.76164,4.89926 3.86887,0.77007 6.85363,3.49969 9.63866,5.74074 0.64281,-0.7354 1.18878,-1.56127 1.91307,-2.22054 l 3.33108,2.59829 c 1.06142,-0.84266 2.07546,-1.75317 3.28352,-2.3859 4.64975,0.85783 6.4386,-0.50394 5.46187,-4.66807 -0.38123,-0.69952 -0.67643,-1.47844 -1.1111,-2.12862 l -4.46859,-2.69989 c -0.25332,-0.36404 -0.80678,-1.44875 -0.92681,-1.76361 -3.4916,1.06691 -6.9832,-0.97011 -10.4748,-1.76217 z"
         id="path931"
         inkscape:export-filename="C:\Users\Matt's PC\Desktop\Leduc Website\logos\PNGs\leduc-logo-22.png"
         inkscape:export-xdpi="350"
         inkscape:export-ydpi="350"
         sodipodi:nodetypes="ccccccccccccc" />
      <path
         id="path933"
         style="fill:#ffffff;fill-opacity:1;fill-rule:evenodd;stroke:#ffffff;stroke-width:0.665292;stroke-linejoin:miter;stroke-miterlimit:4;stroke-dasharray:none;stroke-opacity:1;paint-order:markers stroke fill"
         d="m 204.98601,122.07953 c -1.63041,2.24157 -4.69093,1.10801 -5.62253,2.14832 -0.39166,1.21973 -0.8985,2.42034 -0.76999,3.66865 3.24238,0.90182 6.3948,3.39163 9.06877,5.37893 0.53681,-0.61414 1.42705,-1.7879 1.8649,-2.35517 l 3.48949,2.81459 c 0.92259,-0.72672 3.24959,-2.71519 3.43376,-2.7036 4.42152,2.67342 6.30717,-1.13267 3.72539,-4.9452 -1.93947,-1.05965 -3.92406,-2.22186 -4.91197,-3.4585 -3.09502,5.56888 -6.97082,1.35246 -10.27782,-0.54802 z"
         sodipodi:nodetypes="cccccccccc"
         inkscape:export-filename="C:\Users\Matt's PC\Desktop\Leduc Website\logos\PNGs\leduc-logo-22.png"
         inkscape:export-xdpi="350"
         inkscape:export-ydpi="350" />
      <path
         id="path935"
         style="color:#000000;font-style:normal;font-variant:normal;font-weight:normal;font-stretch:normal;font-size:medium;line-height:normal;font-family:sans-serif;font-variant-ligatures:normal;font-variant-position:normal;font-variant-caps:normal;font-variant-numeric:normal;font-variant-alternates:normal;font-variant-east-asian:normal;font-feature-settings:normal;font-variation-settings:normal;text-indent:0;text-align:start;text-decoration:none;text-decoration-line:none;text-decoration-style:solid;text-decoration-color:#000000;letter-spacing:normal;word-spacing:normal;text-transform:none;writing-mode:lr-tb;direction:ltr;text-orientation:mixed;dominant-baseline:auto;baseline-shift:baseline;text-anchor:start;white-space:normal;shape-padding:0;shape-margin:0;inline-size:0;clip-rule:nonzero;display:inline;overflow:visible;visibility:visible;isolation:auto;mix-blend-mode:normal;color-interpolation:sRGB;color-interpolation-filters:linearRGB;solid-color:#000000;solid-opacity:1;vector-effect:none;fill:#ffffff;fill-opacity:1;fill-rule:evenodd;stroke:none;stroke-width:0.436999;stroke-linecap:butt;stroke-linejoin:miter;stroke-miterlimit:4;stroke-dasharray:none;stroke-dashoffset:0.999323;stroke-opacity:1;paint-order:markers stroke fill;color-rendering:auto;image-rendering:auto;shape-rendering:auto;text-rendering:auto;enable-background:accumulate;stop-color:#000000"
         d="m 201.29811,104.49203 c -0.96983,1.31248 -1.7871,2.78589 -2.42519,4.36563 l 1.25264,0.73483 c 0.582,-1.4409 1.33067,-2.78556 2.21485,-3.98218 z m -0.39999,1.47433 0.43976,0.47181 c -0.37298,0.50479 -0.68879,1.07215 -0.9343,1.68 l -0.52813,-0.31006 c 0.26919,-0.66642 0.61357,-1.28807 1.02267,-1.84175 z" />
      <path
         id="path937"
         style="color:#000000;font-style:normal;font-variant:normal;font-weight:normal;font-stretch:normal;font-size:medium;line-height:normal;font-family:sans-serif;font-variant-ligatures:normal;font-variant-position:normal;font-variant-caps:normal;font-variant-numeric:normal;font-variant-alternates:normal;font-variant-east-asian:normal;font-feature-settings:normal;font-variation-settings:normal;text-indent:0;text-align:start;text-decoration:none;text-decoration-line:none;text-decoration-style:solid;text-decoration-color:#000000;letter-spacing:normal;word-spacing:normal;text-transform:none;writing-mode:lr-tb;direction:ltr;text-orientation:mixed;dominant-baseline:auto;baseline-shift:baseline;text-anchor:start;white-space:normal;shape-padding:0;shape-margin:0;inline-size:0;clip-rule:nonzero;display:inline;overflow:visible;visibility:visible;isolation:auto;mix-blend-mode:normal;color-interpolation:sRGB;color-interpolation-filters:linearRGB;solid-color:#000000;solid-opacity:1;vector-effect:none;fill:#ffffff;fill-opacity:1;fill-rule:evenodd;stroke:none;stroke-width:0.436999;stroke-linecap:butt;stroke-linejoin:miter;stroke-miterlimit:4;stroke-dasharray:none;stroke-dashoffset:0.999323;stroke-opacity:1;paint-order:markers stroke fill;color-rendering:auto;image-rendering:auto;shape-rendering:auto;text-rendering:auto;enable-background:accumulate;stop-color:#000000"
         d="m 205.09787,101.20386 c -1.29296,0.81416 -2.4906,1.84252 -3.55121,3.04736 l 0.95653,1.22421 c 0.96797,-1.09961 2.06345,-2.04088 3.24167,-2.78277 z m -0.78599,1.15548 0.29712,0.68317 c -0.54059,0.34042 -1.04309,0.77237 -1.48725,1.27692 l -0.43923,-0.56172 c 0.48665,-0.55284 1.03608,-1.0248 1.62936,-1.39837 z" />
      <path
         id="path939"
         style="color:#000000;font-style:normal;font-variant:normal;font-weight:normal;font-stretch:normal;font-size:medium;line-height:normal;font-family:sans-serif;font-variant-ligatures:normal;font-variant-position:normal;font-variant-caps:normal;font-variant-numeric:normal;font-variant-alternates:normal;font-variant-east-asian:normal;font-feature-settings:normal;font-variation-settings:normal;text-indent:0;text-align:start;text-decoration:none;text-decoration-line:none;text-decoration-style:solid;text-decoration-color:#000000;letter-spacing:normal;word-spacing:normal;text-transform:none;writing-mode:lr-tb;direction:ltr;text-orientation:mixed;dominant-baseline:auto;baseline-shift:baseline;text-anchor:start;white-space:normal;shape-padding:0;shape-margin:0;inline-size:0;clip-rule:nonzero;display:inline;overflow:visible;visibility:visible;isolation:auto;mix-blend-mode:normal;color-interpolation:sRGB;color-interpolation-filters:linearRGB;solid-color:#000000;solid-opacity:1;vector-effect:none;fill:#ffffff;fill-opacity:1;fill-rule:evenodd;stroke:none;stroke-width:0.436999;stroke-linecap:butt;stroke-linejoin:miter;stroke-miterlimit:4;stroke-dasharray:none;stroke-dashoffset:0.999323;stroke-opacity:1;paint-order:markers stroke fill;color-rendering:auto;image-rendering:auto;shape-rendering:auto;text-rendering:auto;enable-background:accumulate;stop-color:#000000"
         d="m 214.75929,100.21839 -0.45683,1.5875 c 1.25617,0.52364 2.45362,1.25923 3.54399,2.17609 l 0.79738,-1.37666 c -1.19595,-1.00563 -2.50574,-1.81214 -3.88454,-2.38693 z m 0.8444,0.92656 c 0.69969,0.29168 1.36405,0.70097 1.97093,1.21129 l -0.40463,0.69867 c -0.55329,-0.46527 -1.16088,-0.8386 -1.79832,-1.10433 z" />
      <path
         id="path941"
         style="color:#000000;font-style:normal;font-variant:normal;font-weight:normal;font-stretch:normal;font-size:medium;line-height:normal;font-family:sans-serif;font-variant-ligatures:normal;font-variant-position:normal;font-variant-caps:normal;font-variant-numeric:normal;font-variant-alternates:normal;font-variant-east-asian:normal;font-feature-settings:normal;font-variation-settings:normal;text-indent:0;text-align:start;text-decoration:none;text-decoration-line:none;text-decoration-style:solid;text-decoration-color:#000000;letter-spacing:normal;word-spacing:normal;text-transform:none;writing-mode:lr-tb;direction:ltr;text-orientation:mixed;dominant-baseline:auto;baseline-shift:baseline;text-anchor:start;white-space:normal;shape-padding:0;shape-margin:0;inline-size:0;clip-rule:nonzero;display:inline;overflow:visible;visibility:visible;isolation:auto;mix-blend-mode:normal;color-interpolation:sRGB;color-interpolation-filters:linearRGB;solid-color:#000000;solid-opacity:1;vector-effect:none;fill:#ffffff;fill-opacity:1;fill-rule:evenodd;stroke:none;stroke-width:0.436999;stroke-linecap:butt;stroke-linejoin:miter;stroke-miterlimit:4;stroke-dasharray:none;stroke-dashoffset:0.999323;stroke-opacity:1;paint-order:markers stroke fill;color-rendering:auto;image-rendering:auto;shape-rendering:auto;text-rendering:auto;enable-background:accumulate;stop-color:#000000"
         d="m 209.68157,99.6608 c -1.44764,0.206172 -2.87385,0.65222 -4.22196,1.32705 l 0.53486,1.55184 c 1.22698,-0.6142 2.52807,-1.02209 3.84937,-1.21026 z m -0.92811,0.65836 0.0879,0.90537 c -0.71716,0.10213 -1.4233,0.32345 -2.08929,0.65681 l -0.2899,-0.84233 c 0.7317,-0.36627 1.50561,-0.60794 2.29134,-0.71985 z" />
      <path
         id="path943"
         style="color:#000000;font-style:normal;font-variant:normal;font-weight:normal;font-stretch:normal;font-size:medium;line-height:normal;font-family:sans-serif;font-variant-ligatures:normal;font-variant-position:normal;font-variant-caps:normal;font-variant-numeric:normal;font-variant-alternates:normal;font-variant-east-asian:normal;font-feature-settings:normal;font-variation-settings:normal;text-indent:0;text-align:start;text-decoration:none;text-decoration-line:none;text-decoration-style:solid;text-decoration-color:#000000;letter-spacing:normal;word-spacing:normal;text-transform:none;writing-mode:lr-tb;direction:ltr;text-orientation:mixed;dominant-baseline:auto;baseline-shift:baseline;text-anchor:start;white-space:normal;shape-padding:0;shape-margin:0;inline-size:0;clip-rule:nonzero;display:inline;overflow:visible;visibility:visible;isolation:auto;mix-blend-mode:normal;color-interpolation:sRGB;color-interpolation-filters:linearRGB;solid-color:#000000;solid-opacity:1;vector-effect:none;fill:#ffffff;fill-opacity:1;fill-rule:evenodd;stroke:none;stroke-width:0.436999;stroke-linecap:butt;stroke-linejoin:miter;stroke-miterlimit:4;stroke-dasharray:none;stroke-dashoffset:0.999323;stroke-opacity:1;paint-order:markers stroke fill;color-rendering:auto;image-rendering:auto;shape-rendering:auto;text-rendering:auto;enable-background:accumulate;stop-color:#000000"
         d="m 210.62674,99.562616 v 5.29e-4 c -0.18201,-0.0011 -0.36428,5.29e-4 -0.54621,0.0067 l 0.0393,1.680005 c 1.3317,-0.045 2.66856,0.12378 3.95737,0.51211 l 0.33745,-1.62832 c -1.2396,-0.373504 -2.51425,-0.562531 -3.78838,-0.571029 z m 0.74983,0.509014 c 0.68485,0.005 1.37028,0.10621 2.03655,0.30696 l -0.18137,0.87488 c -0.69276,-0.2087 -1.41121,-0.29912 -2.12701,-0.27492 l -0.0212,-0.9033 c 0.0978,-0.004 0.19521,-0.004 0.29303,-0.004 z" />
      <path
         sodipodi:type="star"
         style="fill:#ffffff;fill-opacity:1;fill-rule:evenodd;stroke:none;stroke-width:0.125;stroke-dashoffset:3.77697;paint-order:fill markers stroke"
         id="path955"
         sodipodi:sides="5"
         sodipodi:cx="-379.11008"
         sodipodi:cy="-3.0238092"
         sodipodi:r1="57.397648"
         sodipodi:r2="21.811106"
         sodipodi:arg1="0.78539816"
         sodipodi:arg2="1.4137167"
         inkscape:flatsided="false"
         inkscape:rounded="0"
         inkscape:randomized="0"
         inkscape:transform-center-x="0.24748026"
         inkscape:transform-center-y="-0.69267654"
         transform="matrix(0.06334682,0.01005991,-0.01005991,0.06334682,244.88141,141.26324)"
         inkscape:export-filename="C:\Users\Matt's PC\Desktop\Leduc Website\logos\PNGs\leduc-logo-22.png"
         inkscape:export-xdpi="350"
         inkscape:export-ydpi="350"
         d="m -338.52381,37.562457 -37.17426,-19.043691 -29.46999,29.599104 6.62415,-41.2396445 -37.25715,-18.8810045 41.2682,-6.443811 6.44381,-41.268207 18.88101,37.25715 41.23964,-6.624149 -29.5991,29.46999559 z" />
      <path
         id="path957"
         style="fill:#333333;fill-opacity:1;stroke:none;stroke-width:0.264583px;stroke-linecap:butt;stroke-linejoin:miter;stroke-opacity:1"
         d="m 204.76444,121.00844 c -0.20464,0.43 -0.32397,0.76549 -0.19031,1.19549 1.95974,1.22972 3.90478,2.48808 5.85416,3.73575 -0.94487,2.31527 0.6102,4.51635 2.76312,3.91088 2.16531,-0.60896 2.40774,-3.30616 0.84648,-4.75889 l 1.88746,-2.43123 c -0.11953,-0.40414 -0.20131,-0.6312 -0.3957,-0.88957 l -2.29532,2.99989 c -0.67877,-0.15531 -1.24961,-0.0903 -1.90429,0.13333 -2.17698,-1.31054 -4.93993,-2.21459 -6.5656,-3.89565 z m 7.90293,4.64442 c 0.008,-8e-5 0.0169,-8e-5 0.0254,0 0.81209,-1.8e-4 1.47053,0.74434 1.47072,1.66295 7e-5,0.91881 -0.65847,1.66365 -1.47072,1.66346 -0.81203,-1.4e-4 -1.47026,-0.74488 -1.47018,-1.66346 5e-5,-0.90731 0.64291,-1.64718 1.44486,-1.66295 z"
         sodipodi:nodetypes="cccsccccccccssccc"
         inkscape:export-filename="C:\Users\Matt's PC\Desktop\Leduc Website\logos\PNGs\leduc-logo-22.png"
         inkscape:export-xdpi="350"
         inkscape:export-ydpi="350" />
      <path
         id="path959"
         style="fill:#ffffff;fill-opacity:1;stroke:none;stroke-width:0.264583px;stroke-linecap:butt;stroke-linejoin:miter;stroke-opacity:1"
         d="m 227.12444,103.58718 c -1.04442,0.52881 -1.56046,1.79691 -1.26969,3.17345 0.942,4.01659 -3.12885,0.38297 -2.67271,-2.03761 -1.00494,1.81429 -0.17105,4.64075 1.93786,5.7795 -1.23902,0.31141 -1.64968,1.34638 -0.73483,2.57245 0.52652,-0.46201 2.3063,-0.80203 2.17144,0.50126 -2.05589,2.29674 -5.94672,2.32827 -9.79527,-1.9575 -0.44948,2.02332 -1.05426,3.92323 -2.10167,5.78827 4.10713,3.37047 11.9901,7.31916 7.68737,10.03402 1.2827,0.638 2.2588,-0.13857 2.87321,-1.26969 1.52879,-1.55173 3.01207,0.14614 0.93586,2.08824 1.29299,0.59922 2.70621,-0.0546 3.57603,-1.17409 0.67648,-0.87071 1.76482,-0.35364 2.80498,0.4222 2.17567,1.52707 2.53378,3.01474 0.86868,4.57698 1.73178,0.59683 1.83277,-1.46714 3.47422,0.20051 0.76112,1.05289 1.78898,3.22007 0.10231,4.09535 -0.4109,-1.00252 -2.12831,-2.57893 -4.87982,-1.08882 0.18405,-0.86438 0.54473,-1.73455 0.83511,-2.73937 1.08275,-3.74031 -3.30391,-4.55517 -3.5786,-1.23196 3.83196,-3.14311 1.74451,3.10242 1.67381,6.14277 0.11909,0.63697 0.31107,1.27614 0.63458,1.83762 1.06349,1.47607 2.1065,2.15335 4.778,2.91713 -2.00628,1.01336 -4.86116,3.34923 -5.59295,6.26164 -0.7883,5.07689 2.42226,9.94659 0.4005,13.44672 -0.52617,0.91093 0.78867,4.04288 1.74564,4.32273 0.75761,0.23975 1.58959,-0.0411 2.11355,-0.53071 -0.6354,0.15655 -1.25148,-0.0106 -1.5539,-0.46767 -1.21393,-1.83464 0.90633,-2.89913 0.93536,-2.95693 2.06348,-1.5692 2.3359,-3.45923 -0.78706,-6.9479 1.32075,0.9601 2.8638,0.91133 4.49638,0.28319 1.97827,-0.87591 2.8607,-2.49605 1.39422,-4.54598 0,0 -0.27167,-2.21376 -0.36017,-3.59616 -0.0886,-1.38241 1.06754,-3.69268 1.69034,-0.73225 3.53346,-3.80634 -2.94322,-5.87767 -3.21273,-0.23617 -0.057,1.19295 0.89659,3.20342 1.86965,4.55012 -0.0153,-0.0164 -0.0286,-0.0346 -0.045,-0.0501 -1.5163,-1.33841 -2.07354,0.0131 -3.20757,0.69143 -0.67419,0.23227 -1.20833,-0.35712 -1.50482,-1.00562 -0.2409,-0.52706 -0.22796,-1.12544 -0.0987,-1.69034 5.03013,-9.38787 13.59707,-13.01697 -1.70481,-25.06204 1.57464,0.63919 2.88782,0.0897 4.32532,-0.20463 1.12351,-0.22601 2.46177,0.0607 3.50677,0.68678 l -0.16693,-1.33636 c 0,0 -0.26305,-1.26743 -0.66818,-1.73736 -0.44283,-0.51369 -1.11929,-0.81407 -1.77093,-1.00201 -0.46064,-0.1328 -1.43611,-0.0667 -1.43611,-0.0667 1.19208,-0.94751 2.29725,-2.18829 1.36943,-3.87573 -0.21429,-0.35711 -0.72681,-0.8217 -1.2025,-0.8015 1.34167,2.67014 -0.17669,3.11014 -2.83962,2.20452 0.52581,-1.20186 -0.30837,-2.15731 -1.47021,-2.90629 2.20022,4.10591 -5.17467,3.54905 -7.65069,4.24264 1.81771,-0.71692 3.12687,-1.2433 4.5439,-2.13786 4.88103,-4.82061 -0.29025,-7.7288 -2.43911,-13.43018 z m 0.45786,4.16822 c 0.42389,-0.0263 0.99846,0.33426 1.3353,0.61391 1.00957,0.83811 1.61449,2.2509 1.6764,3.56154 0.0167,0.35194 -0.36312,1.06387 -0.35812,0.99477 0.13616,-1.69301 -0.53996,-2.6239 -0.82219,-2.87682 -0.27863,-0.2497 -0.85976,-0.60188 -1.72392,-1.11983 -0.31572,-0.18927 -0.70233,-0.71815 -0.46664,-1.00098 0.0934,-0.1121 0.21785,-0.16383 0.35917,-0.17259 z m 7.14581,18.8128 c 2.12495,1.07578 8.73062,7.93291 5.15678,12.45402 1.1956,-2.95041 -0.0373,-5.76777 -5.15678,-12.45402 z m 1.18907,17.23099 c -2.31537,1.09462 -4.16685,3.49141 -4.56354,8.46667 -1.08005,-2.6667 0.96634,-8.43717 4.56354,-8.46667 z m -1.38597,13.66273 c -0.0169,-0.0519 0.40944,0.42041 0.46405,0.69298 0.20347,1.0151 0.0109,2.21209 -0.6015,3.04685 -0.27244,0.37137 -0.84045,0.93424 -1.21232,0.66249 -0.23456,-0.17139 -0.04,-0.65046 0.16536,-0.85576 0.56235,-0.56186 0.93985,-0.94256 1.10535,-1.18701 0.16764,-0.24763 0.50737,-1.08966 0.0791,-2.35955 z" />
      <path
         id="path971"
         style="fill:#ffffff;stroke:none;stroke-width:0.175;stroke-miterlimit:4;stroke-dasharray:none;stroke-opacity:1"
         d="m 209.59953,103.58512 c -3.15148,0.0579 -6.88462,2.60726 -6.46785,7.53287 0,1.47475 0.29621,2.87602 0.97103,4.59093 0.65124,1.65501 0.97491,2.09131 2.004,2.70268 1.91776,1.13932 4.06736,1.89121 6.54638,2.28927 v -5.3e-4 c 0.66505,0.10683 1.08765,0.0845 1.41644,-0.0749 0.33555,-0.16276 0.46892,-0.36624 0.74258,-1.13689 l 0.21654,-0.61081 -0.4196,-0.0656 c -1.9898,-0.31145 -4.15246,-1.00567 -5.79658,-1.86035 -1.43306,-0.74499 -2.39773,-1.46351 -3.86487,-2.87838 -0.50697,-0.4889 -1.01492,-0.97259 -1.12861,-1.07487 -0.11369,-0.10229 -0.27149,-0.32467 -0.35089,-0.49403 -0.12493,-0.26635 -0.14443,-0.37844 -0.14261,-0.8294 0.003,-0.45546 0.0206,-0.55656 0.1483,-0.80202 0.2023,-0.37432 0.54734,-0.72053 0.98497,-1.0511 0.42746,0.14542 1.85078,1.08346 2.16161,1.29139 0.84381,0.56452 1.60356,0.83774 2.63033,0.94672 0.90895,0.0965 2.97921,-0.0332 4.84003,-0.30334 0.86545,-0.12565 2.5496,-0.41406 2.58691,-0.44287 0.0212,-0.0163 -0.0889,-0.76816 -0.13386,-0.91467 -0.019,-0.0618 -0.0843,-0.0961 -0.18396,-0.0961 -0.0852,0 -0.21288,-0.0466 -0.28369,-0.10387 -0.12591,-0.10195 -0.12673,-0.10834 -0.0367,-0.29714 0.0506,-0.10613 0.14311,-0.20924 0.20515,-0.22893 0.14338,-0.0455 0.14349,-0.0425 -0.0491,-0.58653 -1.12546,-2.67724 -3.77802,-5.52 -6.59596,-5.50147 z m 5.04722,3.87211 c 0.006,0.007 0.0122,0.0129 0.018,0.0196 0.006,0.007 0.01,0.014 0.0161,0.0212 -0.008,-0.0109 -0.0151,-0.0175 -0.0238,-0.029 -0.003,-0.004 -0.007,-0.008 -0.0103,-0.0119 z m -0.73017,2.24276 c 0.81031,-2.5e-4 0.95911,0.0508 0.95911,0.33073 0,0.26676 -0.14301,0.3108 -1.12501,0.34675 -0.48294,0.0177 -1.27354,0.0704 -1.75649,0.11679 -0.48291,0.0465 -0.97668,0.0986 -1.09759,0.11575 -0.23699,0.0336 -0.30179,0.003 -0.30179,-0.1447 0,-0.0666 0.11385,-0.13657 0.38809,-0.23822 0.95208,-0.35291 1.92038,-0.52682 2.93368,-0.5271 z m -9.31984,0.88522 c -0.11007,0.008 -0.21511,0.0414 -0.3261,0.0951 -0.36079,0.17467 -0.50978,0.46753 -0.50435,0.99477 0.005,0.54052 0.15245,0.85199 0.5674,1.202 0.16893,0.14249 0.64053,0.5927 1.04801,1.00045 1.21431,1.21512 2.28605,1.99948 3.74706,2.74195 1.55159,0.78853 3.22111,1.33682 5.22912,1.71721 0.39044,0.0739 0.72503,0.1363 0.74363,0.13901 0.0185,0.002 0.20019,-0.48341 0.4036,-1.07952 0.69363,-2.03285 1.4855,-3.82721 2.27531,-5.15576 0.18304,-0.30792 0.33279,-0.57361 0.33279,-0.59014 0,-0.081 -0.70887,-0.0108 -1.60766,0.15864 -2.10775,0.39744 -3.65834,0.60049 -5.31699,0.69712 -0.49863,0.0293 -0.94921,0.0383 -1.36424,0.0248 -1.55371,-0.0503 -2.60546,-0.4181 -3.78479,-1.25419 -0.73498,-0.52107 -1.11265,-0.71684 -1.44279,-0.69143 z m 0.0485,0.65112 c 0.44873,0 0.66979,0.56731 0.33385,0.85628 -0.19905,0.17124 -0.42447,0.16725 -0.63614,-0.0109 -0.33734,-0.28387 -0.13645,-0.84543 0.30229,-0.84543 z m 6.77219,2.41794 c 0.19302,-0.0139 0.385,0.12592 0.385,0.33176 0,0.19759 -0.52337,2.00975 -0.61082,2.11512 -0.0839,0.1012 -0.40487,0.0938 -0.51057,-0.0119 -0.0474,-0.0474 -0.0863,-0.1529 -0.0863,-0.2341 0,-0.27341 0.53182,-2.05636 0.63614,-2.13268 0.0575,-0.0421 0.12221,-0.0636 0.18653,-0.0682 z m 1.85984,0.003 c 0.0701,-0.0112 0.14584,0.005 0.22841,0.0496 0.25689,0.13749 0.24964,0.20767 -0.17415,1.60921 -0.27858,0.92137 -0.4383,1.3632 -0.52347,1.44901 -0.13664,0.13755 -0.21326,0.1494 -0.37465,0.0579 -0.14076,-0.0798 -0.19029,-0.15465 -0.19122,-0.2899 -0.003,-0.22803 0.73255,-2.63778 0.84079,-2.75901 0.0597,-0.0669 0.1242,-0.10561 0.19429,-0.11679 z m -3.65662,0.062 c 0.13255,0.0136 0.26225,0.0928 0.31419,0.22944 0.0387,0.10183 0.0103,0.26565 -0.11576,0.67283 -0.0917,0.29607 -0.19534,0.56649 -0.23047,0.601 -0.17704,0.17376 -0.49798,0.11151 -0.58341,-0.11318 -0.0383,-0.10066 -0.0161,-0.26096 0.0852,-0.61908 0.0752,-0.26569 0.16489,-0.53898 0.19947,-0.60771 0.0629,-0.12483 0.1982,-0.1769 0.33073,-0.1633 z m 5.39348,0.20826 c 0.10284,7.9e-4 0.20648,0.034 0.26458,0.0982 0.05,0.0552 0.0904,0.16307 0.0904,0.2403 0,0.25403 -0.8609,2.968 -0.96583,3.04477 -0.20984,0.15344 -0.57023,-5.3e-4 -0.5705,-0.24391 -2.6e-4,-0.17978 0.83757,-2.94934 0.92139,-3.04581 0.0549,-0.0632 0.15708,-0.0944 0.25993,-0.0935 z m -9.68365,4.55941 c -0.20751,0.31226 -0.41632,0.62367 -0.60616,0.94723 0.41219,0.42737 0.78785,0.60513 1.28828,0.92449 1.11615,0.6291 2.93788,1.30113 4.77438,1.76113 0.83429,0.20897 2.6252,0.58559 3.1006,0.65216 0.0755,0.0106 0.18106,-0.006 0.23461,-0.0372 0.16917,-0.0981 0.65442,-0.73698 0.86971,-1.14515 l 0.20722,-0.39326 -0.22529,-0.22996 -0.22482,-0.22996 -0.22479,0.15452 c -0.53742,0.3697 -1.11823,0.41748 -2.41432,0.19792 -2.34537,-0.39731 -4.55644,-1.20512 -6.30142,-2.30167 z"
         sodipodi:nodetypes="ccssccsccssssssccssssssssscccscscsssssssssscsssscsssscssssssssssssssssssscssssssssssssssssscccsssccccsssc" />
    </g>
  </g>
</svg>
