<?xml version="1.0" encoding="UTF-8" standalone="no"?>
<svg
   xmlns:dc="http://purl.org/dc/elements/1.1/"
   xmlns:cc="http://creativecommons.org/ns#"
   xmlns:rdf="http://www.w3.org/1999/02/22-rdf-syntax-ns#"
   xmlns:svg="http://www.w3.org/2000/svg"
   xmlns="http://www.w3.org/2000/svg"
   xmlns:sodipodi="http://sodipodi.sourceforge.net/DTD/sodipodi-0.dtd"
   xmlns:inkscape="http://www.inkscape.org/namespaces/inkscape"
   width="210mm"
   height="297mm"
   viewBox="0 0 210 297"
   version="1.1"
   id="svg8"
   inkscape:version="1.0.2-2 (e86c870879, 2021-01-15)"
   sodipodi:docname="paddys-logo-white-stroke.svg">
  <defs
     id="defs2">
    <rect
       x="-309.94048"
       y="-240.39286"
       width="645.58333"
       height="360.58929"
       id="rect842" />
    <rect
       x="-364.36905"
       y="-117.17262"
       width="409.72619"
       height="222.25"
       id="rect850" />
    <rect
       x="-591.15476"
       y="-95.25"
       width="541.2619"
       height="124.73214"
       id="rect844" />
    <rect
       x="-341.69048"
       y="-144.3869"
       width="554.86905"
       height="182.18452"
       id="rect838" />
    <rect
       x="-424.84524"
       y="-94.494048"
       width="343.20238"
       height="135.31548"
       id="rect832" />
  </defs>
  <sodipodi:namedview
     id="base"
     pagecolor="#4f4f4f"
     bordercolor="#666666"
     borderopacity="1.0"
     inkscape:pageopacity="0"
     inkscape:pageshadow="2"
     inkscape:zoom="1"
     inkscape:cx="863.59573"
     inkscape:cy="752.22638"
     inkscape:document-units="mm"
     inkscape:current-layer="layer1"
     inkscape:document-rotation="0"
     showgrid="false"
     showborder="false"
     inkscape:window-width="3840"
     inkscape:window-height="2066"
     inkscape:window-x="-11"
     inkscape:window-y="-11"
     inkscape:window-maximized="1" />
  <metadata
     id="metadata5">
    <rdf:RDF>
      <cc:Work
         rdf:about="">
        <dc:format>image/svg+xml</dc:format>
        <dc:type
           rdf:resource="http://purl.org/dc/dcmitype/StillImage" />
        <dc:title></dc:title>
      </cc:Work>
    </rdf:RDF>
  </metadata>
  <g
     inkscape:label="Layer 1"
     inkscape:groupmode="layer"
     id="layer1">
    <text
       xml:space="preserve"
       id="text842"
       style="font-family:dubai;font-size:10.58333333px;line-height:15.875px;letter-spacing:11.90625px;word-spacing:0px;-inkscape-font-specification:'dubai Heavy';writing-mode:lr;font-weight:900;white-space:pre;shape-inside:url(#rect844);" />
    <g
       id="g1980">
      <rect
         style="fill:#ffffff;fill-opacity:0;fill-rule:evenodd;stroke:none;stroke-width:0.066477;stroke-linecap:square;stroke-miterlimit:4;stroke-dasharray:none;stroke-dashoffset:3.77697;stroke-opacity:1;paint-order:stroke fill markers"
         id="rect1945"
         width="181.84608"
         height="120.0497"
         x="136.75497"
         y="121.38231" />
      <g
         id="g1963"
         transform="translate(-1.3751357,-3.6429468)">
        <g
           id="g1955">
          <path
             inkscape:connector-curvature="0"
             id="path1124"
             d="m 229.36398,228.7284 c -0.64041,-0.1819 -1.23649,-0.71995 -1.55244,-1.40129 -0.36439,-0.78579 -0.6055,-2.70466 -0.70587,-5.6181 -0.0788,-2.28862 -0.19056,-2.86599 -0.63473,-3.28062 -0.0953,-0.0891 -0.29387,-0.17604 -0.4492,-0.19699 -0.87352,-0.1168 -2.33341,0.71518 -5.86817,3.34539 -3.48402,2.59252 -5.22115,3.65849 -6.849,4.20288 -1.98998,0.6655 -3.41215,0.41089 -5.23034,-0.93642 -0.73524,-0.54481 -1.52578,-1.30657 -1.90014,-1.83091 -0.86179,-1.20693 -1.35254,-3.22233 -1.17595,-4.82923 0.14977,-1.36139 0.54356,-2.19775 1.43902,-3.05502 0.74463,-0.71291 0.73203,-0.81842 -0.20817,-1.74037 -0.30691,-0.30108 -0.69833,-0.73211 -0.8697,-0.95788 -0.9327,-1.22862 -1.37173,-2.93292 -1.18728,-4.60863 0.35103,-3.18814 2.43875,-5.27907 5.53977,-5.54829 1.35131,-0.11736 2.87026,0.11819 4.5668,0.70855 1.69756,0.59056 4.20626,1.91448 5.87001,3.09789 0.18275,0.12965 0.34252,0.22549 0.35546,0.21264 0.0112,-0.014 -0.1467,-0.22298 -0.35448,-0.46655 -2.50855,-2.9406 -4.02469,-5.68071 -4.6248,-8.3588 -0.13692,-0.61025 -0.1576,-0.88556 -0.15397,-2.03971 0.003,-1.15622 0.0251,-1.40677 0.15452,-1.87791 0.65541,-2.36596 2.40165,-3.84748 5.18131,-4.39596 0.91222,-0.18022 3.06921,-0.16234 4.14196,0.0335 1.54903,0.28314 2.40221,0.5947 3.37982,1.23429 0.98074,0.64166 1.33175,0.6235 2.43946,-0.12602 1.33359,-0.90228 2.8428,-1.31523 4.82657,-1.32049 1.20246,-0.002 1.83071,0.069 2.89355,0.33302 1.44821,0.35967 2.52551,0.91119 3.39256,1.73691 1.41417,1.34666 2.03047,2.70306 2.03153,4.47101 0,1.86874 -0.6688,3.63862 -2.51756,6.65119 -0.94531,1.5404 -1.41792,2.36052 -1.36027,2.36052 0.0224,0 0.3647,-0.18274 0.76659,-0.40608 1.83982,-1.02254 3.86858,-1.7639 5.6448,-2.06274 0.7379,-0.12434 2.24202,-0.10478 2.90967,0.0377 2.00912,0.42852 3.54261,1.70411 4.27757,3.55809 0.34352,0.86663 0.44657,1.47146 0.44333,2.60202 -0.003,1.1781 -0.14083,1.87715 -0.53744,2.73528 -0.33396,0.72236 -0.58958,1.07122 -1.38014,1.88324 -0.73061,0.75042 -0.94959,1.07019 -0.8756,1.27855 0.0251,0.0682 0.31267,0.40122 0.64099,0.73988 0.66391,0.68486 0.94786,1.16884 1.17849,2.00864 0.20677,0.75318 0.20705,2.38092 0,3.27286 -0.4542,1.96126 -1.38031,3.2175 -3.35249,4.54758 -1.18533,0.79936 -2.33051,1.10748 -3.52107,0.94723 -1.92409,-0.25902 -4.18368,-1.51832 -8.41006,-4.68728 -1.88417,-1.41278 -3.75218,-2.60278 -5.22059,-3.32567 -0.6304,-0.31035 -0.73499,-0.34151 -1.03358,-0.30801 -1.3211,0.1481 -1.96352,1.86095 -1.58138,4.21577 0.13468,0.82879 0.20593,1.08163 0.82027,2.90799 0.64409,1.91417 0.80763,2.54879 0.8142,3.15943 0.006,0.56631 -0.114,0.79607 -0.52098,0.99868 -0.3224,0.16067 -1.22372,0.2146 -1.63369,0.0984 z"
             style="fill:#0d6237;fill-opacity:1;stroke:#ffffff;stroke-width:0.452902;stroke-miterlimit:4;stroke-dasharray:none;stroke-opacity:1" />
          <g
             id="g1134"
             transform="matrix(1.6815401,0,0,1.6815401,116.98099,-795.02295)"
             style="stroke:none;stroke-opacity:1">
            <path
               id="path1117"
               style="fill:#ffffff;fill-opacity:1;stroke:none;stroke-width:0.0649999;stroke-linecap:butt;stroke-linejoin:miter;stroke-miterlimit:4;stroke-dasharray:none;stroke-opacity:1"
               d="m 70.44375,589.75059 -1.363224,0.003 -2.605526,7.57576 c -0.10813,0.32528 0.114982,0.69406 0.340032,0.94361 0.204639,0.18976 0.442814,0.24556 0.694015,0.24908 l 1.676384,0.0377 c 0.0042,0.67025 -0.06203,1.32051 0.03927,2.01848 0.03772,0.14275 0.08691,0.27247 0.245981,0.2744 0,0 0.825362,0.0468 0.869714,-0.0274 0.199035,-0.33261 0.06009,-1.04685 0.133842,-1.76321 0.03957,-0.2054 0.0048,-0.42942 0.313158,-0.56018 0.424919,0.0227 0.490657,-0.45228 0.511599,-1.05264 0.04762,-0.93499 -0.79847,-0.51663 -0.776698,-1.19425 z m -1.164786,3.73827 c 0.01572,-0.003 0.100673,-0.28232 0.105423,-0.23772 0.04946,0.45736 0.185998,2.61234 -0.0044,3.27073 -0.0407,0.14078 -1.329165,0.1556 -1.279283,-0.0267 0.156322,-0.8483 1.044589,-2.74316 1.178243,-3.00631 z"
               sodipodi:nodetypes="ccccccccccccccscsccs" />
            <path
               sodipodi:nodetypes="ccccccccccccccccccccccccsccccccccccccscccccccccccccccccccccccccccccccccccccccccccccccccccc"
               inkscape:connector-curvature="0"
               id="path912-6"
               d="m 64.099199,589.75125 -0.500044,0.004 c -0.125971,0.006 -0.251925,0.01 -0.377896,0.035 -0.09277,0.0169 -0.181713,0.0421 -0.274968,0.0774 -0.109298,0.0531 -0.19321,0.1221 -0.282769,0.20417 -0.0864,0.10049 -0.166817,0.20247 -0.240018,0.30625 -0.07869,0.12166 -0.144027,0.24666 -0.204142,0.37297 l -0.08273,0.22722 c -0.06368,0.20216 -0.08171,0.3891 -0.119002,0.58245 l -0.01575,0.47061 -0.0052,0.42513 0.028,0.28691 c 6.3e-5,0.0878 0.03221,0.1609 0.07347,0.23968 0.03149,0.0366 0.06298,0.0614 0.09447,0.0892 0.0755,0.0194 0.150901,0.0393 0.230944,0.0315 0.100317,9.5e-4 0.213626,0.0115 0.297396,0 0.183616,0.0108 0.335712,-0.018 0.440873,-0.0892 0.02097,0.007 0.09584,-0.22931 0.08398,-0.25892 0.0094,-0.0262 0.02877,-0.48529 0.01749,-0.48811 0.0064,-0.123 -0.0016,-0.23471 0.02625,-0.37439 0.02183,-0.0787 0.06173,-0.13214 0.106718,-0.17844 0.123407,-0.0673 0.300496,-0.0728 0.437366,-0.0682 0.148903,-0.007 0.274197,-0.005 0.414622,-0.007 l 0.260671,-0.002 c 0,0 0.220436,0.003 0.255432,0.003 0.03498,0 0.176633,-0.003 0.176633,-0.003 l -0.0087,0.79733 0.0069,0.57208 c 0.005,0.29011 -0.006,0.54828 -0.01337,0.8135 l -0.03457,0.21242 c -0.0074,0.0767 -0.03448,0.13793 -0.06049,0.20003 -0.04866,0.076 -0.119522,0.11221 -0.202947,0.12597 l -0.235033,0.0124 c -0.100081,0.0221 -0.148258,0.0721 -0.20584,0.11854 -0.03215,0.10099 -0.04914,0.19702 -0.07075,0.30543 l -0.01604,0.38241 0.0028,0.44087 0.02721,0.30544 c 0.0047,0.0528 0.0772,0.25078 0.09712,0.24082 0.07285,0.0683 0.165497,0.0739 0.240821,0.0942 0.134197,-0.0142 0.209159,0.006 0.26465,0.0313 0.083,0.0396 0.08939,0.0767 0.102912,0.10992 0,0 0.04242,0.10744 0.05642,0.14943 0.014,0.042 0.03831,0.45691 0.03831,0.45691 l 0.0069,0.64833 -0.0049,0.62529 0.0087,0.47339 -1.57e-4,0.22421 v 0 l -0.572018,0.005 -0.751262,-0.0177 c -0.08314,-0.0126 -0.166299,-0.0218 -0.24944,-0.0856 -0.05975,-0.0746 -0.08058,-0.16908 -0.0926,-0.25857 l -0.01691,-0.59928 c 0.0047,-0.13591 -0.02663,-0.25658 -0.06545,-0.38036 -0.09105,-0.0954 -0.197598,-0.11409 -0.309964,-0.12553 l -0.431388,-0.007 c -0.09783,0.0123 -0.193274,0.0102 -0.29724,0.0593 -0.05387,0.0368 -0.0984,0.12395 -0.121786,0.23135 l -0.03627,0.50668 c 0.002,0.22325 0.01463,0.44897 0.03627,0.66975 0.03075,0.22037 0.07666,0.42878 0.127165,0.62281 0.06682,0.18126 0.133646,0.33636 0.200462,0.4919 l 0.243306,0.37294 c 0.08799,0.13359 0.200445,0.22552 0.275817,0.27539 l 0.239971,0.0889 0.272074,0.0243 0.508364,0.0152 0.545846,-0.007 h 0.454856 l 0.237927,0.007 0.213296,-0.002 c 0.233004,-0.22263 0.392665,-0.47464 0.486643,-0.74783 0.09907,-0.19059 0.149344,-0.39691 0.223001,-0.6002 0.04679,-0.15734 0.05068,-0.32638 0.07776,-0.4837 0.02817,-0.23721 0.0262,-0.4895 0.02919,-0.73931 l -0.07817,-1.16412 c -0.03437,-0.41463 -0.05782,-0.80993 -0.08603,-1.21226 -0.02362,-0.34469 -0.0082,-0.68443 0.002,-1.03407 l 0.07699,-1.43457 c 0.03739,-0.5155 0.07202,-1.03155 0.07698,-1.55353 -0.0082,-0.20171 -0.009,-0.39623 -0.042,-0.62282 l -0.04198,-0.19594 -0.104548,-0.26549 c -0.05788,-0.0952 -0.110557,-0.19536 -0.184843,-0.30954 -0.102126,-0.15188 -0.176774,-0.29492 -0.305434,-0.45486 -0.06277,-0.0733 -0.143996,-0.12948 -0.265924,-0.19474 -0.09604,-0.0465 -0.199109,-0.0766 -0.314903,-0.077 -0.170498,-0.0159 -0.336938,-0.0324 -0.513319,-0.0264 z"
               style="fill:#ffffff;fill-opacity:1;stroke:none;stroke-width:0.157286px;stroke-linecap:butt;stroke-linejoin:miter;stroke-opacity:1" />
          </g>
        </g>
        <path
           style="fill:#0d6237;fill-opacity:1;stroke:#ffffff;stroke-width:0.347197;stroke-opacity:1"
           d="m 237.65048,141.26852 c -0.69195,-0.0223 -1.02377,0.0224 -1.09829,0.14111 -0.412,0.6242 -0.79805,5.11818 -0.45037,5.23274 1.35586,0.44814 1.36187,0.35221 -0.38831,12.93236 -0.93349,6.73133 -1.78175,12.36448 -1.8819,12.5199 -0.0903,0.1411 -0.48535,0.17631 -0.85785,0.10142 -0.81722,-0.17631 -1.01139,0.40525 -1.12763,3.45407 l -0.0902,2.16744 6.98348,0.90641 c 3.84067,0.50005 7.3913,0.92335 7.89045,0.9448 0.65131,0.0224 1.43726,-0.46506 2.78977,-1.75166 l 1.88187,-1.79044 0.66712,-4.51949 c 0.36797,-2.48467 1.27111,-8.92915 2.01012,-14.31918 l 1.34312,-9.79965 -1.36818,-2.14646 c -0.75175,-1.18072 -1.4156,-2.20633 -1.46878,-2.26976 -0.0564,-0.0676 -3.60562,-0.55988 -7.88897,-1.09265 -3.63342,-0.45151 -5.79253,-0.68402 -6.94805,-0.71562 z m -17.53639,0.14111 -7.60813,0.93799 c -4.18383,0.5181 -7.74655,0.94816 -7.91722,0.95495 -0.15369,0.008 -0.21767,0.88495 -0.0565,1.95242 0.42442,3.49288 0.53842,3.78884 1.48747,3.78884 0.47636,0 0.86693,0.0679 0.86693,0.14111 0,0.0676 0.72918,5.43934 1.61877,11.86544 0.88948,6.42656 1.65579,11.98665 1.70039,12.3571 0.0564,0.47524 -0.15368,0.70551 -0.76419,0.78227 -0.80141,0.10143 -0.8353,0.17632 -0.61294,1.85376 0.12742,0.95833 0.32623,2.23104 0.44138,2.83017 0.12741,0.6942 0.4165,1.09265 0.7698,1.09265 1.49046,0 14.97375,-1.78343 15.23741,-2.01597 0.15368,-0.1411 0.89627,-1.19133 1.62173,-2.32617 l 1.32146,-2.05833 -1.99182,-14.24376 -1.99188,-14.24306 -2.04801,-1.85379 z m 42.0829,3.2566 c -0.18721,0 -0.7111,0.9448 -1.14286,2.10415 -0.42894,1.15948 -0.87707,2.34378 -0.9956,2.62923 -0.15368,0.37365 0.0902,0.65921 0.69196,0.91659 l 0.90865,0.40522 v 9.878 c 0,9.54457 -0.0224,9.95758 -0.85785,12.20971 -1.56845,4.27129 -1.53098,4.20819 -2.46763,3.87451 -0.789,-0.28219 -0.89624,-0.14111 -1.8005,2.13927 -0.52939,1.3429 -0.96509,2.57992 -0.96509,2.7561 0,0.14138 1.57194,0.8816 3.49206,1.55782 1.91948,0.68067 3.72077,1.20543 4.00142,1.17022 0.28104,-0.0224 0.95492,-1.22303 1.51186,-2.6716 l 1.00575,-2.60811 -0.86126,-0.17632 -0.86126,-0.17631 1.12087,-2.91473 c 1.08021,-2.81245 1.37721,-3.19319 8.21497,-10.71931 6.08635,-6.69721 7.22485,-7.79676 8.01961,-7.74292 0.84206,0.0679 1.01703,-0.1411 1.93177,-2.48464 l 1.00798,-2.54471 -4.14009,-1.40621 c -2.27639,-0.77886 -4.18514,-1.36754 -4.24058,-1.31471 -0.0564,0.0679 -0.57904,1.25826 -1.16172,2.68569 -1.01139,2.47069 -1.03058,2.60104 -0.3804,2.79135 0.37135,0.10143 0.67952,0.37365 0.67952,0.52828 0,0.44361 -7.95785,9.05117 -8.37178,9.05117 -0.18749,0 -0.24729,-1.26536 -0.0902,-3.08042 0.12769,-1.69531 0.21767,-4.42388 0.21767,-6.06556 0,-2.92895 0.0112,-2.97829 0.80707,-2.79147 0.72921,0.14111 0.90527,-0.0676 1.8223,-2.37189 0.55762,-1.40985 0.93914,-2.63625 0.84659,-2.72802 -0.24728,-0.24617 -7.53595,-2.81944 -7.9538,-2.81944 z m -43.52614,2.93945 c 0.41653,-0.002 0.68628,0.0223 0.72694,0.0679 0.28104,0.43682 3.65734,24.62326 3.45834,24.81039 -0.0903,0.0679 -1.74398,0.37364 -3.68445,0.62423 -1.94113,0.24617 -3.61839,0.47521 -3.7263,0.48312 -0.28107,0.0112 -3.70056,-24.8828 -3.43995,-25.12729 0.35218,-0.35215 4.86581,-0.86688 6.66464,-0.87367 z m 24.17605,0.1411 c 0.62987,0.0112 2.01396,0.10143 3.57787,0.35219 l 3.78873,0.42667 -0.18721,1.043 c -0.0903,0.57454 -0.83528,5.89105 -1.63143,11.81576 -0.79576,5.92425 -1.52497,11.1122 -1.61874,11.52918 -0.18721,0.86349 -1.02042,0.91318 -5.26214,0.35218 -2.30788,-0.35218 -2.41735,-0.37364 -2.41735,-1.24764 0,-1.18419 3.20174,-24.00505 3.39261,-24.18555 0.0224,-0.0224 0.15368,-0.0224 0.35219,-0.0224 z m -60.74333,2.57283 c -1.47814,0.28219 -4.23188,1.65297 -4.23976,2.09353 -0.008,0.24729 1.45642,7.3806 3.24723,15.78365 3.33011,15.62457 3.31611,15.51347 1.95729,15.96049 -0.18749,0.0679 0.18749,1.27223 0.85449,2.69616 0.66033,1.42387 1.27405,2.58344 1.36819,2.58344 0.47971,0 7.61288,-3.17905 7.61288,-3.39046 0,-0.24617 -2.10119,-4.75455 -2.31691,-4.96042 -0.0564,-0.0676 -0.4481,0.0223 -0.83868,0.24617 -0.81722,0.40862 -1.13984,-0.0676 -1.13984,-1.63174 0,-0.8669 0.28107,-1.05769 3.82589,-2.54119 l 3.82549,-1.60717 0.8274,0.973 c 0.85223,1.00125 1.03058,1.47679 0.56325,1.48378 -0.15368,0.002 -0.47971,0.10143 -0.73256,0.28218 -0.36347,0.17632 -0.18749,0.85676 0.79806,2.88301 0.69531,1.43444 1.39674,2.55883 1.55646,2.49537 0.15368,-0.0676 1.92577,-0.77207 3.92497,-1.57543 4.08287,-1.64235 3.86796,-1.15258 2.12941,-4.83487 -0.80706,-1.7059 -1.01475,-1.91032 -1.89769,-1.85391 -0.91429,0.0679 -1.78187,-0.93349 -10.91502,-12.55544 -5.73595,-7.29671 -10.12688,-12.58198 -10.40591,-12.52666 z m 105.85306,4.48135 -1.41856,2.54469 c -0.87026,1.56132 -1.2651,2.60453 -1.0238,2.68909 0.21767,0.0679 0.6852,0.35215 1.04303,0.5813 0.60388,0.41651 0.60726,0.49327 0.0564,1.24426 -0.32623,0.4402 -0.59489,0.92332 -0.59489,1.07798 0,0.35216 1.15485,0.0224 2.57078,-0.64116 0.78562,-0.37364 3.51749,-4.39327 3.51749,-5.17465 0,-0.0676 -0.93348,-0.66594 -2.07243,-1.25463 z m -124.84295,5.01636 c -0.54182,-3.4e-4 -12.59327,7.78483 -12.99503,8.39559 -0.12741,0.17631 2.40847,3.91921 3.1775,4.64389 0.0902,0.0676 0.43346,-0.002 0.72696,-0.24617 0.28105,-0.24617 0.68288,-0.35221 0.86688,-0.17631 0.31491,0.1411 14.52765,18.83685 15.26596,20.02419 0.18722,0.35218 0.0565,0.63437 -0.36009,0.92335 -0.61967,0.42667 -0.59145,0.53165 0.55085,2.04782 0.66374,0.88045 1.45604,1.94192 1.76284,2.35076 0.31491,0.40863 0.59824,0.75064 0.64451,0.75743 0.0903,0.0112 4.85768,-3.14737 6.07473,-4.03347 l 0.79238,-0.57454 -1.64045,-2.23101 c -1.64043,-2.2309 -2.13866,-2.55869 -2.87779,-1.86787 -0.3759,0.37361 -1.12087,-0.44476 -3.98493,-4.30267 l -0.79576,-1.07462 3.67922,-2.43183 c 2.02289,-1.33926 3.7016,-2.44954 3.72889,-2.46362 0.0224,-0.0112 0.15369,-1.24055 0.2811,-2.72441 l 0.24729,-2.6927 -4.95274,-6.53423 -4.95248,-6.53448 -2.32361,-0.61632 c -1.27787,-0.35215 -2.59582,-0.61632 -2.92442,-0.61632 z m 21.27541,0.47974 c 0.0564,-0.0679 1.91949,2.27337 4.14351,5.17012 l 4.04353,5.26334 -1.89738,0.79691 c -3.25841,1.36751 -3.5202,1.44145 -3.68171,0.98993 -0.28107,-0.8251 -2.70544,-12.12762 -2.60828,-12.2193 z m 114.81225,0.45828 -2.51761,0.6129 c -1.384,0.35221 -2.71809,0.76872 -2.96541,0.96286 -0.24617,0.14111 -2.41738,2.8829 -4.82006,5.98835 l -4.36962,5.64263 0.24729,1.86091 0.24729,1.8645 3.98535,2.71728 c 2.19161,1.4944 3.94607,2.85129 3.89641,3.01353 -0.21767,0.72917 -5.58777,7.36749 -5.95823,7.36749 -0.36006,0 -4.86377,-2.91473 -5.72366,-3.69937 -0.18721,-0.14111 0.37136,-1.20179 1.2403,-2.36485 l 1.55271,-2.08294 -1.23996,-0.96171 c -2.01652,-1.55783 -2.85872,-1.90322 -3.22205,-1.31459 -0.15369,0.24617 -1.11749,1.5436 -2.1072,2.82659 l -1.80062,2.33666 0.21767,2.54471 c 0.12742,1.3992 0.39619,2.7279 0.61744,2.94644 0.21767,0.17631 2.07579,1.54369 4.11978,2.94643 2.04466,1.39923 3.89719,2.54458 4.11833,2.54458 0.21767,0.002 1.50929,-0.24617 2.86211,-0.59145 l 2.45859,-0.59263 4.5423,-5.89038 4.54195,-5.89073 -0.12657,-1.8539 -0.12658,-1.8539 -4.09248,-2.80195 c -2.5866,-1.76923 -4.00005,-2.94643 -3.84179,-3.19668 0.83301,-1.31107 5.67387,-7.2956 5.90595,-7.2956 0.36121,0 5.99886,3.80893 6.01579,4.06155 0.008,0.10143 -0.6321,1.00122 -1.4185,1.99839 -0.78903,0.99331 -1.4277,1.96316 -1.41854,2.16406 0.008,0.17631 0.8669,0.9132 1.9073,1.59303 l 1.89442,1.23356 2.07928,-2.69968 c 1.14314,-1.48741 2.08521,-2.87602 2.08836,-3.08757 0.008,-0.17604 -0.0112,-1.46254 -0.0564,-2.78784 l -0.0564,-2.40011 -4.32773,-2.93579 z m -133.88926,4.62503 c 0.0223,0.001 0.0564,0.008 0.0564,0.0112 0.15369,0.0679 1.85379,2.24515 3.75813,4.78422 1.904,2.53759 3.59592,4.77594 3.75936,4.97539 0.18721,0.24617 -0.70096,1.02945 -2.45192,2.18522 -1.51223,1.00119 -2.94979,1.93842 -3.19317,2.07942 -0.28107,0.1411 -0.76078,-0.14111 -1.31537,-0.84209 -2.47698,-3.13312 -6.37619,-8.37366 -6.55127,-8.80229 -0.21767,-0.5181 5.11312,-4.43762 5.92785,-4.40242 z"
           id="path1001"
           inkscape:connector-curvature="0" />
      </g>
      <g
         id="g1891"
         style="stroke-width:0.0699343;stroke-miterlimit:4;stroke-dasharray:none"
         transform="matrix(2.7942087,0,0,2.7942087,-410.97002,-332.01843)">
        <circle
           r="1.2464657"
           cy="20.537777"
           cx="315.41287"
           id="circle1005"
           style="fill:#ffffff;fill-opacity:1;fill-rule:nonzero;stroke:#0d6237;stroke-width:0.0699343;stroke-linecap:round;stroke-linejoin:round;stroke-miterlimit:4;stroke-dasharray:none;stroke-dashoffset:0;stroke-opacity:1;paint-order:normal"
           transform="rotate(33.143069)" />
        <flowRoot
           transform="matrix(0.02009114,0.01545926,-0.01545926,0.02009114,271.67217,212.26884)"
           style="font-style:normal;font-variant:normal;font-weight:normal;font-stretch:normal;font-size:85.3333px;line-height:7.55906px;font-family:'Franklin Gothic Demi Cond';-inkscape-font-specification:'Franklin Gothic Demi Cond';font-variant-ligatures:normal;font-variant-caps:normal;font-variant-numeric:normal;text-align:start;letter-spacing:0px;word-spacing:0px;writing-mode:lr-tb;text-anchor:start;fill:#0d6237;fill-opacity:1;stroke:#0d6237;stroke-width:2.75871;stroke-miterlimit:4;stroke-dasharray:none;stroke-opacity:1"
           id="flowRoot1013"
           xml:space="preserve"><flowRegion
             style="font-style:normal;font-variant:normal;font-weight:normal;font-stretch:normal;font-size:85.3333px;font-family:'Franklin Gothic Demi Cond';-inkscape-font-specification:'Franklin Gothic Demi Cond';fill:#0d6237;fill-opacity:1;stroke:#0d6237;stroke-width:2.75871;stroke-miterlimit:4;stroke-dasharray:none;stroke-opacity:1"
             id="flowRegion1009"><rect
               style="font-style:normal;font-variant:normal;font-weight:normal;font-stretch:normal;font-size:85.33333588px;font-family:'Franklin Gothic Demi Cond';-inkscape-font-specification:'Franklin Gothic Demi Cond';fill:#0d6237;fill-opacity:1;stroke:#0d6237;stroke-opacity:1;stroke-width:2.75870783;stroke-miterlimit:4;stroke-dasharray:none"
               y="-254.84746"
               x="-1157.4916"
               height="65.491524"
               width="74.745766"
               id="rect1007" /></flowRegion><flowPara
             id="flowPara1011">R</flowPara></flowRoot>
      </g>
      <circle
         r="3.5575442"
         cy="4.0754271"
         cx="355.69598"
         id="circle1848"
         style="fill:none;fill-opacity:1;fill-rule:nonzero;stroke:#ffffff;stroke-width:0.0400175;stroke-linecap:round;stroke-linejoin:round;stroke-miterlimit:4;stroke-dasharray:none;stroke-dashoffset:0;stroke-opacity:1;paint-order:normal"
         transform="rotate(33.14307)" />
    </g>
  </g>
</svg>
