<?xml version="1.0" encoding="UTF-8" standalone="no"?>
<svg
   xmlns:dc="http://purl.org/dc/elements/1.1/"
   xmlns:cc="http://creativecommons.org/ns#"
   xmlns:rdf="http://www.w3.org/1999/02/22-rdf-syntax-ns#"
   xmlns:svg="http://www.w3.org/2000/svg"
   xmlns="http://www.w3.org/2000/svg"
   xmlns:sodipodi="http://sodipodi.sourceforge.net/DTD/sodipodi-0.dtd"
   xmlns:inkscape="http://www.inkscape.org/namespaces/inkscape"
   width="99.751854mm"
   height="55.437977mm"
   viewBox="0 0 99.751857 55.437977"
   version="1.1"
   id="svg8"
   inkscape:version="1.0.2-2 (e86c870879, 2021-01-15)"
   sodipodi:docname="Sean-Tierney-Cambridge.svg">
  <defs
     id="defs2">
    <rect
       x="-309.94049"
       y="-240.39285"
       width="645.58331"
       height="360.58929"
       id="rect842" />
    <rect
       x="-364.36905"
       y="-117.17262"
       width="409.7262"
       height="222.25"
       id="rect850" />
    <rect
       x="-591.15479"
       y="-95.25"
       width="541.2619"
       height="124.73214"
       id="rect844" />
    <rect
       x="-341.69049"
       y="-144.3869"
       width="554.86908"
       height="182.18452"
       id="rect838" />
    <rect
       x="-424.84525"
       y="-94.494049"
       width="343.20239"
       height="135.31548"
       id="rect832" />
    <filter
       inkscape:collect="always"
       style="color-interpolation-filters:sRGB"
       id="filter2277"
       x="-0.009036039"
       width="1.0180721"
       y="-0.014517543"
       height="1.0290351">
      <feGaussianBlur
         inkscape:collect="always"
         stdDeviation="0.29163183"
         id="feGaussianBlur2279" />
    </filter>
    <rect
       id="rect2081"
       height="33.446205"
       width="249.52969"
       y="-297.98026"
       x="-198.87129" />
    <rect
       id="rect933"
       height="33.446205"
       width="249.52969"
       y="-297.98026"
       x="-198.87129" />
    <rect
       id="rect2083"
       height="61.216099"
       width="623.1485"
       y="-391.76645"
       x="96.221687" />
    <rect
       id="rect936"
       height="61.216099"
       width="623.1485"
       y="-391.76645"
       x="96.221687" />
    <rect
       x="1129.6389"
       y="-539.51434"
       width="87.953621"
       height="81.074562"
       id="rect2089" />
    <rect
       x="1129.6389"
       y="-539.51434"
       width="87.953621"
       height="81.074562"
       id="rect939" />
    <rect
       id="rect2091"
       height="81.074562"
       width="87.953621"
       y="-539.51434"
       x="1129.6389" />
    <rect
       id="rect942"
       height="81.074562"
       width="87.953621"
       y="-539.51434"
       x="1129.6389" />
  </defs>
  <sodipodi:namedview
     id="base"
     pagecolor="#4f4f4f"
     bordercolor="#666666"
     borderopacity="1.0"
     inkscape:pageopacity="0"
     inkscape:pageshadow="2"
     inkscape:zoom="1.4142136"
     inkscape:cx="-150.73678"
     inkscape:cy="149.56678"
     inkscape:document-units="mm"
     inkscape:current-layer="layer1"
     inkscape:document-rotation="0"
     showgrid="false"
     showborder="true"
     inkscape:window-width="3840"
     inkscape:window-height="2066"
     inkscape:window-x="-11"
     inkscape:window-y="-11"
     inkscape:window-maximized="1"
     fit-margin-top="0"
     fit-margin-left="0"
     fit-margin-right="0"
     fit-margin-bottom="0" />
  <metadata
     id="metadata5">
    <rdf:RDF>
      <cc:Work
         rdf:about="">
        <dc:format>image/svg+xml</dc:format>
        <dc:type
           rdf:resource="http://purl.org/dc/dcmitype/StillImage" />
        <dc:title></dc:title>
      </cc:Work>
    </rdf:RDF>
  </metadata>
  <g
     inkscape:label="Layer 1"
     inkscape:groupmode="layer"
     id="layer1"
     transform="translate(-55.124074,-120.78101)">
    <text
       xml:space="preserve"
       id="text842"
       style="font-weight:900;font-size:10.5833px;line-height:15.875px;font-family:dubai;-inkscape-font-specification:'dubai Heavy';letter-spacing:11.9062px;word-spacing:0px;writing-mode:lr-tb;white-space:pre;shape-inside:url(#rect844);" />
    <g
       id="g1420">
      <rect
         style="opacity:0.877076;fill:#b3b3b3;fill-opacity:1;fill-rule:evenodd;stroke:none;stroke-width:0.0616177;stroke-linecap:round;stroke-linejoin:round;stroke-opacity:1;paint-order:stroke fill markers;filter:url(#filter2277)"
         id="rect2251"
         width="77.458321"
         height="48.211765"
         x="549.40179"
         y="131.6203"
         ry="0.027631754"
         inkscape:export-filename="C:\Users\Matt's PC\Desktop\Campaigns\Joe-McGuirk-Campaign\Graphics\Logos\PNG\joe-mcguirk-logo-16.png"
         inkscape:export-xdpi="350"
         inkscape:export-ydpi="350"
         transform="matrix(1.1080379,0,0,1.1080379,-546.6714,-24.050519)" />
      <rect
         style="fill:#ffffff;fill-opacity:1;fill-rule:evenodd;stroke:none;stroke-width:0.0682746;stroke-linecap:round;stroke-linejoin:round;stroke-opacity:1;paint-order:stroke fill markers"
         id="rect2211"
         width="85.826759"
         height="53.420467"
         x="62.08662"
         y="121.78976"
         ry="0.030617032"
         inkscape:export-filename="C:\Users\Matt's PC\Desktop\Campaigns\Joe-McGuirk-Campaign\Graphics\Logos\PNG\joe-mcguirk-logo-16.png"
         inkscape:export-xdpi="350"
         inkscape:export-ydpi="350" />
      <rect
         inkscape:export-ydpi="350"
         inkscape:export-xdpi="350"
         inkscape:export-filename="C:\Users\Matt's PC\Desktop\Campaigns\Joe-McGuirk-Campaign\Graphics\Logos\PNG\joe-design-20.png"
         y="123.66383"
         x="63.930492"
         height="49.672344"
         width="82.139015"
         id="rect1944"
         style="fill:#073763;fill-opacity:1;fill-rule:evenodd;stroke:none;stroke-width:0.0681701;stroke-linecap:square;stroke-miterlimit:4;stroke-dasharray:none;stroke-opacity:1" />
      <g
         transform="matrix(0.09872151,0,0,0.09872151,63.804925,112.98552)"
         id="g12802">
        <g
           id="g9988"
           style="stroke:none;stroke-width:0.282;stroke-miterlimit:10;stroke-dasharray:none;stroke-opacity:1"
           transform="translate(1.4562987e-6)">
          <path
             d="m 121.51559,541.91711 3.11011,-17.08558 h 11.04027 l -0.52042,2.85537 h -7.96733 l -0.70627,3.88096 h 7.70712 l -0.52042,2.85537 h -7.70712 l -0.85497,4.63851 h 8.56209 l -0.50802,2.85537 z"
             style="font-style:italic;font-variant:normal;font-weight:bold;font-stretch:condensed;font-size:19.3463px;line-height:12.1097px;font-family:Arial;-inkscape-font-specification:'Arial Bold Italic Condensed';font-variant-ligatures:normal;font-variant-caps:normal;font-variant-numeric:normal;text-align:start;letter-spacing:0px;word-spacing:0px;writing-mode:lr-tb;text-anchor:start;fill:#ffffff;fill-opacity:1;stroke:none;stroke-width:0.282;stroke-miterlimit:10;stroke-dasharray:none;stroke-opacity:1"
             id="path966"
             inkscape:connector-curvature="0" />
          <path
             d="m 137.53699,529.53997 h 2.75077 l -0.28498,1.50344 q 1.61081,-1.78315 3.37031,-1.78315 2.35427,0 2.72599,2.1794 0.58237,-0.95567 1.6356,-1.5617 1.05323,-0.6177 2.13123,-0.6177 1.26387,0 2.00732,0.7692 0.74346,0.75755 0.74346,2.12113 0,0.641 -0.285,2.20271 l -1.37538,7.56381 h -2.92425 l 1.37539,-7.56381 q 0.26021,-1.42185 0.26021,-1.60833 0,-0.5361 -0.285,-0.81581 -0.28498,-0.29137 -0.78062,-0.29137 -1.05323,0 -1.8958,1.23538 -0.66911,0.96733 -1.11518,3.41479 l -1.01606,5.62915 h -2.92424 l 1.36299,-7.48223 q 0.23544,-1.29365 0.23544,-1.6666 0,-0.52445 -0.30977,-0.82747 -0.29739,-0.30302 -0.76824,-0.30302 -0.63194,0 -1.31343,0.57108 -0.66911,0.55941 -1.06561,1.64329 -0.23544,0.641 -0.55759,2.37753 l -1.04084,5.68742 h -2.91186 z"
             style="font-style:italic;font-variant:normal;font-weight:bold;font-stretch:condensed;font-size:19.3463px;line-height:12.1097px;font-family:Arial;-inkscape-font-specification:'Arial Bold Italic Condensed';font-variant-ligatures:normal;font-variant-caps:normal;font-variant-numeric:normal;text-align:start;letter-spacing:0px;word-spacing:0px;writing-mode:lr-tb;text-anchor:start;fill:#ffffff;fill-opacity:1;stroke:none;stroke-width:0.282;stroke-miterlimit:10;stroke-dasharray:none;stroke-opacity:1"
             id="path968"
             inkscape:connector-curvature="0" />
          <path
             d="m 153.76904,541.91711 3.11011,-17.08558 h 2.92424 l -1.04083,5.71073 q 0.85496,-0.73423 1.53647,-1.00229 0.68149,-0.27971 1.46211,-0.27971 1.69755,0 2.73839,1.29366 1.04083,1.29365 1.04083,3.83435 0,2.31925 -0.81779,4.18398 -0.80541,1.85307 -2.0321,2.73882 -1.2267,0.88574 -2.49057,0.88574 -2.31709,0 -3.40749,-2.31925 l -0.37173,2.03955 z m 3.9279,-5.04642 q 0,1.27034 0.61955,2.03954 0.63193,0.7692 1.44973,0.7692 0.65671,0 1.30105,-0.5128 0.64432,-0.52445 1.13996,-1.86473 0.49562,-1.35192 0.49562,-2.83205 0,-1.36358 -0.60715,-2.09782 -0.59476,-0.73424 -1.42495,-0.73424 -1.26386,0 -2.11884,1.5384 -0.85497,1.5384 -0.85497,3.6945 z"
             style="font-style:italic;font-variant:normal;font-weight:bold;font-stretch:condensed;font-size:19.3463px;line-height:12.1097px;font-family:Arial;-inkscape-font-specification:'Arial Bold Italic Condensed';font-variant-ligatures:normal;font-variant-caps:normal;font-variant-numeric:normal;text-align:start;letter-spacing:0px;word-spacing:0px;writing-mode:lr-tb;text-anchor:start;fill:#ffffff;fill-opacity:1;stroke:none;stroke-width:0.282;stroke-miterlimit:10;stroke-dasharray:none;stroke-opacity:1"
             id="path970"
             inkscape:connector-curvature="0" />
          <path
             d="m 168.68764,529.53997 h 2.72599 l -0.43367,2.40084 q 1.51168,-2.68055 3.29596,-2.68055 0.61954,0 1.35061,0.34964 l -1.11517,2.73882 q -0.39652,-0.16316 -0.83019,-0.16316 -0.68151,0 -1.27627,0.43121 -0.90452,0.66431 -1.38777,1.73653 -0.48324,1.07222 -0.9541,3.68284 l -0.71867,3.88097 h -2.91186 z"
             style="font-style:italic;font-variant:normal;font-weight:bold;font-stretch:condensed;font-size:19.3463px;line-height:12.1097px;font-family:Arial;-inkscape-font-specification:'Arial Bold Italic Condensed';font-variant-ligatures:normal;font-variant-caps:normal;font-variant-numeric:normal;text-align:start;letter-spacing:0px;word-spacing:0px;writing-mode:lr-tb;text-anchor:start;fill:#ffffff;fill-opacity:1;stroke:none;stroke-width:0.282;stroke-miterlimit:10;stroke-dasharray:none;stroke-opacity:1"
             id="path972"
             inkscape:connector-curvature="0" />
          <path
             d="m 178.7986,533.04799 -2.84991,-0.27971 q 0.50803,-1.71322 1.75951,-2.61062 1.25148,-0.8974 3.17207,-0.8974 1.95775,0 3.01097,0.92071 1.05323,0.90906 1.05323,2.42415 0,0.53611 -0.0867,1.14215 -0.0744,0.60603 -0.59477,3.30989 -0.43369,2.22602 -0.43369,3.11176 0,0.80417 0.23543,1.74819 h -2.82512 q -0.17347,-0.67597 -0.21064,-1.39855 -0.64432,0.81582 -1.48691,1.24704 -0.83019,0.43121 -1.66038,0.43121 -1.31343,0 -2.20557,-0.97898 -0.89214,-0.97898 -0.89214,-2.61062 0,-1.87638 1.01605,-2.89033 1.00366,-1.01394 3.37032,-1.22372 2.08167,-0.19813 2.78794,-0.47784 0.18587,-0.71093 0.18587,-1.13049 0,-0.55942 -0.4089,-0.8974 -0.39651,-0.34964 -1.0904,-0.34964 -1.51168,0 -1.84623,1.4102 z m 2.77555,3.10011 q -0.2726,0.0816 -0.70628,0.15151 -2.04449,0.27971 -2.70121,0.75755 -0.64432,0.46618 -0.64432,1.25869 0,0.61769 0.37172,1.00229 0.38412,0.3846 0.96649,0.3846 0.60715,0 1.16474,-0.31467 0.55759,-0.32633 0.89214,-0.8974 0.33456,-0.58273 0.56999,-1.89969 z"
             style="font-style:italic;font-variant:normal;font-weight:bold;font-stretch:condensed;font-size:19.3463px;line-height:12.1097px;font-family:Arial;-inkscape-font-specification:'Arial Bold Italic Condensed';font-variant-ligatures:normal;font-variant-caps:normal;font-variant-numeric:normal;text-align:start;letter-spacing:0px;word-spacing:0px;writing-mode:lr-tb;text-anchor:start;fill:#ffffff;fill-opacity:1;stroke:none;stroke-width:0.282;stroke-miterlimit:10;stroke-dasharray:none;stroke-opacity:1"
             id="path974"
             inkscape:connector-curvature="0" />
          <path
             d="m 193.5933,537.25528 2.82511,0.52446 q -0.70627,2.21436 -2.09405,3.32155 -1.37538,1.09552 -3.14728,1.09552 -2.00732,0 -3.24641,-1.37523 -1.23908,-1.37524 -1.23908,-3.90428 0,-2.27263 0.83019,-4.04413 0.84257,-1.78314 2.26752,-2.6922 1.43734,-0.92071 3.06054,-0.92071 1.83385,0 3.01098,1.09553 1.17714,1.09553 1.32583,3.04184 l -2.77556,0.33798 q -0.19825,-2.01624 -1.73472,-2.01624 -0.70628,0 -1.38777,0.54777 -0.68151,0.54776 -1.20192,1.95796 -0.50803,1.4102 -0.50803,3.0768 0,1.10719 0.47085,1.70157 0.48325,0.58273 1.15236,0.58273 0.70628,0 1.3506,-0.55942 0.65672,-0.57108 1.04084,-1.7715 z"
             style="font-style:italic;font-variant:normal;font-weight:bold;font-stretch:condensed;font-size:19.3463px;line-height:12.1097px;font-family:Arial;-inkscape-font-specification:'Arial Bold Italic Condensed';font-variant-ligatures:normal;font-variant-caps:normal;font-variant-numeric:normal;text-align:start;letter-spacing:0px;word-spacing:0px;writing-mode:lr-tb;text-anchor:start;fill:#ffffff;fill-opacity:1;stroke:none;stroke-width:0.282;stroke-miterlimit:10;stroke-dasharray:none;stroke-opacity:1"
             id="path976"
             inkscape:connector-curvature="0" />
          <path
             d="m 200.99065,524.83153 h 2.92424 l -0.55758,3.03019 h -2.91186 z m -0.85497,4.70844 h 2.91186 l -2.25514,12.37714 h -2.91186 z"
             style="font-style:italic;font-variant:normal;font-weight:bold;font-stretch:condensed;font-size:19.3463px;line-height:12.1097px;font-family:Arial;-inkscape-font-specification:'Arial Bold Italic Condensed';font-variant-ligatures:normal;font-variant-caps:normal;font-variant-numeric:normal;text-align:start;letter-spacing:0px;word-spacing:0px;writing-mode:lr-tb;text-anchor:start;fill:#ffffff;fill-opacity:1;stroke:none;stroke-width:0.282;stroke-miterlimit:10;stroke-dasharray:none;stroke-opacity:1"
             id="path978"
             inkscape:connector-curvature="0" />
          <path
             d="m 205.95938,529.53997 h 2.76317 l -0.28498,1.60833 q 1.07799,-1.06056 1.97014,-1.46847 0.90453,-0.41957 1.85863,-0.41957 1.30104,0 2.08167,0.85079 0.78062,0.85078 0.78062,2.33091 0,0.641 -0.32217,2.45911 l -1.27626,7.01604 h -2.92424 l 1.28866,-7.01604 q 0.28498,-1.57337 0.28498,-1.88804 0,-0.66431 -0.34695,-1.01395 -0.33455,-0.36129 -0.87974,-0.36129 -0.59477,0 -1.21431,0.44287 -0.89214,0.62935 -1.32583,1.50344 -0.43367,0.86244 -0.86736,3.25162 l -0.92931,5.08139 h -2.91186 z"
             style="font-style:italic;font-variant:normal;font-weight:bold;font-stretch:condensed;font-size:19.3463px;line-height:12.1097px;font-family:Arial;-inkscape-font-specification:'Arial Bold Italic Condensed';font-variant-ligatures:normal;font-variant-caps:normal;font-variant-numeric:normal;text-align:start;letter-spacing:0px;word-spacing:0px;writing-mode:lr-tb;text-anchor:start;fill:#ffffff;fill-opacity:1;stroke:none;stroke-width:0.282;stroke-miterlimit:10;stroke-dasharray:none;stroke-opacity:1"
             id="path980"
             inkscape:connector-curvature="0" />
          <path
             d="m 216.24381,542.56976 3.08532,0.5128 q 0,0.74589 0.38412,1.10718 0.39651,0.3613 1.18953,0.3613 0.78061,0 1.26386,-0.29137 0.49564,-0.27971 0.76824,-0.85078 0.27259,-0.57107 0.55759,-2.3076 l 0.0867,-0.58273 q -1.49929,1.44516 -3.11011,1.44516 -1.57363,0 -2.60207,-1.25869 -1.02845,-1.25869 -1.02845,-3.77607 0,-2.38919 0.75585,-4.16068 0.75584,-1.78314 1.95775,-2.64558 1.21431,-0.86244 2.46579,-0.86244 1.05322,0 1.94536,0.641 0.90453,0.62935 1.42495,1.82977 l 0.39652,-2.19106 h 2.73838 l -1.87102,10.31428 q -0.55759,3.01853 -0.97889,4.16067 -0.58236,1.56171 -1.70994,2.23768 -1.12757,0.68762 -3.11011,0.68762 -2.31709,0 -3.34553,-0.80417 -1.28866,-1.00229 -1.28866,-3.05349 z m 3.44466,-5.97878 q 0,1.4102 0.63194,2.24932 0.48324,0.641 1.30103,0.641 0.66911,0 1.32583,-0.52445 0.6691,-0.52445 1.15234,-1.72487 0.48325,-1.21208 0.48325,-2.62228 0,-1.37523 -0.63193,-2.16774 -0.61954,-0.80417 -1.42495,-0.80417 -0.61954,0 -1.2267,0.50115 -0.59475,0.48949 -1.10279,1.82976 -0.50802,1.34028 -0.50802,2.62228 z"
             style="font-style:italic;font-variant:normal;font-weight:bold;font-stretch:condensed;font-size:19.3463px;line-height:12.1097px;font-family:Arial;-inkscape-font-specification:'Arial Bold Italic Condensed';font-variant-ligatures:normal;font-variant-caps:normal;font-variant-numeric:normal;text-align:start;letter-spacing:0px;word-spacing:0px;writing-mode:lr-tb;text-anchor:start;fill:#ffffff;fill-opacity:1;stroke:none;stroke-width:0.282;stroke-miterlimit:10;stroke-dasharray:none;stroke-opacity:1"
             id="path982"
             inkscape:connector-curvature="0" />
          <path
             d="m 229.78704,538.6888 h 2.93664 l -0.48325,2.66889 q -0.42129,2.34256 -1.3506,3.28658 -0.92932,0.94402 -2.36666,0.97898 l 0.28499,-1.55005 q 0.71867,-0.18647 1.12756,-0.66431 0.4089,-0.47784 0.60716,-1.49178 h -1.3506 z"
             style="font-style:italic;font-variant:normal;font-weight:bold;font-stretch:condensed;font-size:19.3463px;line-height:12.1097px;font-family:Arial;-inkscape-font-specification:'Arial Bold Italic Condensed';font-variant-ligatures:normal;font-variant-caps:normal;font-variant-numeric:normal;text-align:start;letter-spacing:0px;word-spacing:0px;writing-mode:lr-tb;text-anchor:start;fill:#ffffff;fill-opacity:1;stroke:none;stroke-width:0.282;stroke-miterlimit:10;stroke-dasharray:none;stroke-opacity:1"
             id="path984"
             inkscape:connector-curvature="0" />
          <path
             d="m 251.24803,536.76579 h -7.32302 v 0.31468 q 0,1.24703 0.61954,1.99293 0.61956,0.74589 1.48691,0.74589 1.43735,0 2.26754,-1.72488 l 2.61446,0.50115 q -0.76823,1.80645 -2.04449,2.70385 -1.27626,0.8974 -2.86229,0.8974 -2.10645,0 -3.50661,-1.5384 -1.38778,-1.55005 -1.38778,-4.19563 0,-2.85537 1.58603,-5.02312 1.58603,-2.1794 4.43594,-2.1794 1.92058,0 3.11011,1.37524 1.20191,1.36358 1.20191,3.95089 0,1.22373 -0.19825,2.1794 z m -2.46579,-2.03954 0.0118,-0.32633 q 0,-1.4102 -0.55759,-2.08616 -0.5452,-0.67597 -1.42495,-0.67597 -0.89214,0 -1.6232,0.78086 -0.71867,0.78085 -0.96649,2.3076 z"
             style="font-style:italic;font-variant:normal;font-weight:bold;font-stretch:condensed;font-size:19.3463px;line-height:12.1097px;font-family:Arial;-inkscape-font-specification:'Arial Bold Italic Condensed';font-variant-ligatures:normal;font-variant-caps:normal;font-variant-numeric:normal;text-align:start;letter-spacing:0px;word-spacing:0px;writing-mode:lr-tb;text-anchor:start;fill:#ffffff;fill-opacity:1;stroke:none;stroke-width:0.282;stroke-miterlimit:10;stroke-dasharray:none;stroke-opacity:1"
             id="path986"
             inkscape:connector-curvature="0" />
          <path
             d="m 254.63073,529.53997 h 2.76317 l -0.28498,1.60833 q 1.07799,-1.06056 1.97014,-1.46847 0.90453,-0.41957 1.85863,-0.41957 1.30104,0 2.08167,0.85079 0.78062,0.85078 0.78062,2.33091 0,0.641 -0.32217,2.45911 l -1.27626,7.01604 h -2.92424 l 1.28866,-7.01604 q 0.28498,-1.57337 0.28498,-1.88804 0,-0.66431 -0.34695,-1.01395 -0.33455,-0.36129 -0.87974,-0.36129 -0.59477,0 -1.21431,0.44287 -0.89214,0.62935 -1.32583,1.50344 -0.43367,0.86244 -0.86736,3.25162 l -0.92931,5.08139 h -2.91186 z"
             style="font-style:italic;font-variant:normal;font-weight:bold;font-stretch:condensed;font-size:19.3463px;line-height:12.1097px;font-family:Arial;-inkscape-font-specification:'Arial Bold Italic Condensed';font-variant-ligatures:normal;font-variant-caps:normal;font-variant-numeric:normal;text-align:start;letter-spacing:0px;word-spacing:0px;writing-mode:lr-tb;text-anchor:start;fill:#ffffff;fill-opacity:1;stroke:none;stroke-width:0.282;stroke-miterlimit:10;stroke-dasharray:none;stroke-opacity:1"
             id="path988"
             inkscape:connector-curvature="0" />
          <path
             d="m 268.02527,541.91711 h -2.91186 l 3.11011,-17.08558 h 2.92424 l -1.11517,6.08368 q 1.04084,-0.93236 1.8958,-1.29366 0.85497,-0.36129 1.7719,-0.36129 1.27626,0 2.05688,0.83913 0.78062,0.83913 0.78062,2.3076 0,0.73424 -0.28498,2.27264 l -1.32583,7.23748 h -2.91186 l 1.35061,-7.37734 q 0.21064,-1.20041 0.21064,-1.5384 0,-0.641 -0.34694,-1.00229 -0.34695,-0.36129 -0.90454,-0.36129 -0.73106,0 -1.38778,0.57108 -0.90452,0.78085 -1.3506,1.923 -0.24781,0.61769 -0.65672,2.87867 z"
             style="font-style:italic;font-variant:normal;font-weight:bold;font-stretch:condensed;font-size:19.3463px;line-height:12.1097px;font-family:Arial;-inkscape-font-specification:'Arial Bold Italic Condensed';font-variant-ligatures:normal;font-variant-caps:normal;font-variant-numeric:normal;text-align:start;letter-spacing:0px;word-spacing:0px;writing-mode:lr-tb;text-anchor:start;fill:#ffffff;fill-opacity:1;stroke:none;stroke-width:0.282;stroke-miterlimit:10;stroke-dasharray:none;stroke-opacity:1"
             id="path990"
             inkscape:connector-curvature="0" />
          <path
             d="m 281.94021,533.04799 -2.84991,-0.27971 q 0.50804,-1.71322 1.75952,-2.61062 1.25147,-0.8974 3.17206,-0.8974 1.95775,0 3.01098,0.92071 1.05322,0.90906 1.05322,2.42415 0,0.53611 -0.0867,1.14215 -0.0744,0.60603 -0.59477,3.30989 -0.43367,2.22602 -0.43367,3.11176 0,0.80417 0.23542,1.74819 h -2.82513 q -0.17347,-0.67597 -0.21063,-1.39855 -0.64433,0.81582 -1.48691,1.24704 -0.83018,0.43121 -1.66037,0.43121 -1.31343,0 -2.20559,-0.97898 -0.89214,-0.97898 -0.89214,-2.61062 0,-1.87638 1.01606,-2.89033 1.00366,-1.01394 3.37031,-1.22372 2.08167,-0.19813 2.78795,-0.47784 0.18586,-0.71093 0.18586,-1.13049 0,-0.55942 -0.4089,-0.8974 -0.3965,-0.34964 -1.09039,-0.34964 -1.51169,0 -1.84624,1.4102 z m 2.77556,3.10011 q -0.2726,0.0816 -0.70629,0.15151 -2.04449,0.27971 -2.70121,0.75755 -0.64432,0.46618 -0.64432,1.25869 0,0.61769 0.37172,1.00229 0.38412,0.3846 0.96649,0.3846 0.60716,0 1.16475,-0.31467 0.55758,-0.32633 0.89214,-0.8974 0.33455,-0.58273 0.56998,-1.89969 z"
             style="font-style:italic;font-variant:normal;font-weight:bold;font-stretch:condensed;font-size:19.3463px;line-height:12.1097px;font-family:Arial;-inkscape-font-specification:'Arial Bold Italic Condensed';font-variant-ligatures:normal;font-variant-caps:normal;font-variant-numeric:normal;text-align:start;letter-spacing:0px;word-spacing:0px;writing-mode:lr-tb;text-anchor:start;fill:#ffffff;fill-opacity:1;stroke:none;stroke-width:0.282;stroke-miterlimit:10;stroke-dasharray:none;stroke-opacity:1"
             id="path992"
             inkscape:connector-curvature="0" />
          <path
             d="m 291.70421,529.53997 h 2.76316 l -0.28498,1.60833 q 1.07801,-1.06056 1.97015,-1.46847 0.90454,-0.41957 1.85863,-0.41957 1.30103,0 2.08167,0.85079 0.78062,0.85078 0.78062,2.33091 0,0.641 -0.32216,2.45911 l -1.27627,7.01604 h -2.92424 l 1.28865,-7.01604 q 0.28498,-1.57337 0.28498,-1.88804 0,-0.66431 -0.34693,-1.01395 -0.33456,-0.36129 -0.87976,-0.36129 -0.59476,0 -1.2143,0.44287 -0.89214,0.62935 -1.32583,1.50344 -0.43367,0.86244 -0.86736,3.25162 l -0.92932,5.08139 h -2.91184 z"
             style="font-style:italic;font-variant:normal;font-weight:bold;font-stretch:condensed;font-size:19.3463px;line-height:12.1097px;font-family:Arial;-inkscape-font-specification:'Arial Bold Italic Condensed';font-variant-ligatures:normal;font-variant-caps:normal;font-variant-numeric:normal;text-align:start;letter-spacing:0px;word-spacing:0px;writing-mode:lr-tb;text-anchor:start;fill:#ffffff;fill-opacity:1;stroke:none;stroke-width:0.282;stroke-miterlimit:10;stroke-dasharray:none;stroke-opacity:1"
             id="path994"
             inkscape:connector-curvature="0" />
          <path
             d="m 309.47273,537.25528 2.82511,0.52446 q -0.70627,2.21436 -2.09405,3.32155 -1.37538,1.09552 -3.14728,1.09552 -2.00732,0 -3.24641,-1.37523 -1.23908,-1.37524 -1.23908,-3.90428 0,-2.27263 0.83019,-4.04413 0.84257,-1.78314 2.26752,-2.6922 1.43735,-0.92071 3.06055,-0.92071 1.83385,0 3.01099,1.09553 1.17713,1.09553 1.32581,3.04184 l -2.77556,0.33798 q -0.19825,-2.01624 -1.73471,-2.01624 -0.70628,0 -1.38778,0.54777 -0.68151,0.54776 -1.20191,1.95796 -0.50803,1.4102 -0.50803,3.0768 0,1.10719 0.47086,1.70157 0.48324,0.58273 1.15234,0.58273 0.70628,0 1.3506,-0.55942 0.65672,-0.57108 1.04084,-1.7715 z"
             style="font-style:italic;font-variant:normal;font-weight:bold;font-stretch:condensed;font-size:19.3463px;line-height:12.1097px;font-family:Arial;-inkscape-font-specification:'Arial Bold Italic Condensed';font-variant-ligatures:normal;font-variant-caps:normal;font-variant-numeric:normal;text-align:start;letter-spacing:0px;word-spacing:0px;writing-mode:lr-tb;text-anchor:start;fill:#ffffff;fill-opacity:1;stroke:none;stroke-width:0.282;stroke-miterlimit:10;stroke-dasharray:none;stroke-opacity:1"
             id="path996"
             inkscape:connector-curvature="0" />
          <path
             d="m 316.87008,524.83153 h 2.92424 l -0.55759,3.03019 h -2.91185 z m -0.85497,4.70844 h 2.91185 l -2.25513,12.37714 h -2.91186 z"
             style="font-style:italic;font-variant:normal;font-weight:bold;font-stretch:condensed;font-size:19.3463px;line-height:12.1097px;font-family:Arial;-inkscape-font-specification:'Arial Bold Italic Condensed';font-variant-ligatures:normal;font-variant-caps:normal;font-variant-numeric:normal;text-align:start;letter-spacing:0px;word-spacing:0px;writing-mode:lr-tb;text-anchor:start;fill:#ffffff;fill-opacity:1;stroke:none;stroke-width:0.282;stroke-miterlimit:10;stroke-dasharray:none;stroke-opacity:1"
             id="path998"
             inkscape:connector-curvature="0" />
          <path
             d="m 321.83883,529.53997 h 2.76316 l -0.28499,1.60833 q 1.078,-1.06056 1.97014,-1.46847 0.90454,-0.41957 1.85863,-0.41957 1.30105,0 2.08167,0.85079 0.78063,0.85078 0.78063,2.33091 0,0.641 -0.32216,2.45911 l -1.27626,7.01604 h -2.92425 l 1.28865,-7.01604 q 0.28499,-1.57337 0.28499,-1.88804 0,-0.66431 -0.34694,-1.01395 -0.33455,-0.36129 -0.87976,-0.36129 -0.59475,0 -1.21431,0.44287 -0.89214,0.62935 -1.32581,1.50344 -0.43369,0.86244 -0.86736,3.25162 l -0.92932,5.08139 h -2.91185 z"
             style="font-style:italic;font-variant:normal;font-weight:bold;font-stretch:condensed;font-size:19.3463px;line-height:12.1097px;font-family:Arial;-inkscape-font-specification:'Arial Bold Italic Condensed';font-variant-ligatures:normal;font-variant-caps:normal;font-variant-numeric:normal;text-align:start;letter-spacing:0px;word-spacing:0px;writing-mode:lr-tb;text-anchor:start;fill:#ffffff;fill-opacity:1;stroke:none;stroke-width:0.282;stroke-miterlimit:10;stroke-dasharray:none;stroke-opacity:1"
             id="path1000"
             inkscape:connector-curvature="0" />
          <path
             d="m 332.12323,542.56976 3.08533,0.5128 q 0,0.74589 0.38412,1.10718 0.39651,0.3613 1.18953,0.3613 0.78062,0 1.26386,-0.29137 0.49564,-0.27971 0.76824,-0.85078 0.27259,-0.57107 0.55759,-2.3076 l 0.0867,-0.58273 q -1.49929,1.44516 -3.11011,1.44516 -1.57363,0 -2.60208,-1.25869 -1.02844,-1.25869 -1.02844,-3.77607 0,-2.38919 0.75584,-4.16068 0.75584,-1.78314 1.95776,-2.64558 1.21431,-0.86244 2.46578,-0.86244 1.05323,0 1.94537,0.641 0.90453,0.62935 1.42495,1.82977 l 0.3965,-2.19106 h 2.73839 l -1.87103,10.31428 q -0.55757,3.01853 -0.97887,4.16067 -0.58236,1.56171 -1.70994,2.23768 -1.12757,0.68762 -3.11011,0.68762 -2.31709,0 -3.34553,-0.80417 -1.28866,-1.00229 -1.28866,-3.05349 z m 3.44467,-5.97878 q 0,1.4102 0.63194,2.24932 0.48324,0.641 1.30103,0.641 0.66912,0 1.32583,-0.52445 0.6691,-0.52445 1.15234,-1.72487 0.48325,-1.21208 0.48325,-2.62228 0,-1.37523 -0.63193,-2.16774 -0.61955,-0.80417 -1.42495,-0.80417 -0.61954,0 -1.2267,0.50115 -0.59477,0.48949 -1.10279,1.82976 -0.50802,1.34028 -0.50802,2.62228 z"
             style="font-style:italic;font-variant:normal;font-weight:bold;font-stretch:condensed;font-size:19.3463px;line-height:12.1097px;font-family:Arial;-inkscape-font-specification:'Arial Bold Italic Condensed';font-variant-ligatures:normal;font-variant-caps:normal;font-variant-numeric:normal;text-align:start;letter-spacing:0px;word-spacing:0px;writing-mode:lr-tb;text-anchor:start;fill:#ffffff;fill-opacity:1;stroke:none;stroke-width:0.282;stroke-miterlimit:10;stroke-dasharray:none;stroke-opacity:1"
             id="path1002"
             inkscape:connector-curvature="0" />
          <path
             d="m 354.94724,533.04799 -2.8499,-0.27971 q 0.50802,-1.71322 1.7595,-2.61062 1.25148,-0.8974 3.17206,-0.8974 1.95776,0 3.01098,0.92071 1.05323,0.90906 1.05323,2.42415 0,0.53611 -0.0867,1.14215 -0.0744,0.60603 -0.59476,3.30989 -0.43368,2.22602 -0.43368,3.11176 0,0.80417 0.23542,1.74819 h -2.82511 q -0.17348,-0.67597 -0.21065,-1.39855 -0.64432,0.81582 -1.4869,1.24704 -0.83019,0.43121 -1.66038,0.43121 -1.31343,0 -2.20557,-0.97898 -0.89214,-0.97898 -0.89214,-2.61062 0,-1.87638 1.01604,-2.89033 1.00366,-1.01394 3.37032,-1.22372 2.08167,-0.19813 2.78794,-0.47784 0.18587,-0.71093 0.18587,-1.13049 0,-0.55942 -0.40889,-0.8974 -0.39652,-0.34964 -1.09041,-0.34964 -1.51168,0 -1.84623,1.4102 z m 2.77555,3.10011 q -0.2726,0.0816 -0.70628,0.15151 -2.04449,0.27971 -2.70121,0.75755 -0.64433,0.46618 -0.64433,1.25869 0,0.61769 0.37174,1.00229 0.38411,0.3846 0.96648,0.3846 0.60715,0 1.16474,-0.31467 0.55759,-0.32633 0.89214,-0.8974 0.33456,-0.58273 0.56999,-1.89969 z"
             style="font-style:italic;font-variant:normal;font-weight:bold;font-stretch:condensed;font-size:19.3463px;line-height:12.1097px;font-family:Arial;-inkscape-font-specification:'Arial Bold Italic Condensed';font-variant-ligatures:normal;font-variant-caps:normal;font-variant-numeric:normal;text-align:start;letter-spacing:0px;word-spacing:0px;writing-mode:lr-tb;text-anchor:start;fill:#ffffff;fill-opacity:1;stroke:none;stroke-width:0.282;stroke-miterlimit:10;stroke-dasharray:none;stroke-opacity:1"
             id="path1004"
             inkscape:connector-curvature="0" />
          <path
             d="m 364.71124,529.53997 h 2.76316 l -0.28499,1.60833 q 1.07801,-1.06056 1.97015,-1.46847 0.90453,-0.41957 1.85862,-0.41957 1.30105,0 2.08167,0.85079 0.78064,0.85078 0.78064,2.33091 0,0.641 -0.32217,2.45911 l -1.27626,7.01604 h -2.92425 l 1.28865,-7.01604 q 0.285,-1.57337 0.285,-1.88804 0,-0.66431 -0.34695,-1.01395 -0.33455,-0.36129 -0.87976,-0.36129 -0.59475,0 -1.21429,0.44287 -0.89215,0.62935 -1.32583,1.50344 -0.43369,0.86244 -0.86736,3.25162 l -0.92931,5.08139 h -2.91186 z"
             style="font-style:italic;font-variant:normal;font-weight:bold;font-stretch:condensed;font-size:19.3463px;line-height:12.1097px;font-family:Arial;-inkscape-font-specification:'Arial Bold Italic Condensed';font-variant-ligatures:normal;font-variant-caps:normal;font-variant-numeric:normal;text-align:start;letter-spacing:0px;word-spacing:0px;writing-mode:lr-tb;text-anchor:start;fill:#ffffff;fill-opacity:1;stroke:none;stroke-width:0.282;stroke-miterlimit:10;stroke-dasharray:none;stroke-opacity:1"
             id="path1006"
             inkscape:connector-curvature="0" />
          <path
             d="m 385.1314,541.91711 h -2.76316 l 0.24782,-1.34028 q -0.81781,0.8974 -1.59843,1.25869 -0.76823,0.36129 -1.68515,0.36129 -1.66038,0 -2.71361,-1.29365 -1.05322,-1.29365 -1.05322,-3.89262 0,-3.06515 1.49929,-5.40771 1.4993,-2.34257 3.84117,-2.34257 2.1684,0 3.2588,1.96962 l 1.16474,-6.39835 h 2.91186 z m -6.72825,-5.03477 q 0,1.35193 0.58238,2.08616 0.59475,0.73424 1.43734,0.73424 0.69389,0 1.3506,-0.50114 0.65672,-0.5128 1.13996,-1.79481 0.49564,-1.282 0.49564,-2.64558 0,-1.39854 -0.63193,-2.21436 -0.63194,-0.82748 -1.44974,-0.82748 -0.63193,0 -1.28865,0.53611 -0.65672,0.52446 -1.15235,1.85308 -0.48325,1.31696 -0.48325,2.77378 z"
             style="font-style:italic;font-variant:normal;font-weight:bold;font-stretch:condensed;font-size:19.3463px;line-height:12.1097px;font-family:Arial;-inkscape-font-specification:'Arial Bold Italic Condensed';font-variant-ligatures:normal;font-variant-caps:normal;font-variant-numeric:normal;text-align:start;letter-spacing:0px;word-spacing:0px;writing-mode:lr-tb;text-anchor:start;fill:#ffffff;fill-opacity:1;stroke:none;stroke-width:0.282;stroke-miterlimit:10;stroke-dasharray:none;stroke-opacity:1"
             id="path1008"
             inkscape:connector-curvature="0" />
          <path
             d="m 401.01649,537.25528 2.82512,0.52446 q -0.70628,2.21436 -2.09406,3.32155 -1.37538,1.09552 -3.14728,1.09552 -2.00732,0 -3.2464,-1.37523 -1.23909,-1.37524 -1.23909,-3.90428 0,-2.27263 0.83019,-4.04413 0.84257,-1.78314 2.26752,-2.6922 1.43735,-0.92071 3.06056,-0.92071 1.83384,0 3.01098,1.09553 1.17713,1.09553 1.32581,3.04184 l -2.77554,0.33798 q -0.19827,-2.01624 -1.73473,-2.01624 -0.70628,0 -1.38778,0.54777 -0.68149,0.54776 -1.20191,1.95796 -0.50803,1.4102 -0.50803,3.0768 0,1.10719 0.47086,1.70157 0.48324,0.58273 1.15234,0.58273 0.70629,0 1.35061,-0.55942 0.65671,-0.57108 1.04083,-1.7715 z"
             style="font-style:italic;font-variant:normal;font-weight:bold;font-stretch:condensed;font-size:19.3463px;line-height:12.1097px;font-family:Arial;-inkscape-font-specification:'Arial Bold Italic Condensed';font-variant-ligatures:normal;font-variant-caps:normal;font-variant-numeric:normal;text-align:start;letter-spacing:0px;word-spacing:0px;writing-mode:lr-tb;text-anchor:start;fill:#ffffff;fill-opacity:1;stroke:none;stroke-width:0.282;stroke-miterlimit:10;stroke-dasharray:none;stroke-opacity:1"
             id="path1010"
             inkscape:connector-curvature="0" />
          <path
             d="m 415.79879,536.76579 h -7.323 v 0.31468 q 0,1.24703 0.61954,1.99293 0.61955,0.74589 1.48691,0.74589 1.43735,0 2.26754,-1.72488 l 2.61446,0.50115 q -0.76823,1.80645 -2.04449,2.70385 -1.27626,0.8974 -2.86229,0.8974 -2.10645,0 -3.50662,-1.5384 -1.38778,-1.55005 -1.38778,-4.19563 0,-2.85537 1.58604,-5.02312 1.58603,-2.1794 4.43593,-2.1794 1.92059,0 3.1101,1.37524 1.20193,1.36358 1.20193,3.95089 0,1.22373 -0.19827,2.1794 z m -2.46577,-2.03954 0.0118,-0.32633 q 0,-1.4102 -0.5576,-2.08616 -0.54519,-0.67597 -1.42494,-0.67597 -0.89215,0 -1.6232,0.78086 -0.71868,0.78085 -0.96649,2.3076 z"
             style="font-style:italic;font-variant:normal;font-weight:bold;font-stretch:condensed;font-size:19.3463px;line-height:12.1097px;font-family:Arial;-inkscape-font-specification:'Arial Bold Italic Condensed';font-variant-ligatures:normal;font-variant-caps:normal;font-variant-numeric:normal;text-align:start;letter-spacing:0px;word-spacing:0px;writing-mode:lr-tb;text-anchor:start;fill:#ffffff;fill-opacity:1;stroke:none;stroke-width:0.282;stroke-miterlimit:10;stroke-dasharray:none;stroke-opacity:1"
             id="path1012"
             inkscape:connector-curvature="0" />
          <path
             d="m 416.8768,541.91711 3.11011,-17.08558 h 2.92424 l -3.12249,17.08558 z"
             style="font-style:italic;font-variant:normal;font-weight:bold;font-stretch:condensed;font-size:19.3463px;line-height:12.1097px;font-family:Arial;-inkscape-font-specification:'Arial Bold Italic Condensed';font-variant-ligatures:normal;font-variant-caps:normal;font-variant-numeric:normal;text-align:start;letter-spacing:0px;word-spacing:0px;writing-mode:lr-tb;text-anchor:start;fill:#ffffff;fill-opacity:1;stroke:none;stroke-width:0.282;stroke-miterlimit:10;stroke-dasharray:none;stroke-opacity:1"
             id="path1014"
             inkscape:connector-curvature="0" />
          <path
             d="m 433.19559,536.76579 h -7.32301 v 0.31468 q 0,1.24703 0.61954,1.99293 0.61954,0.74589 1.4869,0.74589 1.43735,0 2.26754,-1.72488 l 2.61447,0.50115 q -0.76824,1.80645 -2.0445,2.70385 -1.27625,0.8974 -2.86228,0.8974 -2.10645,0 -3.50663,-1.5384 -1.38776,-1.55005 -1.38776,-4.19563 0,-2.85537 1.58603,-5.02312 1.58603,-2.1794 4.43592,-2.1794 1.92059,0 3.11012,1.37524 1.20191,1.36358 1.20191,3.95089 0,1.22373 -0.19825,2.1794 z m -2.46579,-2.03954 0.0118,-0.32633 q 0,-1.4102 -0.55758,-2.08616 -0.54521,-0.67597 -1.42495,-0.67597 -0.89214,0 -1.6232,0.78086 -0.71867,0.78085 -0.96649,2.3076 z"
             style="font-style:italic;font-variant:normal;font-weight:bold;font-stretch:condensed;font-size:19.3463px;line-height:12.1097px;font-family:Arial;-inkscape-font-specification:'Arial Bold Italic Condensed';font-variant-ligatures:normal;font-variant-caps:normal;font-variant-numeric:normal;text-align:start;letter-spacing:0px;word-spacing:0px;writing-mode:lr-tb;text-anchor:start;fill:#ffffff;fill-opacity:1;stroke:none;stroke-width:0.282;stroke-miterlimit:10;stroke-dasharray:none;stroke-opacity:1"
             id="path1016"
             inkscape:connector-curvature="0" />
          <path
             d="m 434.19924,541.91711 3.11011,-17.08558 h 2.92425 l -1.04083,5.71073 q 0.85496,-0.73423 1.53646,-1.00229 0.6815,-0.27971 1.46212,-0.27971 1.69755,0 2.73839,1.29366 1.04083,1.29365 1.04083,3.83435 0,2.31925 -0.8178,4.18398 -0.8054,1.85307 -2.0321,2.73882 -1.22669,0.88574 -2.49057,0.88574 -2.31709,0 -3.40748,-2.31925 l -0.37174,2.03955 z m 3.92791,-5.04642 q 0,1.27034 0.61955,2.03954 0.63192,0.7692 1.44973,0.7692 0.65671,0 1.30103,-0.5128 0.64432,-0.52445 1.13996,-1.86473 0.49564,-1.35192 0.49564,-2.83205 0,-1.36358 -0.60716,-2.09782 -0.59475,-0.73424 -1.42494,-0.73424 -1.26387,0 -2.11884,1.5384 -0.85497,1.5384 -0.85497,3.6945 z"
             style="font-style:italic;font-variant:normal;font-weight:bold;font-stretch:condensed;font-size:19.3463px;line-height:12.1097px;font-family:Arial;-inkscape-font-specification:'Arial Bold Italic Condensed';font-variant-ligatures:normal;font-variant-caps:normal;font-variant-numeric:normal;text-align:start;letter-spacing:0px;word-spacing:0px;writing-mode:lr-tb;text-anchor:start;fill:#ffffff;fill-opacity:1;stroke:none;stroke-width:0.282;stroke-miterlimit:10;stroke-dasharray:none;stroke-opacity:1"
             id="path1018"
             inkscape:connector-curvature="0" />
          <path
             d="m 449.11785,529.53997 h 2.72599 l -0.43367,2.40084 q 1.51168,-2.68055 3.29598,-2.68055 0.61954,0 1.3506,0.34964 l -1.11518,2.73882 q -0.39651,-0.16316 -0.83019,-0.16316 -0.68149,0 -1.27626,0.43121 -0.90453,0.66431 -1.38778,1.73653 -0.48324,1.07222 -0.95409,3.68284 l -0.71868,3.88097 h -2.91184 z"
             style="font-style:italic;font-variant:normal;font-weight:bold;font-stretch:condensed;font-size:19.3463px;line-height:12.1097px;font-family:Arial;-inkscape-font-specification:'Arial Bold Italic Condensed';font-variant-ligatures:normal;font-variant-caps:normal;font-variant-numeric:normal;text-align:start;letter-spacing:0px;word-spacing:0px;writing-mode:lr-tb;text-anchor:start;fill:#ffffff;fill-opacity:1;stroke:none;stroke-width:0.282;stroke-miterlimit:10;stroke-dasharray:none;stroke-opacity:1"
             id="path1020"
             inkscape:connector-curvature="0" />
          <path
             d="m 459.2288,533.04799 -2.8499,-0.27971 q 0.50803,-1.71322 1.75951,-2.61062 1.25148,-0.8974 3.17206,-0.8974 1.95775,0 3.01098,0.92071 1.05323,0.90906 1.05323,2.42415 0,0.53611 -0.0867,1.14215 -0.0744,0.60603 -0.59477,3.30989 -0.43367,2.22602 -0.43367,3.11176 0,0.80417 0.23542,1.74819 h -2.82511 q -0.17348,-0.67597 -0.21065,-1.39855 -0.64433,0.81582 -1.4869,1.24704 -0.83019,0.43121 -1.66038,0.43121 -1.31343,0 -2.20557,-0.97898 -0.89216,-0.97898 -0.89216,-2.61062 0,-1.87638 1.01606,-2.89033 1.00366,-1.01394 3.37032,-1.22372 2.08166,-0.19813 2.78794,-0.47784 0.18587,-0.71093 0.18587,-1.13049 0,-0.55942 -0.40891,-0.8974 -0.3965,-0.34964 -1.09039,-0.34964 -1.51168,0 -1.84624,1.4102 z m 2.77556,3.10011 q -0.2726,0.0816 -0.70629,0.15151 -2.04448,0.27971 -2.7012,0.75755 -0.64433,0.46618 -0.64433,1.25869 0,0.61769 0.37172,1.00229 0.38412,0.3846 0.9665,0.3846 0.60715,0 1.16474,-0.31467 0.55759,-0.32633 0.89214,-0.8974 0.33455,-0.58273 0.56999,-1.89969 z"
             style="font-style:italic;font-variant:normal;font-weight:bold;font-stretch:condensed;font-size:19.3463px;line-height:12.1097px;font-family:Arial;-inkscape-font-specification:'Arial Bold Italic Condensed';font-variant-ligatures:normal;font-variant-caps:normal;font-variant-numeric:normal;text-align:start;letter-spacing:0px;word-spacing:0px;writing-mode:lr-tb;text-anchor:start;fill:#ffffff;fill-opacity:1;stroke:none;stroke-width:0.282;stroke-miterlimit:10;stroke-dasharray:none;stroke-opacity:1"
             id="path1022"
             inkscape:connector-curvature="0" />
          <path
             d="m 467.43157,532.02239 0.44607,-2.48242 h 1.42495 l 0.35934,-1.98127 3.33314,-2.3076 -0.78062,4.28887 h 1.78428 l -0.44607,2.48242 h -1.78428 l -0.9541,5.18628 q -0.24781,1.39854 -0.24781,1.61998 0,0.40791 0.22303,0.60604 0.22304,0.19812 0.76823,0.19812 0.17348,0 0.9541,-0.0816 l -0.45846,2.48242 q -0.75585,0.16316 -1.52407,0.16316 -1.48691,0 -2.23037,-0.65265 -0.73106,-0.65266 -0.73106,-1.91135 0,-0.58273 0.37174,-2.63393 l 0.90452,-4.97649 z"
             style="font-style:italic;font-variant:normal;font-weight:bold;font-stretch:condensed;font-size:19.3463px;line-height:12.1097px;font-family:Arial;-inkscape-font-specification:'Arial Bold Italic Condensed';font-variant-ligatures:normal;font-variant-caps:normal;font-variant-numeric:normal;text-align:start;letter-spacing:0px;word-spacing:0px;writing-mode:lr-tb;text-anchor:start;fill:#ffffff;fill-opacity:1;stroke:none;stroke-width:0.282;stroke-miterlimit:10;stroke-dasharray:none;stroke-opacity:1"
             id="path1024"
             inkscape:connector-curvature="0" />
          <path
             d="m 476.76188,524.83153 h 2.92424 l -0.55759,3.03019 h -2.91184 z m -0.85497,4.70844 h 2.91185 l -2.25513,12.37714 h -2.91186 z"
             style="font-style:italic;font-variant:normal;font-weight:bold;font-stretch:condensed;font-size:19.3463px;line-height:12.1097px;font-family:Arial;-inkscape-font-specification:'Arial Bold Italic Condensed';font-variant-ligatures:normal;font-variant-caps:normal;font-variant-numeric:normal;text-align:start;letter-spacing:0px;word-spacing:0px;writing-mode:lr-tb;text-anchor:start;fill:#ffffff;fill-opacity:1;stroke:none;stroke-width:0.282;stroke-miterlimit:10;stroke-dasharray:none;stroke-opacity:1"
             id="path1026"
             inkscape:connector-curvature="0" />
          <path
             d="m 481.73063,529.53997 h 2.76316 l -0.28499,1.60833 q 1.07801,-1.06056 1.97015,-1.46847 0.90453,-0.41957 1.85863,-0.41957 1.30104,0 2.08166,0.85079 0.78064,0.85078 0.78064,2.33091 0,0.641 -0.32217,2.45911 l -1.27626,7.01604 h -2.92425 l 1.28865,-7.01604 q 0.285,-1.57337 0.285,-1.88804 0,-0.66431 -0.34695,-1.01395 -0.33455,-0.36129 -0.87976,-0.36129 -0.59475,0 -1.21429,0.44287 -0.89215,0.62935 -1.32583,1.50344 -0.43369,0.86244 -0.86736,3.25162 l -0.92931,5.08139 h -2.91186 z"
             style="font-style:italic;font-variant:normal;font-weight:bold;font-stretch:condensed;font-size:19.3463px;line-height:12.1097px;font-family:Arial;-inkscape-font-specification:'Arial Bold Italic Condensed';font-variant-ligatures:normal;font-variant-caps:normal;font-variant-numeric:normal;text-align:start;letter-spacing:0px;word-spacing:0px;writing-mode:lr-tb;text-anchor:start;fill:#ffffff;fill-opacity:1;stroke:none;stroke-width:0.282;stroke-miterlimit:10;stroke-dasharray:none;stroke-opacity:1"
             id="path1028"
             inkscape:connector-curvature="0" />
          <path
             d="m 492.01503,542.56976 3.08533,0.5128 q 0,0.74589 0.38412,1.10718 0.39651,0.3613 1.18953,0.3613 0.78062,0 1.26386,-0.29137 0.49564,-0.27971 0.76824,-0.85078 0.2726,-0.57107 0.55759,-2.3076 l 0.0867,-0.58273 q -1.49928,1.44516 -3.1101,1.44516 -1.57364,0 -2.60208,-1.25869 -1.02845,-1.25869 -1.02845,-3.77607 0,-2.38919 0.75584,-4.16068 0.75586,-1.78314 1.95777,-2.64558 1.2143,-0.86244 2.46577,-0.86244 1.05323,0 1.94537,0.641 0.90454,0.62935 1.42495,1.82977 l 0.39652,-2.19106 h 2.73837 l -1.87102,10.31428 q -0.55758,3.01853 -0.97887,4.16067 -0.58237,1.56171 -1.70995,2.23768 -1.12756,0.68762 -3.11011,0.68762 -2.31709,0 -3.34553,-0.80417 -1.28865,-1.00229 -1.28865,-3.05349 z m 3.44467,-5.97878 q 0,1.4102 0.63194,2.24932 0.48324,0.641 1.30104,0.641 0.66911,0 1.32582,-0.52445 0.6691,-0.52445 1.15235,-1.72487 0.48324,-1.21208 0.48324,-2.62228 0,-1.37523 -0.63192,-2.16774 -0.61955,-0.80417 -1.42496,-0.80417 -0.61954,0 -1.2267,0.50115 -0.59476,0.48949 -1.10279,1.82976 -0.50802,1.34028 -0.50802,2.62228 z"
             style="font-style:italic;font-variant:normal;font-weight:bold;font-stretch:condensed;font-size:19.3463px;line-height:12.1097px;font-family:Arial;-inkscape-font-specification:'Arial Bold Italic Condensed';font-variant-ligatures:normal;font-variant-caps:normal;font-variant-numeric:normal;text-align:start;letter-spacing:0px;word-spacing:0px;writing-mode:lr-tb;text-anchor:start;fill:#ffffff;fill-opacity:1;stroke:none;stroke-width:0.282;stroke-miterlimit:10;stroke-dasharray:none;stroke-opacity:1"
             id="path1030"
             inkscape:connector-curvature="0" />
          <path
             d="m 514.83902,533.04799 -2.84991,-0.27971 q 0.50804,-1.71322 1.75952,-2.61062 1.25146,-0.8974 3.17206,-0.8974 1.95775,0 3.01098,0.92071 1.05322,0.90906 1.05322,2.42415 0,0.53611 -0.0867,1.14215 -0.0744,0.60603 -0.59476,3.30989 -0.43368,2.22602 -0.43368,3.11176 0,0.80417 0.23543,1.74819 h -2.82513 q -0.17346,-0.67597 -0.21063,-1.39855 -0.64434,0.81582 -1.48691,1.24704 -0.83019,0.43121 -1.66037,0.43121 -1.31344,0 -2.20559,-0.97898 -0.89214,-0.97898 -0.89214,-2.61062 0,-1.87638 1.01606,-2.89033 1.00366,-1.01394 3.37031,-1.22372 2.08167,-0.19813 2.78795,-0.47784 0.18586,-0.71093 0.18586,-1.13049 0,-0.55942 -0.4089,-0.8974 -0.3965,-0.34964 -1.09039,-0.34964 -1.5117,0 -1.84625,1.4102 z m 2.77556,3.10011 q -0.2726,0.0816 -0.70629,0.15151 -2.04449,0.27971 -2.70121,0.75755 -0.64432,0.46618 -0.64432,1.25869 0,0.61769 0.37172,1.00229 0.38412,0.3846 0.96649,0.3846 0.60716,0 1.16475,-0.31467 0.55758,-0.32633 0.89214,-0.8974 0.33455,-0.58273 0.56997,-1.89969 z"
             style="font-style:italic;font-variant:normal;font-weight:bold;font-stretch:condensed;font-size:19.3463px;line-height:12.1097px;font-family:Arial;-inkscape-font-specification:'Arial Bold Italic Condensed';font-variant-ligatures:normal;font-variant-caps:normal;font-variant-numeric:normal;text-align:start;letter-spacing:0px;word-spacing:0px;writing-mode:lr-tb;text-anchor:start;fill:#ffffff;fill-opacity:1;stroke:none;stroke-width:0.282;stroke-miterlimit:10;stroke-dasharray:none;stroke-opacity:1"
             id="path1032"
             inkscape:connector-curvature="0" />
          <path
             d="m 522.29834,541.91711 3.11011,-17.08558 h 2.92424 l -3.1225,17.08558 z"
             style="font-style:italic;font-variant:normal;font-weight:bold;font-stretch:condensed;font-size:19.3463px;line-height:12.1097px;font-family:Arial;-inkscape-font-specification:'Arial Bold Italic Condensed';font-variant-ligatures:normal;font-variant-caps:normal;font-variant-numeric:normal;text-align:start;letter-spacing:0px;word-spacing:0px;writing-mode:lr-tb;text-anchor:start;fill:#ffffff;fill-opacity:1;stroke:none;stroke-width:0.282;stroke-miterlimit:10;stroke-dasharray:none;stroke-opacity:1"
             id="path1034"
             inkscape:connector-curvature="0" />
          <path
             d="m 528.09727,541.91711 3.11012,-17.08558 h 2.92424 l -3.1225,17.08558 z"
             style="font-style:italic;font-variant:normal;font-weight:bold;font-stretch:condensed;font-size:19.3463px;line-height:12.1097px;font-family:Arial;-inkscape-font-specification:'Arial Bold Italic Condensed';font-variant-ligatures:normal;font-variant-caps:normal;font-variant-numeric:normal;text-align:start;letter-spacing:0px;word-spacing:0px;writing-mode:lr-tb;text-anchor:start;fill:#ffffff;fill-opacity:1;stroke:none;stroke-width:0.282;stroke-miterlimit:10;stroke-dasharray:none;stroke-opacity:1"
             id="path1036"
             inkscape:connector-curvature="0" />
          <path
             d="m 540.4386,532.02239 0.44607,-2.48242 h 1.42495 l 0.35933,-1.98127 3.33315,-2.3076 -0.78063,4.28887 h 1.78429 l -0.44607,2.48242 h -1.78429 l -0.95409,5.18628 q -0.24782,1.39854 -0.24782,1.61998 0,0.40791 0.22304,0.60604 0.22303,0.19812 0.76822,0.19812 0.17348,0 0.95411,-0.0816 l -0.45847,2.48242 q -0.75584,0.16316 -1.52408,0.16316 -1.4869,0 -2.23035,-0.65265 -0.73106,-0.65266 -0.73106,-1.91135 0,-0.58273 0.37172,-2.63393 l 0.90454,-4.97649 z"
             style="font-style:italic;font-variant:normal;font-weight:bold;font-stretch:condensed;font-size:19.3463px;line-height:12.1097px;font-family:Arial;-inkscape-font-specification:'Arial Bold Italic Condensed';font-variant-ligatures:normal;font-variant-caps:normal;font-variant-numeric:normal;text-align:start;letter-spacing:0px;word-spacing:0px;writing-mode:lr-tb;text-anchor:start;fill:#ffffff;fill-opacity:1;stroke:none;stroke-width:0.282;stroke-miterlimit:10;stroke-dasharray:none;stroke-opacity:1"
             id="path1038"
             inkscape:connector-curvature="0" />
          <path
             d="m 547.56333,529.53997 h 2.89946 l 0.73106,6.16526 q 0.2726,2.36587 0.30977,3.3332 0.56999,-1.91134 1.56126,-4.00916 l 2.58969,-5.4893 h 3.08533 l -6.66629,13.58921 q -0.94171,1.91135 -1.44973,2.55235 -0.50804,0.65265 -1.15236,0.95567 -0.63193,0.30302 -1.43733,0.30302 -0.91693,0 -2.08167,-0.37295 l 0.2602,-2.49407 q 0.52042,0.17482 1.01606,0.17482 1.33821,0 2.21797,-2.33091 z"
             style="font-style:italic;font-variant:normal;font-weight:bold;font-stretch:condensed;font-size:19.3463px;line-height:12.1097px;font-family:Arial;-inkscape-font-specification:'Arial Bold Italic Condensed';font-variant-ligatures:normal;font-variant-caps:normal;font-variant-numeric:normal;text-align:start;letter-spacing:0px;word-spacing:0px;writing-mode:lr-tb;text-anchor:start;fill:#ffffff;fill-opacity:1;stroke:none;stroke-width:0.282;stroke-miterlimit:10;stroke-dasharray:none;stroke-opacity:1"
             id="path1040"
             inkscape:connector-curvature="0" />
          <path
             d="m 560.41268,529.53997 h 2.76316 l -0.23542,1.27035 q 0.92931,-0.87409 1.69755,-1.21207 0.76822,-0.33799 1.61081,-0.33799 1.68515,0 2.72599,1.32862 1.04083,1.32862 1.04083,3.99751 0,3.40313 -1.83385,5.71073 -1.51168,1.89969 -3.55617,1.89969 -2.13123,0 -3.23403,-1.98127 l -1.17713,6.42166 h -2.91185 z m 1.7595,7.09762 q 0,1.45682 0.61955,2.24933 0.61954,0.79251 1.43733,0.79251 0.65672,0 1.28866,-0.50114 0.63193,-0.5128 1.13996,-1.87639 0.52041,-1.36358 0.52041,-2.80874 0,-1.38689 -0.59476,-2.12113 -0.58237,-0.73424 -1.44973,-0.73424 -0.6815,0 -1.32582,0.50115 -0.63194,0.50114 -1.13996,1.80645 -0.49564,1.30531 -0.49564,2.6922 z"
             style="font-style:italic;font-variant:normal;font-weight:bold;font-stretch:condensed;font-size:19.3463px;line-height:12.1097px;font-family:Arial;-inkscape-font-specification:'Arial Bold Italic Condensed';font-variant-ligatures:normal;font-variant-caps:normal;font-variant-numeric:normal;text-align:start;letter-spacing:0px;word-spacing:0px;writing-mode:lr-tb;text-anchor:start;fill:#ffffff;fill-opacity:1;stroke:none;stroke-width:0.282;stroke-miterlimit:10;stroke-dasharray:none;stroke-opacity:1"
             id="path1042"
             inkscape:connector-curvature="0" />
          <path
             d="m 581.48953,536.76579 h -7.323 v 0.31468 q 0,1.24703 0.61954,1.99293 0.61955,0.74589 1.48691,0.74589 1.43735,0 2.26754,-1.72488 l 2.61446,0.50115 q -0.76823,1.80645 -2.04449,2.70385 -1.27626,0.8974 -2.86229,0.8974 -2.10645,0 -3.50662,-1.5384 -1.38778,-1.55005 -1.38778,-4.19563 0,-2.85537 1.58604,-5.02312 1.58603,-2.1794 4.43593,-2.1794 1.92059,0 3.1101,1.37524 1.20193,1.36358 1.20193,3.95089 0,1.22373 -0.19827,2.1794 z m -2.46577,-2.03954 0.0118,-0.32633 q 0,-1.4102 -0.5576,-2.08616 -0.54519,-0.67597 -1.42494,-0.67597 -0.89215,0 -1.6232,0.78086 -0.71868,0.78085 -0.9665,2.3076 z"
             style="font-style:italic;font-variant:normal;font-weight:bold;font-stretch:condensed;font-size:19.3463px;line-height:12.1097px;font-family:Arial;-inkscape-font-specification:'Arial Bold Italic Condensed';font-variant-ligatures:normal;font-variant-caps:normal;font-variant-numeric:normal;text-align:start;letter-spacing:0px;word-spacing:0px;writing-mode:lr-tb;text-anchor:start;fill:#ffffff;fill-opacity:1;stroke:none;stroke-width:0.282;stroke-miterlimit:10;stroke-dasharray:none;stroke-opacity:1"
             id="path1044"
             inkscape:connector-curvature="0" />
          <path
             d="m 582.20823,538.4557 2.82511,-0.5128 q 0.37173,1.04891 0.94171,1.46848 0.56998,0.40791 1.51168,0.40791 0.90454,0 1.46213,-0.40791 0.55759,-0.40791 0.55759,-0.95568 0,-0.37294 -0.23544,-0.62934 -0.2478,-0.24475 -1.18951,-0.59438 -2.61448,-0.99064 -3.24641,-1.56171 -1.00366,-0.92071 -1.00366,-2.40084 0,-1.74818 1.31343,-2.87867 1.31344,-1.1305 3.59336,-1.1305 3.86594,0 4.48549,3.22831 l -2.68882,0.53611 q -0.47085,-1.46847 -2.25514,-1.46847 -0.84258,0 -1.27626,0.32633 -0.43367,0.32633 -0.43367,0.82747 0,0.41956 0.33455,0.71093 0.24782,0.22143 1.70993,0.71093 2.09406,0.69927 2.81273,1.36358 1.05323,0.96733 1.05323,2.35422 0,1.87638 -1.3506,3.11176 -1.35061,1.23538 -3.58097,1.23538 -4.38637,0 -5.34046,-3.74111 z"
             style="font-style:italic;font-variant:normal;font-weight:bold;font-stretch:condensed;font-size:19.3463px;line-height:12.1097px;font-family:Arial;-inkscape-font-specification:'Arial Bold Italic Condensed';font-variant-ligatures:normal;font-variant-caps:normal;font-variant-numeric:normal;text-align:start;letter-spacing:0px;word-spacing:0px;writing-mode:lr-tb;text-anchor:start;fill:#ffffff;fill-opacity:1;stroke:none;stroke-width:0.282;stroke-miterlimit:10;stroke-dasharray:none;stroke-opacity:1"
             id="path1046"
             inkscape:connector-curvature="0" />
          <path
             d="m 600.4104,536.77745 q 0,-3.04184 1.46212,-5.17462 1.62321,-2.34257 4.69614,-2.34257 2.3047,0 3.6677,1.46848 1.37538,1.46847 1.37538,4.09074 0,3.07681 -1.70993,5.2329 -1.69755,2.14443 -4.44833,2.14443 -2.24275,0 -3.64291,-1.45681 -1.40017,-1.45682 -1.40017,-3.96255 z m 8.31428,-2.38918 q 0,-1.22373 -0.61955,-1.92301 -0.60716,-0.69927 -1.54886,-0.69927 -0.79302,0 -1.48691,0.5128 -0.69389,0.5128 -1.21431,1.78315 -0.52041,1.27035 -0.52041,2.63393 0,1.38689 0.63193,2.15609 0.64434,0.7692 1.58603,0.7692 1.18953,0 2.01972,-1.18876 1.15236,-1.63164 1.15236,-4.04413 z"
             style="font-style:italic;font-variant:normal;font-weight:bold;font-stretch:condensed;font-size:19.3463px;line-height:12.1097px;font-family:Arial;-inkscape-font-specification:'Arial Bold Italic Condensed';font-variant-ligatures:normal;font-variant-caps:normal;font-variant-numeric:normal;text-align:start;letter-spacing:0px;word-spacing:0px;writing-mode:lr-tb;text-anchor:start;fill:#ffffff;fill-opacity:1;stroke:none;stroke-width:0.282;stroke-miterlimit:10;stroke-dasharray:none;stroke-opacity:1"
             id="path1048"
             inkscape:connector-curvature="0" />
          <path
             d="m 620.23578,529.53997 -0.44607,2.44746 h -2.05689 l -1.82145,9.92968 h -2.91186 l 1.80907,-9.92968 h -1.6232 l 0.44607,-2.44746 h 1.6232 l 0.23543,-1.27034 q 0.30977,-1.72488 0.66911,-2.36588 0.37172,-0.65265 1.05321,-1.00229 0.68151,-0.36129 1.62321,-0.36129 1.3506,0 2.83751,0.55942 l -0.55759,2.38918 q -1.05322,-0.40791 -1.70994,-0.40791 -0.42129,0 -0.68149,0.29137 -0.19826,0.22143 -0.39651,1.29365 l -0.16108,0.87409 z"
             style="font-style:italic;font-variant:normal;font-weight:bold;font-stretch:condensed;font-size:19.3463px;line-height:12.1097px;font-family:Arial;-inkscape-font-specification:'Arial Bold Italic Condensed';font-variant-ligatures:normal;font-variant-caps:normal;font-variant-numeric:normal;text-align:start;letter-spacing:0px;word-spacing:0px;writing-mode:lr-tb;text-anchor:start;fill:#ffffff;fill-opacity:1;stroke:none;stroke-width:0.282;stroke-miterlimit:10;stroke-dasharray:none;stroke-opacity:1"
             id="path1050"
             inkscape:connector-curvature="0" />
          <path
             d="m 625.43997,541.91711 3.11011,-17.08558 h 2.92425 l -3.1225,17.08558 z"
             style="font-style:italic;font-variant:normal;font-weight:bold;font-stretch:condensed;font-size:19.3463px;line-height:12.1097px;font-family:Arial;-inkscape-font-specification:'Arial Bold Italic Condensed';font-variant-ligatures:normal;font-variant-caps:normal;font-variant-numeric:normal;text-align:start;letter-spacing:0px;word-spacing:0px;writing-mode:lr-tb;text-anchor:start;fill:#ffffff;fill-opacity:1;stroke:none;stroke-width:0.282;stroke-miterlimit:10;stroke-dasharray:none;stroke-opacity:1"
             id="path1052"
             inkscape:connector-curvature="0" />
          <path
             d="m 641.75876,536.76579 h -7.323 v 0.31468 q 0,1.24703 0.61954,1.99293 0.61954,0.74589 1.4869,0.74589 1.43734,0 2.26753,-1.72488 l 2.61448,0.50115 q -0.76824,1.80645 -2.0445,2.70385 -1.27626,0.8974 -2.86229,0.8974 -2.10644,0 -3.50662,-1.5384 -1.38778,-1.55005 -1.38778,-4.19563 0,-2.85537 1.58603,-5.02312 1.58603,-2.1794 4.43594,-2.1794 1.92059,0 3.11011,1.37524 1.20191,1.36358 1.20191,3.95089 0,1.22373 -0.19825,2.1794 z m -2.46579,-2.03954 0.0118,-0.32633 q 0,-1.4102 -0.5576,-2.08616 -0.54519,-0.67597 -1.42495,-0.67597 -0.89214,0 -1.6232,0.78086 -0.71867,0.78085 -0.96649,2.3076 z"
             style="font-style:italic;font-variant:normal;font-weight:bold;font-stretch:condensed;font-size:19.3463px;line-height:12.1097px;font-family:Arial;-inkscape-font-specification:'Arial Bold Italic Condensed';font-variant-ligatures:normal;font-variant-caps:normal;font-variant-numeric:normal;text-align:start;letter-spacing:0px;word-spacing:0px;writing-mode:lr-tb;text-anchor:start;fill:#ffffff;fill-opacity:1;stroke:none;stroke-width:0.282;stroke-miterlimit:10;stroke-dasharray:none;stroke-opacity:1"
             id="path1054"
             inkscape:connector-curvature="0" />
          <path
             d="m 646.97529,533.04799 -2.8499,-0.27971 q 0.50803,-1.71322 1.75951,-2.61062 1.25148,-0.8974 3.17206,-0.8974 1.95776,0 3.01098,0.92071 1.05323,0.90906 1.05323,2.42415 0,0.53611 -0.0867,1.14215 -0.0744,0.60603 -0.59476,3.30989 -0.43367,2.22602 -0.43367,3.11176 0,0.80417 0.23542,1.74819 h -2.82511 q -0.17348,-0.67597 -0.21065,-1.39855 -0.64433,0.81582 -1.48691,1.24704 -0.83018,0.43121 -1.66037,0.43121 -1.31343,0 -2.20557,-0.97898 -0.89216,-0.97898 -0.89216,-2.61062 0,-1.87638 1.01606,-2.89033 1.00366,-1.01394 3.37032,-1.22372 2.08166,-0.19813 2.78794,-0.47784 0.18587,-0.71093 0.18587,-1.13049 0,-0.55942 -0.40891,-0.8974 -0.3965,-0.34964 -1.09039,-0.34964 -1.51168,0 -1.84624,1.4102 z m 2.77556,3.10011 q -0.2726,0.0816 -0.70628,0.15151 -2.04449,0.27971 -2.70121,0.75755 -0.64433,0.46618 -0.64433,1.25869 0,0.61769 0.37173,1.00229 0.38411,0.3846 0.96649,0.3846 0.60715,0 1.16474,-0.31467 0.55759,-0.32633 0.89214,-0.8974 0.33455,-0.58273 0.56999,-1.89969 z"
             style="font-style:italic;font-variant:normal;font-weight:bold;font-stretch:condensed;font-size:19.3463px;line-height:12.1097px;font-family:Arial;-inkscape-font-specification:'Arial Bold Italic Condensed';font-variant-ligatures:normal;font-variant-caps:normal;font-variant-numeric:normal;text-align:start;letter-spacing:0px;word-spacing:0px;writing-mode:lr-tb;text-anchor:start;fill:#ffffff;fill-opacity:1;stroke:none;stroke-width:0.282;stroke-miterlimit:10;stroke-dasharray:none;stroke-opacity:1"
             id="path1056"
             inkscape:connector-curvature="0" />
          <path
             d="m 656.54106,529.53997 h 2.72599 l -0.43367,2.40084 q 1.51168,-2.68055 3.29596,-2.68055 0.61954,0 1.3506,0.34964 l -1.11516,2.73882 q -0.39652,-0.16316 -0.83019,-0.16316 -0.68151,0 -1.27627,0.43121 -0.90453,0.66431 -1.38777,1.73653 -0.48324,1.07222 -0.95411,3.68284 l -0.71866,3.88097 h -2.91186 z"
             style="font-style:italic;font-variant:normal;font-weight:bold;font-stretch:condensed;font-size:19.3463px;line-height:12.1097px;font-family:Arial;-inkscape-font-specification:'Arial Bold Italic Condensed';font-variant-ligatures:normal;font-variant-caps:normal;font-variant-numeric:normal;text-align:start;letter-spacing:0px;word-spacing:0px;writing-mode:lr-tb;text-anchor:start;fill:#ffffff;fill-opacity:1;stroke:none;stroke-width:0.282;stroke-miterlimit:10;stroke-dasharray:none;stroke-opacity:1"
             id="path1058"
             inkscape:connector-curvature="0" />
          <path
             d="m 664.81815,529.53997 h 2.76317 l -0.285,1.60833 q 1.07801,-1.06056 1.97015,-1.46847 0.90454,-0.41957 1.85864,-0.41957 1.30104,0 2.08166,0.85079 0.78063,0.85078 0.78063,2.33091 0,0.641 -0.32217,2.45911 l -1.27625,7.01604 h -2.92424 l 1.28864,-7.01604 q 0.28499,-1.57337 0.28499,-1.88804 0,-0.66431 -0.34694,-1.01395 -0.33455,-0.36129 -0.87975,-0.36129 -0.59476,0 -1.21431,0.44287 -0.89215,0.62935 -1.32582,1.50344 -0.43368,0.86244 -0.86737,3.25162 l -0.92931,5.08139 h -2.91186 z"
             style="font-style:italic;font-variant:normal;font-weight:bold;font-stretch:condensed;font-size:19.3463px;line-height:12.1097px;font-family:Arial;-inkscape-font-specification:'Arial Bold Italic Condensed';font-variant-ligatures:normal;font-variant-caps:normal;font-variant-numeric:normal;text-align:start;letter-spacing:0px;word-spacing:0px;writing-mode:lr-tb;text-anchor:start;fill:#ffffff;fill-opacity:1;stroke:none;stroke-width:0.282;stroke-miterlimit:10;stroke-dasharray:none;stroke-opacity:1"
             id="path1060"
             inkscape:connector-curvature="0" />
          <path
             d="m 678.38615,524.83153 h 2.92424 l -0.55759,3.03019 h -2.91186 z m -0.85498,4.70844 h 2.91186 l -2.25514,12.37714 h -2.91185 z"
             style="font-style:italic;font-variant:normal;font-weight:bold;font-stretch:condensed;font-size:19.3463px;line-height:12.1097px;font-family:Arial;-inkscape-font-specification:'Arial Bold Italic Condensed';font-variant-ligatures:normal;font-variant-caps:normal;font-variant-numeric:normal;text-align:start;letter-spacing:0px;word-spacing:0px;writing-mode:lr-tb;text-anchor:start;fill:#ffffff;fill-opacity:1;stroke:none;stroke-width:0.282;stroke-miterlimit:10;stroke-dasharray:none;stroke-opacity:1"
             id="path1062"
             inkscape:connector-curvature="0" />
          <path
             d="m 683.3549,529.53997 h 2.76316 l -0.28499,1.60833 q 1.07801,-1.06056 1.97015,-1.46847 0.90453,-0.41957 1.85862,-0.41957 1.30105,0 2.08167,0.85079 0.78062,0.85078 0.78062,2.33091 0,0.641 -0.32215,2.45911 l -1.27626,7.01604 h -2.92425 l 1.28865,-7.01604 q 0.28499,-1.57337 0.28499,-1.88804 0,-0.66431 -0.34694,-1.01395 -0.33456,-0.36129 -0.87976,-0.36129 -0.59476,0 -1.2143,0.44287 -0.89214,0.62935 -1.32582,1.50344 -0.43369,0.86244 -0.86736,3.25162 l -0.92932,5.08139 h -2.91185 z"
             style="font-style:italic;font-variant:normal;font-weight:bold;font-stretch:condensed;font-size:19.3463px;line-height:12.1097px;font-family:Arial;-inkscape-font-specification:'Arial Bold Italic Condensed';font-variant-ligatures:normal;font-variant-caps:normal;font-variant-numeric:normal;text-align:start;letter-spacing:0px;word-spacing:0px;writing-mode:lr-tb;text-anchor:start;fill:#ffffff;fill-opacity:1;stroke:none;stroke-width:0.282;stroke-miterlimit:10;stroke-dasharray:none;stroke-opacity:1"
             id="path1064"
             inkscape:connector-curvature="0" />
          <path
             d="m 693.6393,542.56976 3.08533,0.5128 q 0,0.74589 0.38412,1.10718 0.3965,0.3613 1.18952,0.3613 0.78063,0 1.26387,-0.29137 0.49564,-0.27971 0.76824,-0.85078 0.2726,-0.57107 0.55759,-2.3076 l 0.0867,-0.58273 q -1.4993,1.44516 -3.11011,1.44516 -1.57364,0 -2.60208,-1.25869 -1.02844,-1.25869 -1.02844,-3.77607 0,-2.38919 0.75584,-4.16068 0.75584,-1.78314 1.95777,-2.64558 1.21429,-0.86244 2.46577,-0.86244 1.05323,0 1.94537,0.641 0.90454,0.62935 1.42495,1.82977 l 0.3965,-2.19106 h 2.73839 l -1.87102,10.31428 q -0.55759,3.01853 -0.97887,4.16067 -0.58238,1.56171 -1.70995,2.23768 -1.12756,0.68762 -3.11011,0.68762 -2.31709,0 -3.34553,-0.80417 -1.28865,-1.00229 -1.28865,-3.05349 z m 3.44467,-5.97878 q 0,1.4102 0.63193,2.24932 0.48324,0.641 1.30105,0.641 0.66909,0 1.32581,-0.52445 0.66911,-0.52445 1.15236,-1.72487 0.48324,-1.21208 0.48324,-2.62228 0,-1.37523 -0.63194,-2.16774 -0.61954,-0.80417 -1.42494,-0.80417 -0.61955,0 -1.2267,0.50115 -0.59477,0.48949 -1.10279,1.82976 -0.50802,1.34028 -0.50802,2.62228 z"
             style="font-style:italic;font-variant:normal;font-weight:bold;font-stretch:condensed;font-size:19.3463px;line-height:12.1097px;font-family:Arial;-inkscape-font-specification:'Arial Bold Italic Condensed';font-variant-ligatures:normal;font-variant-caps:normal;font-variant-numeric:normal;text-align:start;letter-spacing:0px;word-spacing:0px;writing-mode:lr-tb;text-anchor:start;fill:#ffffff;fill-opacity:1;stroke:none;stroke-width:0.282;stroke-miterlimit:10;stroke-dasharray:none;stroke-opacity:1"
             id="path1066"
             inkscape:connector-curvature="0" />
          <path
             d="m 709.94572,537.56996 h -1.59842 l 0.90453,-8.71761 0.73107,-4.02082 h 3.07293 l -0.79302,4.32384 z m -2.36666,1.11884 h 2.87468 l -0.59476,3.22831 h -2.87469 z"
             style="font-style:italic;font-variant:normal;font-weight:bold;font-stretch:condensed;font-size:19.3463px;line-height:12.1097px;font-family:Arial;-inkscape-font-specification:'Arial Bold Italic Condensed';font-variant-ligatures:normal;font-variant-caps:normal;font-variant-numeric:normal;text-align:start;letter-spacing:0px;word-spacing:0px;writing-mode:lr-tb;text-anchor:start;fill:#ffffff;fill-opacity:1;stroke:none;stroke-width:0.282;stroke-miterlimit:10;stroke-dasharray:none;stroke-opacity:1"
             id="path1068"
             inkscape:connector-curvature="0" />
        </g>
        <rect
           style="opacity:1;fill:#008000;fill-opacity:1;fill-rule:nonzero;stroke:none;stroke-width:0.282;stroke-linecap:round;stroke-linejoin:miter;stroke-miterlimit:10;stroke-dasharray:none;stroke-dashoffset:0;stroke-opacity:1;paint-order:fill markers stroke"
           id="rect974"
           width="613.43884"
           height="89.97699"
           x="110.56629"
           y="381.888" />
        <g
           aria-label="CAMBRIDGE SCHOOL COMMITTEE"
           transform="matrix(1.2553714,0,0,1.3880972,-63.915037,429.64864)"
           style="font-style:normal;font-variant:normal;font-weight:normal;font-stretch:normal;font-size:32.4553px;line-height:10.1423px;font-family:Dubai;-inkscape-font-specification:Dubai;font-variant-ligatures:normal;font-variant-caps:normal;font-variant-numeric:normal;text-align:start;letter-spacing:0px;word-spacing:0px;writing-mode:lr-tb;text-anchor:start;display:inline;fill:#ffffff;fill-opacity:1;stroke:none;stroke-width:0.213625;stroke-miterlimit:10;stroke-dasharray:none;stroke-opacity:1"
           id="text1264">
          <path
             d="m 150.19387,57.736326 q -3.4078,0 -5.61476,-1.330667 -2.20696,-1.363123 -3.24553,-3.79727 -1.03857,-2.434148 -1.03857,-5.712133 0,-3.894636 1.33066,-6.361238 1.36313,-2.466603 3.57009,-3.570083 2.20696,-1.103481 4.90075,-1.103481 1.97977,0 3.63499,0.48683 1.68768,0.486829 3.27799,1.428033 l -1.49295,2.758701 q -2.53151,-1.5254 -5.2253,-1.5254 -3.14816,0 -4.64111,2.044684 -1.46049,2.012229 -1.46049,5.647222 0,3.73236 1.62277,5.809499 1.62276,2.044684 4.67356,2.044684 1.55786,0 2.7587,-0.389464 1.20085,-0.421919 2.4666,-1.16839 l 1.46049,2.661334 q -1.75258,1.03857 -3.4078,1.557854 -1.62277,0.519285 -3.57009,0.519285 z"
             style="font-style:normal;font-variant:normal;font-weight:500;font-stretch:normal;font-family:Dubai;-inkscape-font-specification:'Dubai Medium';fill:#ffffff;fill-opacity:1;stroke:none;stroke-width:0.213625;stroke-miterlimit:10;stroke-dasharray:none;stroke-opacity:1"
             id="path917-2"
             inkscape:connector-curvature="0" />
          <path
             d="m 170.35571,36.283373 7.75682,20.803847 v 0.227187 h -3.89463 l -1.97978,-5.582311 h -8.43838 l -1.94731,5.582311 h -3.79727 V 57.08722 l 7.72436,-20.803847 z m -5.5174,12.462835 h 6.32879 l -3.18062,-9.022573 z"
             style="font-style:normal;font-variant:normal;font-weight:500;font-stretch:normal;font-family:Dubai;-inkscape-font-specification:'Dubai Medium';fill:#ffffff;fill-opacity:1;stroke:none;stroke-width:0.213625;stroke-miterlimit:10;stroke-dasharray:none;stroke-opacity:1"
             id="path919-3"
             inkscape:connector-curvature="0" />
          <path
             d="m 203.08486,36.283373 v 21.031034 h -3.635 V 42.547246 q -0.55174,1.460489 -1.33067,2.985888 l -4.44637,8.730475 h -3.18062 l -4.38147,-8.730475 q -1.03857,-2.012229 -1.42803,-3.050798 v 14.832071 h -3.57008 V 36.283373 h 3.992 l 4.77093,9.249761 q 1.65522,3.277985 2.23941,5.030571 0.61665,-1.914863 2.23942,-5.030571 l 4.80338,-9.249761 z"
             style="font-style:normal;font-variant:normal;font-weight:500;font-stretch:normal;font-family:Dubai;-inkscape-font-specification:'Dubai Medium';fill:#ffffff;fill-opacity:1;stroke:none;stroke-width:0.213625;stroke-miterlimit:10;stroke-dasharray:none;stroke-opacity:1"
             id="path921-9"
             inkscape:connector-curvature="0" />
          <path
             d="m 219.47732,46.24715 q 1.46049,0.357009 2.40169,1.168391 0.97366,0.778927 1.39558,1.785042 0.45437,1.006114 0.45437,2.109594 0,1.817497 -0.90875,3.180619 -0.87629,1.330668 -2.62888,2.077139 -1.75258,0.746472 -4.25164,0.746472 h -7.88664 V 36.283373 h 7.49718 q 2.33678,0 3.992,0.714017 1.65522,0.681561 2.49906,1.914863 0.87629,1.233301 0.87629,2.856066 0,1.492944 -0.84384,2.69379 -0.84384,1.168391 -2.59642,1.785041 z m -7.72436,-6.977889 v 5.841954 h 3.34289 q 1.8175,0 2.92098,-0.714017 1.13593,-0.714016 1.13593,-2.336781 0,-1.265757 -0.9412,-2.012229 -0.9412,-0.778927 -2.66133,-0.778927 z m 4.05691,15.026804 q 2.1745,0 3.11571,-0.876294 0.97366,-0.876293 0.97366,-2.239415 0,-1.460489 -1.00612,-2.304326 -1.00611,-0.876294 -3.01834,-0.876294 h -4.12182 v 6.296329 z"
             style="font-style:normal;font-variant:normal;font-weight:500;font-stretch:normal;font-family:Dubai;-inkscape-font-specification:'Dubai Medium';fill:#ffffff;fill-opacity:1;stroke:none;stroke-width:0.213625;stroke-miterlimit:10;stroke-dasharray:none;stroke-opacity:1"
             id="path923-2"
             inkscape:connector-curvature="0" />
          <path
             d="m 243.67477,57.08722 v 0.227187 h -4.18674 l -5.67967,-7.951548 h -2.53152 v 7.951548 h -3.6999 V 36.283373 h 6.94543 q 2.59643,0 4.34901,0.811383 1.78504,0.811382 2.66134,2.239415 0.90875,1.428034 0.90875,3.310441 0,2.239416 -1.23331,3.927091 -1.20084,1.655221 -3.53762,2.336782 z M 231.27684,46.441882 h 2.79116 q 2.20696,0 3.37535,-0.908748 1.16839,-0.941204 1.16839,-2.758701 0,-1.687675 -1.07102,-2.563968 -1.03857,-0.876294 -3.0508,-0.876294 h -3.21308 z"
             style="font-style:normal;font-variant:normal;font-weight:500;font-stretch:normal;font-family:Dubai;-inkscape-font-specification:'Dubai Medium';fill:#ffffff;fill-opacity:1;stroke:none;stroke-width:0.213625;stroke-miterlimit:10;stroke-dasharray:none;stroke-opacity:1"
             id="path925-2"
             inkscape:connector-curvature="0" />
          <path
             d="M 246.72049,57.314407 V 36.283373 h 3.69991 v 21.031034 z"
             style="font-style:normal;font-variant:normal;font-weight:500;font-stretch:normal;font-family:Dubai;-inkscape-font-specification:'Dubai Medium';fill:#ffffff;fill-opacity:1;stroke:none;stroke-width:0.213625;stroke-miterlimit:10;stroke-dasharray:none;stroke-opacity:1"
             id="path927-1"
             inkscape:connector-curvature="0" />
          <path
             d="m 262.08909,36.283373 q 5.42004,0 8.34102,2.466603 2.92097,2.434148 2.92097,8.048914 0,3.537628 -1.5254,5.906865 -1.49294,2.336781 -4.12182,3.472717 -2.62888,1.135935 -5.97177,1.135935 h -6.26388 V 36.283373 Z m -0.90874,17.88287 q 2.7587,0 4.51128,-0.61665 1.78504,-0.616651 2.72625,-2.206961 0.97366,-1.622765 0.97366,-4.543742 0,-3.894636 -1.78505,-5.614766 -1.75258,-1.752587 -5.45249,-1.752587 h -2.98588 v 14.734706 z"
             style="font-style:normal;font-variant:normal;font-weight:500;font-stretch:normal;font-family:Dubai;-inkscape-font-specification:'Dubai Medium';fill:#ffffff;fill-opacity:1;stroke:none;stroke-width:0.213625;stroke-miterlimit:10;stroke-dasharray:none;stroke-opacity:1"
             id="path929-0"
             inkscape:connector-curvature="0" />
          <path
             d="m 293.89275,45.468223 v 10.353241 q -2.04468,1.006114 -3.82972,1.460488 -1.78504,0.454374 -3.89464,0.454374 -3.53763,0 -5.77704,-1.395578 -2.23942,-1.395578 -3.27799,-3.79727 -1.03857,-2.434147 -1.03857,-5.679677 0,-3.79727 1.36313,-6.263873 1.39557,-2.466603 3.6999,-3.602538 2.30433,-1.135936 5.16039,-1.135936 3.992,0 7.07526,1.947318 l -1.55786,2.726246 q -2.43414,-1.557855 -5.25776,-1.557855 -3.4078,0 -5.03057,2.044684 -1.59031,2.044684 -1.59031,5.679677 0,3.862181 1.49295,5.87441 1.5254,1.979773 4.90075,1.979773 1.97977,0 3.86218,-0.681561 v -5.355125 h -4.99812 l 0.42192,-3.050798 z"
             style="font-style:normal;font-variant:normal;font-weight:500;font-stretch:normal;font-family:Dubai;-inkscape-font-specification:'Dubai Medium';fill:#ffffff;fill-opacity:1;stroke:none;stroke-width:0.213625;stroke-miterlimit:10;stroke-dasharray:none;stroke-opacity:1"
             id="path931-2"
             inkscape:connector-curvature="0" />
          <path
             d="m 301.82909,54.231154 h 10.02869 v 3.083253 H 298.12919 V 36.283373 h 13.56631 v 3.050798 h -9.86641 v 5.777044 h 8.5682 l -0.42192,2.985887 h -8.14628 z"
             style="font-style:normal;font-variant:normal;font-weight:500;font-stretch:normal;font-family:Dubai;-inkscape-font-specification:'Dubai Medium';fill:#ffffff;fill-opacity:1;stroke:none;stroke-width:0.213625;stroke-miterlimit:10;stroke-dasharray:none;stroke-opacity:1"
             id="path933-5"
             inkscape:connector-curvature="0" />
          <path
             d="m 329.62046,57.736326 q -2.40169,0 -4.38147,-0.649106 -1.97977,-0.649106 -3.50517,-1.817497 l 1.72013,-2.596423 q 1.42804,1.006114 2.98589,1.492943 1.55785,0.454375 2.98589,0.454375 2.14205,0 3.27798,-0.714017 1.13594,-0.746472 1.13594,-2.20696 0,-0.876294 -0.38946,-1.460489 -0.38947,-0.584195 -1.33067,-1.071025 -0.94121,-0.486829 -2.72625,-1.135935 l -0.61665,-0.227187 q -2.07714,-0.778928 -3.34289,-1.492944 -1.23331,-0.714017 -2.01223,-1.849952 -0.77893,-1.168391 -0.77893,-2.920977 0,-1.882408 1.03857,-3.148164 1.07102,-1.298212 2.7587,-1.914863 1.68768,-0.616651 3.60254,-0.616651 3.95955,0 7.23753,2.206961 l -1.68768,2.596424 q -1.46048,-0.908749 -2.7587,-1.330668 -1.26575,-0.421918 -2.82361,-0.421918 -1.65522,0 -2.62888,0.649106 -0.97365,0.61665 -0.97365,1.849952 0,0.681561 0.357,1.200846 0.35701,0.486829 1.2333,0.973659 0.8763,0.486829 2.49906,1.071025 l 0.64911,0.227187 q 2.10959,0.746472 3.40781,1.460488 1.29821,0.681561 2.20696,1.947318 0.90874,1.233301 0.90874,3.213075 0,2.012228 -1.03857,3.440261 -1.00611,1.395578 -2.82361,2.109595 -1.78504,0.681561 -4.18673,0.681561 z"
             style="font-style:normal;font-variant:normal;font-weight:500;font-stretch:normal;font-family:Dubai;-inkscape-font-specification:'Dubai Medium';fill:#ffffff;fill-opacity:1;stroke:none;stroke-width:0.213625;stroke-miterlimit:10;stroke-dasharray:none;stroke-opacity:1"
             id="path935-7"
             inkscape:connector-curvature="0" />
          <path
             d="m 349.93342,57.736326 q -3.40781,0 -5.61477,-1.330667 -2.20696,-1.363123 -3.24553,-3.79727 -1.03856,-2.434148 -1.03856,-5.712133 0,-3.894636 1.33066,-6.361238 1.36312,-2.466603 3.57009,-3.570083 2.20696,-1.103481 4.90075,-1.103481 1.97977,0 3.63499,0.48683 1.68767,0.486829 3.27798,1.428033 l -1.49294,2.758701 q -2.53151,-1.5254 -5.2253,-1.5254 -3.14817,0 -4.64111,2.044684 -1.46049,2.012229 -1.46049,5.647222 0,3.73236 1.62277,5.809499 1.62276,2.044684 4.67356,2.044684 1.55785,0 2.7587,-0.389464 1.20085,-0.421919 2.4666,-1.16839 l 1.46049,2.661334 q -1.75259,1.03857 -3.40781,1.557854 -1.62276,0.519285 -3.57008,0.519285 z"
             style="font-style:normal;font-variant:normal;font-weight:500;font-stretch:normal;font-family:Dubai;-inkscape-font-specification:'Dubai Medium';fill:#ffffff;fill-opacity:1;stroke:none;stroke-width:0.213625;stroke-miterlimit:10;stroke-dasharray:none;stroke-opacity:1"
             id="path937-4"
             inkscape:connector-curvature="0" />
          <path
             d="m 374.21709,36.283373 h 3.6999 v 21.031034 h -3.6999 v -9.119939 h -10.71025 v 9.119939 h -3.69991 V 36.283373 h 3.69991 v 8.762931 h 10.71025 z"
             style="font-style:normal;font-variant:normal;font-weight:500;font-stretch:normal;font-family:Dubai;-inkscape-font-specification:'Dubai Medium';fill:#ffffff;fill-opacity:1;stroke:none;stroke-width:0.213625;stroke-miterlimit:10;stroke-dasharray:none;stroke-opacity:1"
             id="path939"
             inkscape:connector-curvature="0" />
          <path
             d="m 391.90167,57.736326 q -3.24553,0 -5.5174,-1.363122 -2.27187,-1.395578 -3.44027,-3.862181 -1.13593,-2.499058 -1.13593,-5.777043 0,-3.634994 1.39558,-6.069141 1.39557,-2.466603 3.73236,-3.634994 2.33678,-1.168391 5.19284,-1.168391 3.24553,0 5.5174,1.395578 2.27188,1.363123 3.40781,3.862181 1.13594,2.466603 1.13594,5.744588 0,3.634993 -1.39558,6.101596 -1.39558,2.434148 -3.73236,3.602538 -2.30433,1.168391 -5.16039,1.168391 z m 0,-3.083253 q 2.10959,0 3.57008,-0.973659 1.46049,-0.973659 2.1745,-2.69379 0.71402,-1.752586 0.71402,-4.089368 0,-2.401692 -0.68156,-4.186733 -0.68156,-1.785042 -2.07714,-2.758701 -1.39558,-1.006114 -3.47272,-1.006114 -2.14205,0 -3.60253,0.973659 -1.46049,0.973659 -2.17451,2.726245 -0.71402,1.720131 -0.71402,4.056912 0,3.667449 1.59031,5.809499 1.59031,2.14205 4.67357,2.14205 z"
             style="font-style:normal;font-variant:normal;font-weight:500;font-stretch:normal;font-family:Dubai;-inkscape-font-specification:'Dubai Medium';fill:#ffffff;fill-opacity:1;stroke:none;stroke-width:0.213625;stroke-miterlimit:10;stroke-dasharray:none;stroke-opacity:1"
             id="path941"
             inkscape:connector-curvature="0" />
          <path
             d="m 415.03875,57.736326 q -3.24553,0 -5.5174,-1.363122 -2.27187,-1.395578 -3.44026,-3.862181 -1.13594,-2.499058 -1.13594,-5.777043 0,-3.634994 1.39558,-6.069141 1.39558,-2.466603 3.73236,-3.634994 2.33678,-1.168391 5.19285,-1.168391 3.24553,0 5.5174,1.395578 2.27187,1.363123 3.40781,3.862181 1.13593,2.466603 1.13593,5.744588 0,3.634993 -1.39558,6.101596 -1.39557,2.434148 -3.73236,3.602538 -2.30432,1.168391 -5.16039,1.168391 z m 0,-3.083253 q 2.1096,0 3.57008,-0.973659 1.46049,-0.973659 2.17451,-2.69379 0.71402,-1.752586 0.71402,-4.089368 0,-2.401692 -0.68156,-4.186733 -0.68157,-1.785042 -2.07714,-2.758701 -1.39558,-1.006114 -3.47272,-1.006114 -2.14205,0 -3.60254,0.973659 -1.46049,0.973659 -2.1745,2.726245 -0.71402,1.720131 -0.71402,4.056912 0,3.667449 1.59031,5.809499 1.59031,2.14205 4.67356,2.14205 z"
             style="font-style:normal;font-variant:normal;font-weight:500;font-stretch:normal;font-family:Dubai;-inkscape-font-specification:'Dubai Medium';fill:#ffffff;fill-opacity:1;stroke:none;stroke-width:0.213625;stroke-miterlimit:10;stroke-dasharray:none;stroke-opacity:1"
             id="path943-6"
             inkscape:connector-curvature="0" />
          <path
             d="m 432.91808,54.101333 h 9.99623 v 3.213074 H 429.21817 V 36.283373 h 3.69991 z"
             style="font-style:normal;font-variant:normal;font-weight:500;font-stretch:normal;font-family:Dubai;-inkscape-font-specification:'Dubai Medium';fill:#ffffff;fill-opacity:1;stroke:none;stroke-width:0.213625;stroke-miterlimit:10;stroke-dasharray:none;stroke-opacity:1"
             id="path945"
             inkscape:connector-curvature="0" />
          <path
             d="m 462.25918,57.736326 q -3.40781,0 -5.61477,-1.330667 -2.20696,-1.363123 -3.24553,-3.79727 -1.03857,-2.434148 -1.03857,-5.712133 0,-3.894636 1.33067,-6.361238 1.36312,-2.466603 3.57009,-3.570083 2.20696,-1.103481 4.90075,-1.103481 1.97977,0 3.63499,0.48683 1.68767,0.486829 3.27798,1.428033 l -1.49294,2.758701 q -2.53151,-1.5254 -5.2253,-1.5254 -3.14817,0 -4.64111,2.044684 -1.46049,2.012229 -1.46049,5.647222 0,3.73236 1.62277,5.809499 1.62276,2.044684 4.67356,2.044684 1.55785,0 2.7587,-0.389464 1.20085,-0.421919 2.4666,-1.16839 l 1.46049,2.661334 q -1.75259,1.03857 -3.40781,1.557854 -1.62276,0.519285 -3.57008,0.519285 z"
             style="font-style:normal;font-variant:normal;font-weight:500;font-stretch:normal;font-family:Dubai;-inkscape-font-specification:'Dubai Medium';fill:#ffffff;fill-opacity:1;stroke:none;stroke-width:0.213625;stroke-miterlimit:10;stroke-dasharray:none;stroke-opacity:1"
             id="path947-1"
             inkscape:connector-curvature="0" />
          <path
             d="m 480.58325,57.736326 q -3.24553,0 -5.5174,-1.363122 -2.27188,-1.395578 -3.44027,-3.862181 -1.13593,-2.499058 -1.13593,-5.777043 0,-3.634994 1.39558,-6.069141 1.39557,-2.466603 3.73236,-3.634994 2.33678,-1.168391 5.19284,-1.168391 3.24553,0 5.5174,1.395578 2.27188,1.363123 3.40781,3.862181 1.13594,2.466603 1.13594,5.744588 0,3.634993 -1.39558,6.101596 -1.39558,2.434148 -3.73236,3.602538 -2.30433,1.168391 -5.16039,1.168391 z m 0,-3.083253 q 2.10959,0 3.57008,-0.973659 1.46049,-0.973659 2.1745,-2.69379 0.71402,-1.752586 0.71402,-4.089368 0,-2.401692 -0.68156,-4.186733 -0.68156,-1.785042 -2.07714,-2.758701 -1.39558,-1.006114 -3.47272,-1.006114 -2.14205,0 -3.60253,0.973659 -1.46049,0.973659 -2.17451,2.726245 -0.71402,1.720131 -0.71402,4.056912 0,3.667449 1.59031,5.809499 1.59031,2.14205 4.67357,2.14205 z"
             style="font-style:normal;font-variant:normal;font-weight:500;font-stretch:normal;font-family:Dubai;-inkscape-font-specification:'Dubai Medium';fill:#ffffff;fill-opacity:1;stroke:none;stroke-width:0.213625;stroke-miterlimit:10;stroke-dasharray:none;stroke-opacity:1"
             id="path949"
             inkscape:connector-curvature="0" />
          <path
             d="m 516.73491,36.283373 v 21.031034 h -3.635 V 42.547246 q -0.55174,1.460489 -1.33066,2.985888 l -4.44638,8.730475 h -3.18062 l -4.38147,-8.730475 q -1.03856,-2.012229 -1.42803,-3.050798 v 14.832071 h -3.57008 V 36.283373 h 3.992 l 4.77093,9.249761 q 1.65522,3.277985 2.23942,5.030571 0.61665,-1.914863 2.23941,-5.030571 l 4.80339,-9.249761 z"
             style="font-style:normal;font-variant:normal;font-weight:500;font-stretch:normal;font-family:Dubai;-inkscape-font-specification:'Dubai Medium';fill:#ffffff;fill-opacity:1;stroke:none;stroke-width:0.213625;stroke-miterlimit:10;stroke-dasharray:none;stroke-opacity:1"
             id="path951-1"
             inkscape:connector-curvature="0" />
          <path
             d="m 543.67534,36.283373 v 21.031034 h -3.635 V 42.547246 q -0.55174,1.460489 -1.33066,2.985888 l -4.44638,8.730475 h -3.18062 l -4.38147,-8.730475 q -1.03856,-2.012229 -1.42803,-3.050798 V 57.314407 H 521.7031 V 36.283373 h 3.992 l 4.77093,9.249761 q 1.65522,3.277985 2.23942,5.030571 0.61665,-1.914863 2.23941,-5.030571 l 4.80339,-9.249761 z"
             style="font-style:normal;font-variant:normal;font-weight:500;font-stretch:normal;font-family:Dubai;-inkscape-font-specification:'Dubai Medium';fill:#ffffff;fill-opacity:1;stroke:none;stroke-width:0.213625;stroke-miterlimit:10;stroke-dasharray:none;stroke-opacity:1"
             id="path953"
             inkscape:connector-curvature="0" />
          <path
             d="M 548.64353,57.314407 V 36.283373 h 3.6999 v 21.031034 z"
             style="font-style:normal;font-variant:normal;font-weight:500;font-stretch:normal;font-family:Dubai;-inkscape-font-specification:'Dubai Medium';fill:#ffffff;fill-opacity:1;stroke:none;stroke-width:0.213625;stroke-miterlimit:10;stroke-dasharray:none;stroke-opacity:1"
             id="path955-1"
             inkscape:connector-curvature="0" />
          <path
             d="m 573.0996,36.283373 v 3.18062 h -6.94543 v 17.850414 h -3.6999 V 39.463993 h -7.0428 v -3.18062 z"
             style="font-style:normal;font-variant:normal;font-weight:500;font-stretch:normal;font-family:Dubai;-inkscape-font-specification:'Dubai Medium';fill:#ffffff;fill-opacity:1;stroke:none;stroke-width:0.213625;stroke-miterlimit:10;stroke-dasharray:none;stroke-opacity:1"
             id="path957"
             inkscape:connector-curvature="0" />
          <path
             d="m 591.79943,36.283373 v 3.18062 H 584.854 v 17.850414 h -3.6999 V 39.463993 h -7.0428 v -3.18062 z"
             style="font-style:normal;font-variant:normal;font-weight:500;font-stretch:normal;font-family:Dubai;-inkscape-font-specification:'Dubai Medium';fill:#ffffff;fill-opacity:1;stroke:none;stroke-width:0.213625;stroke-miterlimit:10;stroke-dasharray:none;stroke-opacity:1"
             id="path959-9"
             inkscape:connector-curvature="0" />
          <path
             d="m 598.4908,54.231154 h 10.02869 v 3.083253 H 594.7909 V 36.283373 h 13.56631 v 3.050798 h -9.86641 v 5.777044 h 8.5682 l -0.42192,2.985887 h -8.14628 z"
             style="font-style:normal;font-variant:normal;font-weight:500;font-stretch:normal;font-family:Dubai;-inkscape-font-specification:'Dubai Medium';fill:#ffffff;fill-opacity:1;stroke:none;stroke-width:0.213625;stroke-miterlimit:10;stroke-dasharray:none;stroke-opacity:1"
             id="path961"
             inkscape:connector-curvature="0" />
          <path
             d="m 616.30321,54.231154 h 10.02869 v 3.083253 H 612.60331 V 36.283373 h 13.56631 v 3.050798 h -9.86641 v 5.777044 h 8.5682 l -0.42192,2.985887 h -8.14628 z"
             style="font-style:normal;font-variant:normal;font-weight:500;font-stretch:normal;font-family:Dubai;-inkscape-font-specification:'Dubai Medium';fill:#ffffff;fill-opacity:1;stroke:none;stroke-width:0.213625;stroke-miterlimit:10;stroke-dasharray:none;stroke-opacity:1"
             id="path963-9"
             inkscape:connector-curvature="0" />
        </g>
        <g
           aria-label="RYAN ALLEN"
           transform="matrix(1.1412283,0,0,1.1245401,114.11556,825.52899)"
           style="font-style:normal;font-variant:normal;font-weight:normal;font-stretch:normal;font-size:96px;line-height:10px;font-family:Onyx;-inkscape-font-specification:Onyx;font-variant-ligatures:normal;font-variant-caps:normal;font-variant-numeric:normal;text-align:start;letter-spacing:0px;word-spacing:0px;writing-mode:lr-tb;text-anchor:start;display:inline;fill:#ffffff;fill-opacity:1;stroke:none;stroke-width:0.248929;stroke-miterlimit:10;stroke-dasharray:none;stroke-opacity:1"
           id="flowRoot1294">
          <path
             d="m 51.97675,-324.85288 v 0.672 h -12.384 l -16.8,-23.52 h -7.488 v 23.52 h -10.944 v -62.208 h 20.544 q 7.68,0 12.864,2.4 5.28,2.4 7.872,6.624 2.688,4.224 2.688,9.792 0,6.624 -3.648,11.616 -3.552,4.896 -10.464,6.912 z m -36.672,-31.488 h 8.256 q 6.528,0 9.984,-2.688 3.456,-2.784 3.456,-8.16 0,-4.992 -3.168,-7.584 -3.072,-2.592 -9.024,-2.592 h -9.504 z"
             style="font-style:normal;font-variant:normal;font-weight:500;font-stretch:normal;font-size:96px;font-family:Dubai;-inkscape-font-specification:'Dubai Medium';fill:#ffffff;fill-opacity:1;stroke:none;stroke-width:0.248929;stroke-miterlimit:10;stroke-dasharray:none;stroke-opacity:1"
             id="path897"
             inkscape:connector-curvature="0" />
          <path
             d="m 106.88125,-386.38888 v 0.672 l -22.848,36.576 v 24.96 h -10.944 v -25.056 l -22.368,-36.48 v -0.672 h 12.192 l 15.84,27.264 16.512,-27.264 z"
             style="font-style:normal;font-variant:normal;font-weight:500;font-stretch:normal;font-size:96px;font-family:Dubai;-inkscape-font-specification:'Dubai Medium';fill:#ffffff;fill-opacity:1;stroke:none;stroke-width:0.248929;stroke-miterlimit:10;stroke-dasharray:none;stroke-opacity:1"
             id="path900"
             inkscape:connector-curvature="0" />
          <path
             d="m 138.29275,-386.38888 22.944,61.536 v 0.672 h -11.52 l -5.856,-16.512 h -24.96 l -5.76,16.512 h -11.232 v -0.672 l 22.848,-61.536 z m -16.32,36.864 h 18.72 l -9.408,-26.688 z"
             style="font-style:normal;font-variant:normal;font-weight:500;font-stretch:normal;font-size:96px;font-family:Dubai;-inkscape-font-specification:'Dubai Medium';fill:#ffffff;fill-opacity:1;stroke:none;stroke-width:0.248929;stroke-miterlimit:10;stroke-dasharray:none;stroke-opacity:1"
             id="path902"
             inkscape:connector-curvature="0" />
          <path
             d="m 223.00675,-386.38888 v 62.208 h -12 l -23.904,-35.328 q -0.48,-0.768 -1.92,-2.784 -1.344,-2.112 -2.496,-3.936 -1.056,-1.92 -1.92,-3.84 v 45.888 h -10.656 v -62.208 h 11.712 l 25.056,37.056 q 0.48,0.672 1.728,2.592 1.248,1.824 2.208,3.456 0.96,1.536 1.632,3.072 v -46.176 z"
             style="font-style:normal;font-variant:normal;font-weight:500;font-stretch:normal;font-size:96px;font-family:Dubai;-inkscape-font-specification:'Dubai Medium';fill:#ffffff;fill-opacity:1;stroke:none;stroke-width:0.248929;stroke-miterlimit:10;stroke-dasharray:none;stroke-opacity:1"
             id="path904"
             inkscape:connector-curvature="0" />
          <path
             d="m 290.54275,-386.38888 22.944,61.536 v 0.672 h -11.52 l -5.856,-16.512 h -24.96 l -5.76,16.512 h -11.232 v -0.672 l 22.848,-61.536 z m -16.32,36.864 h 18.72 l -9.408,-26.688 z"
             style="font-style:normal;font-variant:normal;font-weight:500;font-stretch:normal;font-size:96px;font-family:Dubai;-inkscape-font-specification:'Dubai Medium';fill:#ffffff;fill-opacity:1;stroke:none;stroke-width:0.248929;stroke-miterlimit:10;stroke-dasharray:none;stroke-opacity:1"
             id="path906"
             inkscape:connector-curvature="0" />
          <path
             d="m 333.30475,-333.68488 h 29.568 v 9.504 h -40.512 v -62.208 h 10.944 z"
             style="font-style:normal;font-variant:normal;font-weight:500;font-stretch:normal;font-size:96px;font-family:Dubai;-inkscape-font-specification:'Dubai Medium';fill:#ffffff;fill-opacity:1;stroke:none;stroke-width:0.248929;stroke-miterlimit:10;stroke-dasharray:none;stroke-opacity:1"
             id="path908"
             inkscape:connector-curvature="0" />
          <path
             d="m 382.80475,-333.68488 h 29.568 v 9.504 h -40.512 v -62.208 h 10.944 z"
             style="font-style:normal;font-variant:normal;font-weight:500;font-stretch:normal;font-size:96px;font-family:Dubai;-inkscape-font-specification:'Dubai Medium';fill:#ffffff;fill-opacity:1;stroke:none;stroke-width:0.248929;stroke-miterlimit:10;stroke-dasharray:none;stroke-opacity:1"
             id="path910"
             inkscape:connector-curvature="0" />
          <path
             d="m 432.30475,-333.30088 h 29.664 v 9.12 h -40.608 v -62.208 h 40.128 v 9.024 h -29.184 v 17.088 h 25.344 l -1.248,8.832 h -24.096 z"
             style="font-style:normal;font-variant:normal;font-weight:500;font-stretch:normal;font-size:96px;font-family:Dubai;-inkscape-font-specification:'Dubai Medium';fill:#ffffff;fill-opacity:1;stroke:none;stroke-width:0.248929;stroke-miterlimit:10;stroke-dasharray:none;stroke-opacity:1"
             id="path912"
             inkscape:connector-curvature="0" />
          <path
             d="m 526.94425,-386.38888 v 62.208 h -12 l -23.904,-35.328 q -0.48,-0.768 -1.92,-2.784 -1.344,-2.112 -2.496,-3.936 -1.056,-1.92 -1.92,-3.84 v 45.888 h -10.656 v -62.208 h 11.712 l 25.056,37.056 q 0.48,0.672 1.728,2.592 1.248,1.824 2.208,3.456 0.96,1.536 1.632,3.072 v -46.176 z"
             style="font-style:normal;font-variant:normal;font-weight:500;font-stretch:normal;font-size:96px;font-family:Dubai;-inkscape-font-specification:'Dubai Medium';fill:#ffffff;fill-opacity:1;stroke:none;stroke-width:0.248929;stroke-miterlimit:10;stroke-dasharray:none;stroke-opacity:1"
             id="path914"
             inkscape:connector-curvature="0" />
        </g>
        <g
           aria-label="Ruth"
           transform="matrix(4.0282537,0,0,3.6833844,198.35291,1615.032)"
           style="font-style:normal;font-variant:normal;font-weight:500;font-stretch:normal;font-size:32px;line-height:10px;font-family:Dubai;-inkscape-font-specification:'Dubai Medium';font-variant-ligatures:normal;font-variant-caps:normal;font-variant-numeric:normal;text-align:start;letter-spacing:0px;word-spacing:0px;writing-mode:lr-tb;text-anchor:start;display:inline;fill:#ffffff;fill-opacity:1;stroke:none;stroke-width:0.0732095;stroke-miterlimit:10;stroke-dasharray:none;stroke-opacity:1"
           id="flowRoot1286">
          <path
             d="m 26.508124,-339.87523 v 0.59734 H 14.785457 L 2.7641243,-356.89923 h -4.0319998 v 17.62134 H -11.870542 v -48.384 H 4.3321243 q 6.4213327,0 10.6773327,2.016 4.330667,1.94133 6.421333,5.376 2.090667,3.36 2.090667,7.69066 0,5.07734 -2.538667,8.81067 -2.538666,3.65867 -7.466666,5.45067 z M -1.2678755,-364.88856 H 3.286791 q 4.4799998,0 6.869333,-1.71733 2.464,-1.71734 2.464,-5.67467 0,-3.43467 -2.165333,-5.152 -2.1653335,-1.71733 -6.0480001,-1.71733 h -5.6746664 z"
             style="font-style:normal;font-variant:normal;font-weight:bold;font-stretch:normal;font-size:74.6667px;font-family:Dubai;-inkscape-font-specification:'Dubai Bold';letter-spacing:-3.51565px;fill:#ffffff;fill-opacity:1;stroke:none;stroke-width:0.0732095;stroke-miterlimit:10;stroke-dasharray:none;stroke-opacity:1"
             id="path877-8"
             inkscape:connector-curvature="0" />
          <path
             d="m 59.339968,-373.62456 v 34.34667 h -8.661333 l -0.821333,-2.688 q -5.749333,3.73333 -11.797333,3.73333 -5.002667,0 -7.765333,-2.76267 -2.688,-2.76266 -2.688,-7.616 v -24.04266 l 10.154666,-0.97067 v 22.02667 q 0,2.98666 0.970667,4.33066 0.970667,1.26934 3.509333,1.26934 2.688,0 6.944,-2.31467 v -24.34133 z"
             style="font-style:normal;font-variant:normal;font-weight:bold;font-stretch:normal;font-size:74.6667px;font-family:Dubai;-inkscape-font-specification:'Dubai Bold';letter-spacing:-3.51565px;fill:#ffffff;fill-opacity:1;stroke:none;stroke-width:0.0732095;stroke-miterlimit:10;stroke-dasharray:none;stroke-opacity:1"
             id="path879"
             inkscape:connector-curvature="0" />
          <path
             d="m 87.263646,-340.69656 q -4.405333,2.464 -9.855999,2.464 -2.762667,0 -5.152,-1.04533 -2.314667,-1.12 -3.808,-3.50934 -1.493333,-2.38933 -1.493333,-6.048 v -16.05333 h -6.122667 v -7.98933 h 6.122667 v -7.54134 l 10.154666,-1.41866 v 8.96 h 9.333333 l -1.045333,7.98933 h -8.288 v 14.48533 q 0,2.24 0.746667,3.136 0.821333,0.896 2.24,0.896 1.045333,0 2.016,-0.224 0.970666,-0.29866 2.389333,-0.896 z"
             style="font-style:normal;font-variant:normal;font-weight:bold;font-stretch:normal;font-size:74.6667px;font-family:Dubai;-inkscape-font-specification:'Dubai Bold';letter-spacing:-3.51565px;fill:#ffffff;fill-opacity:1;stroke:none;stroke-width:0.0732095;stroke-miterlimit:10;stroke-dasharray:none;stroke-opacity:1"
             id="path881-1"
             inkscape:connector-curvature="0" />
          <path
             d="m 110.1905,-373.99789 q 5.152,0 7.76533,2.53866 2.61333,2.53867 2.61333,7.46667 v 24.71467 H 110.4145 v -21.65334 q 0,-2.09066 -0.448,-3.21066 -0.37333,-1.19467 -1.344,-1.71734 -0.97067,-0.52266 -2.76267,-0.52266 -3.21066,0 -6.943998,2.16533 v 24.93867 H 88.761166 v -51.37067 l 10.154666,-0.97067 v 20.832 q 5.226668,-3.21066 11.274668,-3.21066 z"
             style="font-style:normal;font-variant:normal;font-weight:bold;font-stretch:normal;font-size:74.6667px;font-family:Dubai;-inkscape-font-specification:'Dubai Bold';letter-spacing:-3.51565px;fill:#ffffff;fill-opacity:1;stroke:none;stroke-width:0.0732095;stroke-miterlimit:10;stroke-dasharray:none;stroke-opacity:1"
             id="path883-3"
             inkscape:connector-curvature="0" />
        </g>
      </g>
    </g>
  </g>
</svg>
